<mxfile host="app.diagrams.net" agent="Mozilla/5.0 (Macintosh; Intel Mac OS X 10_15_7) AppleWebKit/537.36 (KHTML, like Gecko) Chrome/134.0.0.0 Safari/537.36" version="26.2.9">
  <diagram name="第 1 页" id="8tUUaNddCxCje9mI-UUB">
    <mxGraphModel dx="1775" dy="1699" grid="1" gridSize="10" guides="1" tooltips="1" connect="1" arrows="1" fold="1" page="1" pageScale="1" pageWidth="827" pageHeight="1169" math="0" shadow="0">
      <root>
        <mxCell id="0" />
        <mxCell id="1" parent="0" />
        <UserObject label="" plantUmlData="{&#xa;  &quot;data&quot;: &quot;@startuml AI-System-Architecture\nskinparam monochrome true\nskinparam nodesep 50\nskinparam ranksep 30\n\ntitle AI 系统分层架构\\n(Django + FastAPI 混合模式)\n\npackage \&quot;API Layer\&quot; {\n  [Django REST API] as django_api\n  [FastAPI WebSocket] as fastapi_ws\n  database \&quot;JWT Auth\&quot; as jwt\n}\n\npackage \&quot;Business Logic\&quot; {\n  [Django Services] as django_services\n  [LangChain Workflow] as langchain\n}\n\npackage \&quot;Data Layer\&quot; {\n  [MySQL] as mysql\n  [FAISS VectorDB] as faiss\n  [Redis Cache/Queue] as redis\n}\n\n&#39; 连接关系\ndjango_api -d-&gt; jwt : \&quot;认证\&quot;\nfastapi_ws -d-&gt; jwt\n\ndjango_api --&gt; django_services : \&quot;调用\&quot;\nfastapi_ws --&gt; langchain : \&quot;异步处理\&quot;\n\ndjango_services --&gt; mysql : \&quot;ORM\&quot;\ndjango_services --&gt; redis : \&quot;缓存\&quot;\nlangchain --&gt; faiss : \&quot;向量检索\&quot;\nlangchain --&gt; redis : \&quot;消息队列\&quot;\n\n&#39; 外部用户\nactor User as user\nuser --&gt; django_api : \&quot;REST (80%)\&quot;\nuser --&gt; fastapi_ws : \&quot;WS (20%)\&quot;\n\n&#39; 标注说明\nnote right of django_api\n  • 核心业务API\n  • 用户/订单管理\n  • SimpleJWT认证\nend note\n\nnote left of fastapi_ws\n  • 高并发AI请求\n  • 流式响应\n  • 异步处理\nend note\n\nnote bottom of langchain\n  • LLM编排\n  • RAG流程\n  • 异步任务队列\nend note\n@enduml&quot;,&#xa;  &quot;format&quot;: &quot;svg&quot;&#xa;}" id="2">
          <mxCell style="shape=image;noLabel=1;verticalAlign=top;aspect=fixed;imageAspect=0;image=data:image/svg+xml,PHN2ZyB4bWxucz0iaHR0cDovL3d3dy53My5vcmcvMjAwMC9zdmciIHhtbG5zOnhsaW5rPSJodHRwOi8vd3d3LnczLm9yZy8xOTk5L3hsaW5rIiBjb250ZW50U3R5bGVUeXBlPSJ0ZXh0L2NzcyIgZGF0YS1kaWFncmFtLXR5cGU9IkRFU0NSSVBUSU9OIiBoZWlnaHQ9IjU0NnB4IiBwcmVzZXJ2ZUFzcGVjdFJhdGlvPSJub25lIiBzdHlsZT0id2lkdGg6OTQ5cHg7aGVpZ2h0OjU0NnB4O2JhY2tncm91bmQ6I0ZGRkZGRjsiIHZlcnNpb249IjEuMSIgdmlld0JveD0iMCAwIDk0OSA1NDYiIHdpZHRoPSI5NDlweCIgem9vbUFuZFBhbj0ibWFnbmlmeSI+PHRpdGxlPkFJICYjMzE5OTU7JiMzMjQ3OTsmIzIwOTk4OyYjMjM2MTg7JiMyNjU1MDsmIzI2NTAwOzwvdGl0bGU+PGRlZnMvPjxnPjx0ZXh0IGZpbGw9IiMwMDAwMDAiIGZvbnQtZmFtaWx5PSJzYW5zLXNlcmlmIiBmb250LXNpemU9IjE0IiBmb250LXdlaWdodD0iYm9sZCIgbGVuZ3RoQWRqdXN0PSJzcGFjaW5nIiB0ZXh0TGVuZ3RoPSIxMDUiIHg9IjQxNSIgeT0iMjMuMjM0NCI+QUkgJiMzMTk5NTsmIzMyNDc5OyYjMjA5OTg7JiMyMzYxODsmIzI2NTUwOyYjMjY1MDA7PC90ZXh0Pjx0ZXh0IGZpbGw9IiMwMDAwMDAiIGZvbnQtZmFtaWx5PSJzYW5zLXNlcmlmIiBmb250LXNpemU9IjE0IiBmb250LXdlaWdodD0iYm9sZCIgbGVuZ3RoQWRqdXN0PSJzcGFjaW5nIiB0ZXh0TGVuZ3RoPSIxODkiIHg9IjM3MyIgeT0iMzguMjE4OCI+KERqYW5nbyArIEZhc3RBUEkgJiMyODE1MTsmIzIxNTEyOyYjMjcxNjk7JiMyNDMzNTspPC90ZXh0PjwhLS1jbHVzdGVyIEFQSSBMYXllci0tPjxnIGNsYXNzPSJjbHVzdGVyIiBkYXRhLWVudGl0eT0iQVBJIExheWVyIiBkYXRhLXNvdXJjZS1saW5lPSI3IiBkYXRhLXVpZD0iZW50MDAwMiIgaWQ9ImNsdXN0ZXJfQVBJIExheWVyIj48cGF0aCBkPSJNOC41LDE3Ny40Njg4IEw3Mi41LDE3Ny40Njg4IEEzLjc1LDMuNzUgMCAwIDEgNzUsMTc5Ljk2ODggTDgyLDE5OC40NTMxIEwzODkuNSwxOTguNDUzMSBBMi41LDIuNSAwIDAgMSAzOTIsMjAwLjk1MzEgTDM5MiwzOTUuOTY4OCBBMi41LDIuNSAwIDAgMSAzODkuNSwzOTguNDY4OCBMOC41LDM5OC40Njg4IEEyLjUsMi41IDAgMCAxIDYsMzk1Ljk2ODggTDYsMTc5Ljk2ODggQTIuNSwyLjUgMCAwIDEgOC41LDE3Ny40Njg4IiBmaWxsPSJub25lIiBzdHlsZT0ic3Ryb2tlOiMwMDAwMDA7c3Ryb2tlLXdpZHRoOjEuNTsiLz48bGluZSBzdHlsZT0ic3Ryb2tlOiMwMDAwMDA7c3Ryb2tlLXdpZHRoOjEuNTsiIHgxPSI2IiB4Mj0iODIiIHkxPSIxOTguNDUzMSIgeTI9IjE5OC40NTMxIi8+PHRleHQgZmlsbD0iIzAwMDAwMCIgZm9udC1mYW1pbHk9InNhbnMtc2VyaWYiIGZvbnQtc2l6ZT0iMTQiIGZvbnQtd2VpZ2h0PSJib2xkIiBsZW5ndGhBZGp1c3Q9InNwYWNpbmciIHRleHRMZW5ndGg9IjYzIiB4PSIxMCIgeT0iMTkyLjcwMzEiPkFQSSBMYXllcjwvdGV4dD48L2c+PCEtLWNsdXN0ZXIgQnVzaW5lc3MgTG9naWMtLT48ZyBjbGFzcz0iY2x1c3RlciIgZGF0YS1lbnRpdHk9IkJ1c2luZXNzIExvZ2ljIiBkYXRhLXNvdXJjZS1saW5lPSIxMyIgZGF0YS11aWQ9ImVudDAwMDYiIGlkPSJjbHVzdGVyX0J1c2luZXNzIExvZ2ljIj48cGF0aCBkPSJNNDE4LjUsMzA0Ljk2ODggTDUxNy41LDMwNC45Njg4IEEzLjc1LDMuNzUgMCAwIDEgNTIwLDMwNy40Njg4IEw1MjcsMzI1Ljk1MzEgTDgwNy41LDMyNS45NTMxIEEyLjUsMi41IDAgMCAxIDgxMCwzMjguNDUzMSBMODEwLDM5Ni40Njg4IEEyLjUsMi41IDAgMCAxIDgwNy41LDM5OC45Njg4IEw0MTguNSwzOTguOTY4OCBBMi41LDIuNSAwIDAgMSA0MTYsMzk2LjQ2ODggTDQxNiwzMDcuNDY4OCBBMi41LDIuNSAwIDAgMSA0MTguNSwzMDQuOTY4OCIgZmlsbD0ibm9uZSIgc3R5bGU9InN0cm9rZTojMDAwMDAwO3N0cm9rZS13aWR0aDoxLjU7Ii8+PGxpbmUgc3R5bGU9InN0cm9rZTojMDAwMDAwO3N0cm9rZS13aWR0aDoxLjU7IiB4MT0iNDE2IiB4Mj0iNTI3IiB5MT0iMzI1Ljk1MzEiIHkyPSIzMjUuOTUzMSIvPjx0ZXh0IGZpbGw9IiMwMDAwMDAiIGZvbnQtZmFtaWx5PSJzYW5zLXNlcmlmIiBmb250LXNpemU9IjE0IiBmb250LXdlaWdodD0iYm9sZCIgbGVuZ3RoQWRqdXN0PSJzcGFjaW5nIiB0ZXh0TGVuZ3RoPSI5OCIgeD0iNDIwIiB5PSIzMjAuMjAzMSI+QnVzaW5lc3MgTG9naWM8L3RleHQ+PC9nPjwhLS1jbHVzdGVyIERhdGEgTGF5ZXItLT48ZyBjbGFzcz0iY2x1c3RlciIgZGF0YS1lbnRpdHk9IkRhdGEgTGF5ZXIiIGRhdGEtc291cmNlLWxpbmU9IjE4IiBkYXRhLXVpZD0iZW50MDAwOSIgaWQ9ImNsdXN0ZXJfRGF0YSBMYXllciI+PHBhdGggZD0iTTI5NC41LDQ0NS45Njg4IEwzNjUuNSw0NDUuOTY4OCBBMy43NSwzLjc1IDAgMCAxIDM2OCw0NDguNDY4OCBMMzc1LDQ2Ni45NTMxIEw3OTMuNSw0NjYuOTUzMSBBMi41LDIuNSAwIDAgMSA3OTYsNDY5LjQ1MzEgTDc5Niw1MzcuNDY4OCBBMi41LDIuNSAwIDAgMSA3OTMuNSw1MzkuOTY4OCBMMjk0LjUsNTM5Ljk2ODggQTIuNSwyLjUgMCAwIDEgMjkyLDUzNy40Njg4IEwyOTIsNDQ4LjQ2ODggQTIuNSwyLjUgMCAwIDEgMjk0LjUsNDQ1Ljk2ODgiIGZpbGw9Im5vbmUiIHN0eWxlPSJzdHJva2U6IzAwMDAwMDtzdHJva2Utd2lkdGg6MS41OyIvPjxsaW5lIHN0eWxlPSJzdHJva2U6IzAwMDAwMDtzdHJva2Utd2lkdGg6MS41OyIgeDE9IjI5MiIgeDI9IjM3NSIgeTE9IjQ2Ni45NTMxIiB5Mj0iNDY2Ljk1MzEiLz48dGV4dCBmaWxsPSIjMDAwMDAwIiBmb250LWZhbWlseT0ic2Fucy1zZXJpZiIgZm9udC1zaXplPSIxNCIgZm9udC13ZWlnaHQ9ImJvbGQiIGxlbmd0aEFkanVzdD0ic3BhY2luZyIgdGV4dExlbmd0aD0iNzAiIHg9IjI5NiIgeT0iNDYxLjIwMzEiPkRhdGEgTGF5ZXI8L3RleHQ+PC9nPjwhLS1lbnRpdHkgZGphbmdvX2FwaS0tPjxnIGNsYXNzPSJlbnRpdHkiIGRhdGEtZW50aXR5PSJkamFuZ29fYXBpIiBkYXRhLXNvdXJjZS1saW5lPSI4IiBkYXRhLXVpZD0iZW50MDAwMyIgaWQ9ImVudGl0eV9kamFuZ29fYXBpIj48cmVjdCBmaWxsPSIjRjFGMUYxIiBoZWlnaHQ9IjQ0Ljk4NDQiIHJ4PSIyLjUiIHJ5PSIyLjUiIHN0eWxlPSJzdHJva2U6IzE4MTgxODtzdHJva2Utd2lkdGg6MC41OyIgd2lkdGg9IjE0NSIgeD0iMjIuNSIgeT0iMjEwLjQ2ODgiLz48cmVjdCBmaWxsPSIjRjFGMUYxIiBoZWlnaHQ9IjEwIiBzdHlsZT0ic3Ryb2tlOiMxODE4MTg7c3Ryb2tlLXdpZHRoOjAuNTsiIHdpZHRoPSIxNSIgeD0iMTQ3LjUiIHk9IjIxNS40Njg4Ii8+PHJlY3QgZmlsbD0iI0YxRjFGMSIgaGVpZ2h0PSIyIiBzdHlsZT0ic3Ryb2tlOiMxODE4MTg7c3Ryb2tlLXdpZHRoOjAuNTsiIHdpZHRoPSI0IiB4PSIxNDUuNSIgeT0iMjE3LjQ2ODgiLz48cmVjdCBmaWxsPSIjRjFGMUYxIiBoZWlnaHQ9IjIiIHN0eWxlPSJzdHJva2U6IzE4MTgxODtzdHJva2Utd2lkdGg6MC41OyIgd2lkdGg9IjQiIHg9IjE0NS41IiB5PSIyMjEuNDY4OCIvPjx0ZXh0IGZpbGw9IiMwMDAwMDAiIGZvbnQtZmFtaWx5PSJzYW5zLXNlcmlmIiBmb250LXNpemU9IjE0IiBsZW5ndGhBZGp1c3Q9InNwYWNpbmciIHRleHRMZW5ndGg9IjEwNSIgeD0iMzcuNSIgeT0iMjQzLjcwMzEiPkRqYW5nbyBSRVNUIEFQSTwvdGV4dD48L2c+PCEtLWVudGl0eSBmYXN0YXBpX3dzLS0+PGcgY2xhc3M9ImVudGl0eSIgZGF0YS1lbnRpdHk9ImZhc3RhcGlfd3MiIGRhdGEtc291cmNlLWxpbmU9IjkiIGRhdGEtdWlkPSJlbnQwMDA0IiBpZD0iZW50aXR5X2Zhc3RhcGlfd3MiPjxyZWN0IGZpbGw9IiNGMUYxRjEiIGhlaWdodD0iNDQuOTg0NCIgcng9IjIuNSIgcnk9IjIuNSIgc3R5bGU9InN0cm9rZTojMTgxODE4O3N0cm9rZS13aWR0aDowLjU7IiB3aWR0aD0iMTU5IiB4PSIyMTcuNSIgeT0iMjEwLjQ2ODgiLz48cmVjdCBmaWxsPSIjRjFGMUYxIiBoZWlnaHQ9IjEwIiBzdHlsZT0ic3Ryb2tlOiMxODE4MTg7c3Ryb2tlLXdpZHRoOjAuNTsiIHdpZHRoPSIxNSIgeD0iMzU2LjUiIHk9IjIxNS40Njg4Ii8+PHJlY3QgZmlsbD0iI0YxRjFGMSIgaGVpZ2h0PSIyIiBzdHlsZT0ic3Ryb2tlOiMxODE4MTg7c3Ryb2tlLXdpZHRoOjAuNTsiIHdpZHRoPSI0IiB4PSIzNTQuNSIgeT0iMjE3LjQ2ODgiLz48cmVjdCBmaWxsPSIjRjFGMUYxIiBoZWlnaHQ9IjIiIHN0eWxlPSJzdHJva2U6IzE4MTgxODtzdHJva2Utd2lkdGg6MC41OyIgd2lkdGg9IjQiIHg9IjM1NC41IiB5PSIyMjEuNDY4OCIvPjx0ZXh0IGZpbGw9IiMwMDAwMDAiIGZvbnQtZmFtaWx5PSJzYW5zLXNlcmlmIiBmb250LXNpemU9IjE0IiBsZW5ndGhBZGp1c3Q9InNwYWNpbmciIHRleHRMZW5ndGg9IjExOSIgeD0iMjMyLjUiIHk9IjI0My43MDMxIj5GYXN0QVBJIFdlYlNvY2tldDwvdGV4dD48L2c+PCEtLWVudGl0eSBqd3QtLT48ZyBjbGFzcz0iZW50aXR5IiBkYXRhLWVudGl0eT0iand0IiBkYXRhLXNvdXJjZS1saW5lPSIxMCIgZGF0YS11aWQ9ImVudDAwMDUiIGlkPSJlbnRpdHlfand0Ij48cGF0aCBkPSJNODIsMzQ4LjQ2ODggQzgyLDMzOC40Njg4IDEyMCwzMzguNDY4OCAxMjAsMzM4LjQ2ODggQzEyMCwzMzguNDY4OCAxNTgsMzM4LjQ2ODggMTU4LDM0OC40Njg4IEwxNTgsMzcyLjQ1MzEgQzE1OCwzODIuNDUzMSAxMjAsMzgyLjQ1MzEgMTIwLDM4Mi40NTMxIEMxMjAsMzgyLjQ1MzEgODIsMzgyLjQ1MzEgODIsMzcyLjQ1MzEgTDgyLDM0OC40Njg4IiBmaWxsPSIjRjFGMUYxIiBzdHlsZT0ic3Ryb2tlOiMxODE4MTg7c3Ryb2tlLXdpZHRoOjAuNTsiLz48cGF0aCBkPSJNODIsMzQ4LjQ2ODggQzgyLDM1OC40Njg4IDEyMCwzNTguNDY4OCAxMjAsMzU4LjQ2ODggQzEyMCwzNTguNDY4OCAxNTgsMzU4LjQ2ODggMTU4LDM0OC40Njg4IiBmaWxsPSJub25lIiBzdHlsZT0ic3Ryb2tlOiMxODE4MTg7c3Ryb2tlLXdpZHRoOjAuNTsiLz48dGV4dCBmaWxsPSIjMDAwMDAwIiBmb250LWZhbWlseT0ic2Fucy1zZXJpZiIgZm9udC1zaXplPSIxNCIgbGVuZ3RoQWRqdXN0PSJzcGFjaW5nIiB0ZXh0TGVuZ3RoPSI1NiIgeD0iOTIiIHk9IjM3NS43MDMxIj5KV1QgQXV0aDwvdGV4dD48L2c+PCEtLWVudGl0eSBkamFuZ29fc2VydmljZXMtLT48ZyBjbGFzcz0iZW50aXR5IiBkYXRhLWVudGl0eT0iZGphbmdvX3NlcnZpY2VzIiBkYXRhLXNvdXJjZS1saW5lPSIxNCIgZGF0YS11aWQ9ImVudDAwMDciIGlkPSJlbnRpdHlfZGphbmdvX3NlcnZpY2VzIj48cmVjdCBmaWxsPSIjRjFGMUYxIiBoZWlnaHQ9IjQ0Ljk4NDQiIHJ4PSIyLjUiIHJ5PSIyLjUiIHN0eWxlPSJzdHJva2U6IzE4MTgxODtzdHJva2Utd2lkdGg6MC41OyIgd2lkdGg9IjE0NSIgeD0iNDMyLjUiIHk9IjMzNy45Njg4Ii8+PHJlY3QgZmlsbD0iI0YxRjFGMSIgaGVpZ2h0PSIxMCIgc3R5bGU9InN0cm9rZTojMTgxODE4O3N0cm9rZS13aWR0aDowLjU7IiB3aWR0aD0iMTUiIHg9IjU1Ny41IiB5PSIzNDIuOTY4OCIvPjxyZWN0IGZpbGw9IiNGMUYxRjEiIGhlaWdodD0iMiIgc3R5bGU9InN0cm9rZTojMTgxODE4O3N0cm9rZS13aWR0aDowLjU7IiB3aWR0aD0iNCIgeD0iNTU1LjUiIHk9IjM0NC45Njg4Ii8+PHJlY3QgZmlsbD0iI0YxRjFGMSIgaGVpZ2h0PSIyIiBzdHlsZT0ic3Ryb2tlOiMxODE4MTg7c3Ryb2tlLXdpZHRoOjAuNTsiIHdpZHRoPSI0IiB4PSI1NTUuNSIgeT0iMzQ4Ljk2ODgiLz48dGV4dCBmaWxsPSIjMDAwMDAwIiBmb250LWZhbWlseT0ic2Fucy1zZXJpZiIgZm9udC1zaXplPSIxNCIgbGVuZ3RoQWRqdXN0PSJzcGFjaW5nIiB0ZXh0TGVuZ3RoPSIxMDUiIHg9IjQ0Ny41IiB5PSIzNzEuMjAzMSI+RGphbmdvIFNlcnZpY2VzPC90ZXh0PjwvZz48IS0tZW50aXR5IGxhbmdjaGFpbi0tPjxnIGNsYXNzPSJlbnRpdHkiIGRhdGEtZW50aXR5PSJsYW5nY2hhaW4iIGRhdGEtc291cmNlLWxpbmU9IjE1IiBkYXRhLXVpZD0iZW50MDAwOCIgaWQ9ImVudGl0eV9sYW5nY2hhaW4iPjxyZWN0IGZpbGw9IiNGMUYxRjEiIGhlaWdodD0iNDQuOTg0NCIgcng9IjIuNSIgcnk9IjIuNSIgc3R5bGU9InN0cm9rZTojMTgxODE4O3N0cm9rZS13aWR0aDowLjU7IiB3aWR0aD0iMTY2IiB4PSI2MjgiIHk9IjMzNy45Njg4Ii8+PHJlY3QgZmlsbD0iI0YxRjFGMSIgaGVpZ2h0PSIxMCIgc3R5bGU9InN0cm9rZTojMTgxODE4O3N0cm9rZS13aWR0aDowLjU7IiB3aWR0aD0iMTUiIHg9Ijc3NCIgeT0iMzQyLjk2ODgiLz48cmVjdCBmaWxsPSIjRjFGMUYxIiBoZWlnaHQ9IjIiIHN0eWxlPSJzdHJva2U6IzE4MTgxODtzdHJva2Utd2lkdGg6MC41OyIgd2lkdGg9IjQiIHg9Ijc3MiIgeT0iMzQ0Ljk2ODgiLz48cmVjdCBmaWxsPSIjRjFGMUYxIiBoZWlnaHQ9IjIiIHN0eWxlPSJzdHJva2U6IzE4MTgxODtzdHJva2Utd2lkdGg6MC41OyIgd2lkdGg9IjQiIHg9Ijc3MiIgeT0iMzQ4Ljk2ODgiLz48dGV4dCBmaWxsPSIjMDAwMDAwIiBmb250LWZhbWlseT0ic2Fucy1zZXJpZiIgZm9udC1zaXplPSIxNCIgbGVuZ3RoQWRqdXN0PSJzcGFjaW5nIiB0ZXh0TGVuZ3RoPSIxMjYiIHg9IjY0MyIgeT0iMzcxLjIwMzEiPkxhbmdDaGFpbiBXb3JrZmxvdzwvdGV4dD48L2c+PCEtLWVudGl0eSBteXNxbC0tPjxnIGNsYXNzPSJlbnRpdHkiIGRhdGEtZW50aXR5PSJteXNxbCIgZGF0YS1zb3VyY2UtbGluZT0iMTkiIGRhdGEtdWlkPSJlbnQwMDEwIiBpZD0iZW50aXR5X215c3FsIj48cmVjdCBmaWxsPSIjRjFGMUYxIiBoZWlnaHQ9IjQ0Ljk4NDQiIHJ4PSIyLjUiIHJ5PSIyLjUiIHN0eWxlPSJzdHJva2U6IzE4MTgxODtzdHJva2Utd2lkdGg6MC41OyIgd2lkdGg9Ijc1IiB4PSIzMDcuNSIgeT0iNDc4Ljk2ODgiLz48cmVjdCBmaWxsPSIjRjFGMUYxIiBoZWlnaHQ9IjEwIiBzdHlsZT0ic3Ryb2tlOiMxODE4MTg7c3Ryb2tlLXdpZHRoOjAuNTsiIHdpZHRoPSIxNSIgeD0iMzYyLjUiIHk9IjQ4My45Njg4Ii8+PHJlY3QgZmlsbD0iI0YxRjFGMSIgaGVpZ2h0PSIyIiBzdHlsZT0ic3Ryb2tlOiMxODE4MTg7c3Ryb2tlLXdpZHRoOjAuNTsiIHdpZHRoPSI0IiB4PSIzNjAuNSIgeT0iNDg1Ljk2ODgiLz48cmVjdCBmaWxsPSIjRjFGMUYxIiBoZWlnaHQ9IjIiIHN0eWxlPSJzdHJva2U6IzE4MTgxODtzdHJva2Utd2lkdGg6MC41OyIgd2lkdGg9IjQiIHg9IjM2MC41IiB5PSI0ODkuOTY4OCIvPjx0ZXh0IGZpbGw9IiMwMDAwMDAiIGZvbnQtZmFtaWx5PSJzYW5zLXNlcmlmIiBmb250LXNpemU9IjE0IiBsZW5ndGhBZGp1c3Q9InNwYWNpbmciIHRleHRMZW5ndGg9IjM1IiB4PSIzMjIuNSIgeT0iNTEyLjIwMzEiPk15U1FMPC90ZXh0PjwvZz48IS0tZW50aXR5IGZhaXNzLS0+PGcgY2xhc3M9ImVudGl0eSIgZGF0YS1lbnRpdHk9ImZhaXNzIiBkYXRhLXNvdXJjZS1saW5lPSIyMCIgZGF0YS11aWQ9ImVudDAwMTEiIGlkPSJlbnRpdHlfZmFpc3MiPjxyZWN0IGZpbGw9IiNGMUYxRjEiIGhlaWdodD0iNDQuOTg0NCIgcng9IjIuNSIgcnk9IjIuNSIgc3R5bGU9InN0cm9rZTojMTgxODE4O3N0cm9rZS13aWR0aDowLjU7IiB3aWR0aD0iMTM4IiB4PSI2NDIiIHk9IjQ3OC45Njg4Ii8+PHJlY3QgZmlsbD0iI0YxRjFGMSIgaGVpZ2h0PSIxMCIgc3R5bGU9InN0cm9rZTojMTgxODE4O3N0cm9rZS13aWR0aDowLjU7IiB3aWR0aD0iMTUiIHg9Ijc2MCIgeT0iNDgzLjk2ODgiLz48cmVjdCBmaWxsPSIjRjFGMUYxIiBoZWlnaHQ9IjIiIHN0eWxlPSJzdHJva2U6IzE4MTgxODtzdHJva2Utd2lkdGg6MC41OyIgd2lkdGg9IjQiIHg9Ijc1OCIgeT0iNDg1Ljk2ODgiLz48cmVjdCBmaWxsPSIjRjFGMUYxIiBoZWlnaHQ9IjIiIHN0eWxlPSJzdHJva2U6IzE4MTgxODtzdHJva2Utd2lkdGg6MC41OyIgd2lkdGg9IjQiIHg9Ijc1OCIgeT0iNDg5Ljk2ODgiLz48dGV4dCBmaWxsPSIjMDAwMDAwIiBmb250LWZhbWlseT0ic2Fucy1zZXJpZiIgZm9udC1zaXplPSIxNCIgbGVuZ3RoQWRqdXN0PSJzcGFjaW5nIiB0ZXh0TGVuZ3RoPSI5OCIgeD0iNjU3IiB5PSI1MTIuMjAzMSI+RkFJU1MgVmVjdG9yREI8L3RleHQ+PC9nPjwhLS1lbnRpdHkgcmVkaXMtLT48ZyBjbGFzcz0iZW50aXR5IiBkYXRhLWVudGl0eT0icmVkaXMiIGRhdGEtc291cmNlLWxpbmU9IjIxIiBkYXRhLXVpZD0iZW50MDAxMiIgaWQ9ImVudGl0eV9yZWRpcyI+PHJlY3QgZmlsbD0iI0YxRjFGMSIgaGVpZ2h0PSI0NC45ODQ0IiByeD0iMi41IiByeT0iMi41IiBzdHlsZT0ic3Ryb2tlOiMxODE4MTg7c3Ryb2tlLXdpZHRoOjAuNTsiIHdpZHRoPSIxNTkiIHg9IjQzMi41IiB5PSI0NzguOTY4OCIvPjxyZWN0IGZpbGw9IiNGMUYxRjEiIGhlaWdodD0iMTAiIHN0eWxlPSJzdHJva2U6IzE4MTgxODtzdHJva2Utd2lkdGg6MC41OyIgd2lkdGg9IjE1IiB4PSI1NzEuNSIgeT0iNDgzLjk2ODgiLz48cmVjdCBmaWxsPSIjRjFGMUYxIiBoZWlnaHQ9IjIiIHN0eWxlPSJzdHJva2U6IzE4MTgxODtzdHJva2Utd2lkdGg6MC41OyIgd2lkdGg9IjQiIHg9IjU2OS41IiB5PSI0ODUuOTY4OCIvPjxyZWN0IGZpbGw9IiNGMUYxRjEiIGhlaWdodD0iMiIgc3R5bGU9InN0cm9rZTojMTgxODE4O3N0cm9rZS13aWR0aDowLjU7IiB3aWR0aD0iNCIgeD0iNTY5LjUiIHk9IjQ4OS45Njg4Ii8+PHRleHQgZmlsbD0iIzAwMDAwMCIgZm9udC1mYW1pbHk9InNhbnMtc2VyaWYiIGZvbnQtc2l6ZT0iMTQiIGxlbmd0aEFkanVzdD0ic3BhY2luZyIgdGV4dExlbmd0aD0iMTE5IiB4PSI0NDcuNSIgeT0iNTEyLjIwMzEiPlJlZGlzIENhY2hlL1F1ZXVlPC90ZXh0PjwvZz48IS0tZW50aXR5IHVzZXItLT48ZyBjbGFzcz0iZW50aXR5IiBkYXRhLWVudGl0eT0idXNlciIgZGF0YS1zb3VyY2UtbGluZT0iMzciIGRhdGEtdWlkPSJlbnQwMDIxIiBpZD0iZW50aXR5X3VzZXIiPjxlbGxpcHNlIGN4PSIxOTYiIGN5PSI2NC45Njg4IiBmaWxsPSIjRjFGMUYxIiByeD0iOCIgcnk9IjgiIHN0eWxlPSJzdHJva2U6IzE4MTgxODtzdHJva2Utd2lkdGg6MC41OyIvPjxwYXRoIGQ9Ik0xOTYsNzIuOTY4OCBMMTk2LDk5Ljk2ODggTTE4Myw4MC45Njg4IEwyMDksODAuOTY4OCBNMTk2LDk5Ljk2ODggTDE4MywxMTQuOTY4OCBNMTk2LDk5Ljk2ODggTDIwOSwxMTQuOTY4OCIgZmlsbD0ibm9uZSIgc3R5bGU9InN0cm9rZTojMTgxODE4O3N0cm9rZS13aWR0aDowLjU7Ii8+PHRleHQgZmlsbD0iIzAwMDAwMCIgZm9udC1mYW1pbHk9InNhbnMtc2VyaWYiIGZvbnQtc2l6ZT0iMTQiIGxlbmd0aEFkanVzdD0ic3BhY2luZyIgdGV4dExlbmd0aD0iMjgiIHg9IjE4MiIgeT0iMTI5LjcwMzEiPlVzZXI8L3RleHQ+PC9nPjxnIGNsYXNzPSJlbnRpdHkiIGRhdGEtZW50aXR5PSJHTU4yNCIgZGF0YS1zb3VyY2UtbGluZT0iNDMiIGRhdGEtdWlkPSJlbnQwMDI1IiBpZD0iZW50aXR5X0dNTjI0Ij48cGF0aCBkPSJNNDI3LDIwNi45Njg4IEw0MjcsMjU4LjcxMDkgTDU0NS41LDI1OC43MTA5IEw1NDUuNSwyMTYuOTY4OCBMNTM1LjUsMjA2Ljk2ODggTDQyNywyMDYuOTY4OCIgZmlsbD0iI0ZBRkFGQSIgc3R5bGU9InN0cm9rZTojMTgxODE4O3N0cm9rZS13aWR0aDowLjU7Ii8+PHBhdGggZD0iTTUzNS41LDIwNi45Njg4IEw1MzUuNSwyMTYuOTY4OCBMNTQ1LjUsMjE2Ljk2ODggTDUzNS41LDIwNi45Njg4IiBmaWxsPSIjRkFGQUZBIiBzdHlsZT0ic3Ryb2tlOiMxODE4MTg7c3Ryb2tlLXdpZHRoOjE7Ii8+PHRleHQgZmlsbD0iIzAwMDAwMCIgZm9udC1mYW1pbHk9InNhbnMtc2VyaWYiIGZvbnQtc2l6ZT0iMTMiIGxlbmd0aEFkanVzdD0ic3BhY2luZyIgdGV4dExlbmd0aD0iODQuNSIgeD0iNDMzIiB5PSIyMjQuMjU3OCI+JiM4MjI2OyAmIzI2NjgwOyYjMjQ1MTU7JiMxOTk5NDsmIzIxMTUzO0FQSTwvdGV4dD48dGV4dCBmaWxsPSIjMDAwMDAwIiBmb250LWZhbWlseT0ic2Fucy1zZXJpZiIgZm9udC1zaXplPSIxMyIgbGVuZ3RoQWRqdXN0PSJzcGFjaW5nIiB0ZXh0TGVuZ3RoPSI5Ny41IiB4PSI0MzMiIHk9IjIzOC4xNzE5Ij4mIzgyMjY7ICYjMjk5OTI7JiMyNTE0MzsvJiMzNTc0NjsmIzIxMzMzOyYjMzE2NDk7JiMyOTcwMjs8L3RleHQ+PHRleHQgZmlsbD0iIzAwMDAwMCIgZm9udC1mYW1pbHk9InNhbnMtc2VyaWYiIGZvbnQtc2l6ZT0iMTMiIGxlbmd0aEFkanVzdD0ic3BhY2luZyIgdGV4dExlbmd0aD0iOTcuNSIgeD0iNDMzIiB5PSIyNTIuMDg1OSI+JiM4MjI2OyBTaW1wbGVKV1QmIzM1NzQ4OyYjMzU3Nzc7PC90ZXh0PjwvZz48ZyBjbGFzcz0iZW50aXR5IiBkYXRhLWVudGl0eT0iR01OMjciIGRhdGEtc291cmNlLWxpbmU9IjQ5IiBkYXRhLXVpZD0iZW50MDAyOCIgaWQ9ImVudGl0eV9HTU4yNyI+PHBhdGggZD0iTTU5NSwyMDYuOTY4OCBMNTk1LDI1OC43MTA5IEw3MDcsMjU4LjcxMDkgTDcwNywyMTYuOTY4OCBMNjk3LDIwNi45Njg4IEw1OTUsMjA2Ljk2ODgiIGZpbGw9IiNGQUZBRkEiIHN0eWxlPSJzdHJva2U6IzE4MTgxODtzdHJva2Utd2lkdGg6MC41OyIvPjxwYXRoIGQ9Ik02OTcsMjA2Ljk2ODggTDY5NywyMTYuOTY4OCBMNzA3LDIxNi45Njg4IEw2OTcsMjA2Ljk2ODgiIGZpbGw9IiNGQUZBRkEiIHN0eWxlPSJzdHJva2U6IzE4MTgxODtzdHJva2Utd2lkdGg6MTsiLz48dGV4dCBmaWxsPSIjMDAwMDAwIiBmb250LWZhbWlseT0ic2Fucy1zZXJpZiIgZm9udC1zaXplPSIxMyIgbGVuZ3RoQWRqdXN0PSJzcGFjaW5nIiB0ZXh0TGVuZ3RoPSI5MSIgeD0iNjAxIiB5PSIyMjQuMjU3OCI+JiM4MjI2OyAmIzM5NjQwOyYjMjQxODI7JiMyMTQ1NztBSSYjMzU4MzE7JiMyNzcxNDs8L3RleHQ+PHRleHQgZmlsbD0iIzAwMDAwMCIgZm9udC1mYW1pbHk9InNhbnMtc2VyaWYiIGZvbnQtc2l6ZT0iMTMiIGxlbmd0aEFkanVzdD0ic3BhY2luZyIgdGV4dExlbmd0aD0iNjUiIHg9IjYwMSIgeT0iMjM4LjE3MTkiPiYjODIyNjsgJiMyNzk2OTsmIzI0MzM1OyYjMjE3MDk7JiMyNDIxMjs8L3RleHQ+PHRleHQgZmlsbD0iIzAwMDAwMCIgZm9udC1mYW1pbHk9InNhbnMtc2VyaWYiIGZvbnQtc2l6ZT0iMTMiIGxlbmd0aEFkanVzdD0ic3BhY2luZyIgdGV4dExlbmd0aD0iNjUiIHg9IjYwMSIgeT0iMjUyLjA4NTkiPiYjODIyNjsgJiMyNDMyMjsmIzI3NDkzOyYjMjI3ODg7JiMyOTcwMjs8L3RleHQ+PC9nPjxnIGNsYXNzPSJlbnRpdHkiIGRhdGEtZW50aXR5PSJHTU4zMCIgZGF0YS1zb3VyY2UtbGluZT0iNTUiIGRhdGEtdWlkPSJlbnQwMDMxIiBpZD0iZW50aXR5X0dNTjMwIj48cGF0aCBkPSJNODMwLDQ3NS40Njg4IEw4MzAsNTI3LjIxMDkgQTAsMCAwIDAgMCA4MzAsNTI3LjIxMDkgTDk0Miw1MjcuMjEwOSBBMCwwIDAgMCAwIDk0Miw1MjcuMjEwOSBMOTQyLDQ4NS40Njg4IEw5MzIsNDc1LjQ2ODggTDg1OC40MSw0NzUuNDY4OCBMNzM4LjM0LDM4My4xODg4IEw4NTAuNDEsNDc1LjQ2ODggTDgzMCw0NzUuNDY4OCBBMCwwIDAgMCAwIDgzMCw0NzUuNDY4OCIgZmlsbD0iI0ZBRkFGQSIgc3R5bGU9InN0cm9rZTojMTgxODE4O3N0cm9rZS13aWR0aDowLjU7Ii8+PHBhdGggZD0iTTkzMiw0NzUuNDY4OCBMOTMyLDQ4NS40Njg4IEw5NDIsNDg1LjQ2ODggTDkzMiw0NzUuNDY4OCIgZmlsbD0iI0ZBRkFGQSIgc3R5bGU9InN0cm9rZTojMTgxODE4O3N0cm9rZS13aWR0aDowLjU7Ii8+PHRleHQgZmlsbD0iIzAwMDAwMCIgZm9udC1mYW1pbHk9InNhbnMtc2VyaWYiIGZvbnQtc2l6ZT0iMTMiIGxlbmd0aEFkanVzdD0ic3BhY2luZyIgdGV4dExlbmd0aD0iNTguNSIgeD0iODM2IiB5PSI0OTIuNzU3OCI+JiM4MjI2OyBMTE0mIzMyNTM0OyYjMjU0OTA7PC90ZXh0Pjx0ZXh0IGZpbGw9IiMwMDAwMDAiIGZvbnQtZmFtaWx5PSJzYW5zLXNlcmlmIiBmb250LXNpemU9IjEzIiBsZW5ndGhBZGp1c3Q9InNwYWNpbmciIHRleHRMZW5ndGg9IjU4LjUiIHg9IjgzNiIgeT0iNTA2LjY3MTkiPiYjODIyNjsgUkFHJiMyNzk2OTsmIzMxMjQzOzwvdGV4dD48dGV4dCBmaWxsPSIjMDAwMDAwIiBmb250LWZhbWlseT0ic2Fucy1zZXJpZiIgZm9udC1zaXplPSIxMyIgbGVuZ3RoQWRqdXN0PSJzcGFjaW5nIiB0ZXh0TGVuZ3RoPSI5MSIgeD0iODM2IiB5PSI1MjAuNTg1OSI+JiM4MjI2OyAmIzI0MzIyOyYjMjc0OTM7JiMyMDIxOTsmIzIxMTUzOyYjMzg0MzE7JiMyMTAxNTs8L3RleHQ+PC9nPjwhLS1saW5rIGRqYW5nb19hcGkgdG8gand0LS0+PGcgY2xhc3M9ImxpbmsiIGRhdGEtZW50aXR5LTE9ImRqYW5nb19hcGkiIGRhdGEtZW50aXR5LTI9Imp3dCIgZGF0YS1zb3VyY2UtbGluZT0iMjUiIGRhdGEtdWlkPSJsbmsxMyIgaWQ9ImxpbmtfZGphbmdvX2FwaV9qd3QiPjxwYXRoIGQ9Ik05OS4zLDI1NS41Mzg4IEMxMDMuOSwyNzguNjY4OCAxMDkuOTk2NywzMDkuMjc0NiAxMTQuNTg2NywzMzIuMjk0NiIgZmlsbD0ibm9uZSIgaWQ9ImRqYW5nb19hcGktdG8tand0IiBzdHlsZT0ic3Ryb2tlOiMxODE4MTg7c3Ryb2tlLXdpZHRoOjE7Ii8+PHBvbHlnb24gZmlsbD0iIzE4MTgxOCIgcG9pbnRzPSIxMTUuNzYsMzM4LjE3ODgsMTE3LjkyMjksMzI4LjU3MDMsMTE0Ljc4MjMsMzMzLjI3NTMsMTEwLjA3NzMsMzMwLjEzNDcsMTE1Ljc2LDMzOC4xNzg4IiBzdHlsZT0ic3Ryb2tlOiMxODE4MTg7c3Ryb2tlLXdpZHRoOjE7Ii8+PHRleHQgZmlsbD0iIzAwMDAwMCIgZm9udC1mYW1pbHk9InNhbnMtc2VyaWYiIGZvbnQtc2l6ZT0iMTMiIGxlbmd0aEFkanVzdD0ic3BhY2luZyIgdGV4dExlbmd0aD0iMjYiIHg9IjEwNyIgeT0iMjg3LjI1NzgiPiYjMzU3NDg7JiMzNTc3Nzs8L3RleHQ+PC9nPjwhLS1saW5rIGZhc3RhcGlfd3MgdG8gand0LS0+PGcgY2xhc3M9ImxpbmsiIGRhdGEtZW50aXR5LTE9ImZhc3RhcGlfd3MiIGRhdGEtZW50aXR5LTI9Imp3dCIgZGF0YS1zb3VyY2UtbGluZT0iMjYiIGRhdGEtdWlkPSJsbmsxNCIgaWQ9ImxpbmtfZmFzdGFwaV93c19qd3QiPjxwYXRoIGQ9Ik0yNTUuMTMsMjU1LjU5ODggQzI0NS4wNiwyNjEuMjM4OCAyMzQuNDcsMjY3LjU1ODggMjI1LDI3My45Njg4IEMxOTUuNjEsMjkzLjg2ODggMTY4Ljg3MzcsMzE2LjA4NTcgMTQ4LjE4MzcsMzM0LjIwNTciIGZpbGw9Im5vbmUiIGlkPSJmYXN0YXBpX3dzLXRvLWp3dCIgc3R5bGU9InN0cm9rZTojMTgxODE4O3N0cm9rZS13aWR0aDoxOyIvPjxwb2x5Z29uIGZpbGw9IiMxODE4MTgiIHBvaW50cz0iMTQzLjY3LDMzOC4xNTg4LDE1My4wNzU5LDMzNS4yMzgzLDE0Ny40MzE0LDMzNC44NjQ2LDE0Ny44MDUyLDMyOS4yMjAxLDE0My42NywzMzguMTU4OCIgc3R5bGU9InN0cm9rZTojMTgxODE4O3N0cm9rZS13aWR0aDoxOyIvPjwvZz48IS0tbGluayBkamFuZ29fYXBpIHRvIGRqYW5nb19zZXJ2aWNlcy0tPjxnIGNsYXNzPSJsaW5rIiBkYXRhLWVudGl0eS0xPSJkamFuZ29fYXBpIiBkYXRhLWVudGl0eS0yPSJkamFuZ29fc2VydmljZXMiIGRhdGEtc291cmNlLWxpbmU9IjI4IiBkYXRhLXVpZD0ibG5rMTUiIGlkPSJsaW5rX2RqYW5nb19hcGlfZGphbmdvX3NlcnZpY2VzIj48cGF0aCBkPSJNMTU3Ljc5LDI1NS40OTg3IEMxOTQuOTMsMjY3LjMzODggMjQzLjEzLDI4MS4xNTg4IDI4NywyODguOTY4OCBDMzM0LjgyLDI5Ny40Nzg4IDM0OS41NSwyODIuNzU4OCAzOTYsMjk2Ljk2ODggQzQyNC45OSwzMDUuODM4OCA0NDkuNjc2NiwzMjAuMTM3NyA0NzAuNzE2NiwzMzQuNDI3NyIgZmlsbD0ibm9uZSIgaWQ9ImRqYW5nb19hcGktdG8tZGphbmdvX3NlcnZpY2VzIiBzdHlsZT0ic3Ryb2tlOiMxODE4MTg7c3Ryb2tlLXdpZHRoOjE7Ii8+PHBvbHlnb24gZmlsbD0iIzE4MTgxOCIgcG9pbnRzPSI0NzUuNjgsMzM3Ljc5ODgsNDcwLjQ4MjIsMzI5LjQzMzIsNDcxLjU0MzgsMzM0Ljk4OTUsNDY1Ljk4NzQsMzM2LjA1MTEsNDc1LjY4LDMzNy43OTg4IiBzdHlsZT0ic3Ryb2tlOiMxODE4MTg7c3Ryb2tlLXdpZHRoOjE7Ii8+PHRleHQgZmlsbD0iIzAwMDAwMCIgZm9udC1mYW1pbHk9InNhbnMtc2VyaWYiIGZvbnQtc2l6ZT0iMTMiIGxlbmd0aEFkanVzdD0ic3BhY2luZyIgdGV4dExlbmd0aD0iMjYiIHg9IjI4OCIgeT0iMjg3LjI1NzgiPiYjMzU4NDM7JiMyOTk5Mjs8L3RleHQ+PC9nPjwhLS1saW5rIGZhc3RhcGlfd3MgdG8gbGFuZ2NoYWluLS0+PGcgY2xhc3M9ImxpbmsiIGRhdGEtZW50aXR5LTE9ImZhc3RhcGlfd3MiIGRhdGEtZW50aXR5LTI9ImxhbmdjaGFpbiIgZGF0YS1zb3VyY2UtbGluZT0iMjkiIGRhdGEtdWlkPSJsbmsxNiIgaWQ9ImxpbmtfZmFzdGFwaV93c19sYW5nY2hhaW4iPjxwYXRoIGQ9Ik0zNzYuNiwyNTMuMzM4OCBDMzg1LjE2LDI1NS4yOTg3IDM5My43NSwyNTcuMjA4OCA0MDIsMjU4Ljk2ODggQzQ5MC45MSwyNzcuOTQ4OCA1MTcuNzgsMjY1LjMwODggNjAzLDI5Ni45Njg4IEM2MzAuNjIsMzA3LjIyODggNjU0LjM1MDUsMzIwLjk0MTcgNjc1LjI0MDUsMzM0LjYyMTciIGZpbGw9Im5vbmUiIGlkPSJmYXN0YXBpX3dzLXRvLWxhbmdjaGFpbiIgc3R5bGU9InN0cm9rZTojMTgxODE4O3N0cm9rZS13aWR0aDoxOyIvPjxwb2x5Z29uIGZpbGw9IiMxODE4MTgiIHBvaW50cz0iNjgwLjI2LDMzNy45MDg4LDY3NC45MjIxLDMyOS42MzE4LDY3Ni4wNzcxLDMzNS4xNjk1LDY3MC41Mzk0LDMzNi4zMjQ1LDY4MC4yNiwzMzcuOTA4OCIgc3R5bGU9InN0cm9rZTojMTgxODE4O3N0cm9rZS13aWR0aDoxOyIvPjx0ZXh0IGZpbGw9IiMwMDAwMDAiIGZvbnQtZmFtaWx5PSJzYW5zLXNlcmlmIiBmb250LXNpemU9IjEzIiBsZW5ndGhBZGp1c3Q9InNwYWNpbmciIHRleHRMZW5ndGg9IjUyIiB4PSI1ODAiIHk9IjI4Ny4yNTc4Ij4mIzI0MzIyOyYjMjc0OTM7JiMyMjc4ODsmIzI5NzAyOzwvdGV4dD48L2c+PCEtLWxpbmsgZGphbmdvX3NlcnZpY2VzIHRvIG15c3FsLS0+PGcgY2xhc3M9ImxpbmsiIGRhdGEtZW50aXR5LTE9ImRqYW5nb19zZXJ2aWNlcyIgZGF0YS1lbnRpdHktMj0ibXlzcWwiIGRhdGEtc291cmNlLWxpbmU9IjMxIiBkYXRhLXVpZD0ibG5rMTciIGlkPSJsaW5rX2RqYW5nb19zZXJ2aWNlc19teXNxbCI+PHBhdGggZD0iTTQ3NS44NywzODMuMDY4OCBDNDU2LjIzLDM5Ny45NDg4IDQzMCw0MTguNDg4OCA0MDgsNDM3Ljk2ODggQzM5My4zNSw0NTAuOTM4OCAzODEuOTIxOCw0NjIuMTI1OCAzNjkuOTAxOCw0NzQuNDM1OCIgZmlsbD0ibm9uZSIgaWQ9ImRqYW5nb19zZXJ2aWNlcy10by1teXNxbCIgc3R5bGU9InN0cm9rZTojMTgxODE4O3N0cm9rZS13aWR0aDoxOyIvPjxwb2x5Z29uIGZpbGw9IiMxODE4MTgiIHBvaW50cz0iMzY1LjcxLDQ3OC43Mjg4LDM3NC44NTk2LDQ3NS4wODM5LDM2OS4yMDMxLDQ3NS4xNTEzLDM2OS4xMzU3LDQ2OS40OTQ5LDM2NS43MSw0NzguNzI4OCIgc3R5bGU9InN0cm9rZTojMTgxODE4O3N0cm9rZS13aWR0aDoxOyIvPjx0ZXh0IGZpbGw9IiMwMDAwMDAiIGZvbnQtZmFtaWx5PSJzYW5zLXNlcmlmIiBmb250LXNpemU9IjEzIiBsZW5ndGhBZGp1c3Q9InNwYWNpbmciIHRleHRMZW5ndGg9IjE5LjUiIHg9IjQzNCIgeT0iNDI4LjI1NzgiPk9STTwvdGV4dD48L2c+PCEtLWxpbmsgZGphbmdvX3NlcnZpY2VzIHRvIHJlZGlzLS0+PGcgY2xhc3M9ImxpbmsiIGRhdGEtZW50aXR5LTE9ImRqYW5nb19zZXJ2aWNlcyIgZGF0YS1lbnRpdHktMj0icmVkaXMiIGRhdGEtc291cmNlLWxpbmU9IjMyIiBkYXRhLXVpZD0ibG5rMTgiIGlkPSJsaW5rX2RqYW5nb19zZXJ2aWNlc19yZWRpcyI+PHBhdGggZD0iTTUwNi4wOSwzODMuMTg4OCBDNTA3LjQxLDQwOS4yOTg4IDUwOS4yOTg1LDQ0Ni44NjYzIDUxMC42MDg1LDQ3Mi45MDYzIiBmaWxsPSJub25lIiBpZD0iZGphbmdvX3NlcnZpY2VzLXRvLXJlZGlzIiBzdHlsZT0ic3Ryb2tlOiMxODE4MTg7c3Ryb2tlLXdpZHRoOjE7Ii8+PHBvbHlnb24gZmlsbD0iIzE4MTgxOCIgcG9pbnRzPSI1MTAuOTEsNDc4Ljg5ODgsNTE0LjQ1MjgsNDY5LjcwOTEsNTEwLjY1ODgsNDczLjkwNTEsNTA2LjQ2MjksNDcwLjExMTEsNTEwLjkxLDQ3OC44OTg4IiBzdHlsZT0ic3Ryb2tlOiMxODE4MTg7c3Ryb2tlLXdpZHRoOjE7Ii8+PHRleHQgZmlsbD0iIzAwMDAwMCIgZm9udC1mYW1pbHk9InNhbnMtc2VyaWYiIGZvbnQtc2l6ZT0iMTMiIGxlbmd0aEFkanVzdD0ic3BhY2luZyIgdGV4dExlbmd0aD0iMjYiIHg9IjUwOSIgeT0iNDI4LjI1NzgiPiYjMzI1MzE7JiMyMzM4NDs8L3RleHQ+PC9nPjwhLS1saW5rIGxhbmdjaGFpbiB0byBmYWlzcy0tPjxnIGNsYXNzPSJsaW5rIiBkYXRhLWVudGl0eS0xPSJsYW5nY2hhaW4iIGRhdGEtZW50aXR5LTI9ImZhaXNzIiBkYXRhLXNvdXJjZS1saW5lPSIzMyIgZGF0YS11aWQ9ImxuazE5IiBpZD0ibGlua19sYW5nY2hhaW5fZmFpc3MiPjxwYXRoIGQ9Ik03MTEsMzgzLjE4ODggQzcxMSw0MDkuMjk4OCA3MTEsNDQ2Ljg1ODggNzExLDQ3Mi44OTg4IiBmaWxsPSJub25lIiBpZD0ibGFuZ2NoYWluLXRvLWZhaXNzIiBzdHlsZT0ic3Ryb2tlOiMxODE4MTg7c3Ryb2tlLXdpZHRoOjE7Ii8+PHBvbHlnb24gZmlsbD0iIzE4MTgxOCIgcG9pbnRzPSI3MTEsNDc4Ljg5ODgsNzE1LDQ2OS44OTg4LDcxMSw0NzMuODk4OCw3MDcsNDY5Ljg5ODgsNzExLDQ3OC44OTg4IiBzdHlsZT0ic3Ryb2tlOiMxODE4MTg7c3Ryb2tlLXdpZHRoOjE7Ii8+PHRleHQgZmlsbD0iIzAwMDAwMCIgZm9udC1mYW1pbHk9InNhbnMtc2VyaWYiIGZvbnQtc2l6ZT0iMTMiIGxlbmd0aEFkanVzdD0ic3BhY2luZyIgdGV4dExlbmd0aD0iNTIiIHg9IjcxMiIgeT0iNDI4LjI1NzgiPiYjMjE1MjE7JiMzNzMyNzsmIzI2ODE2OyYjMzIwMzQ7PC90ZXh0PjwvZz48IS0tbGluayBsYW5nY2hhaW4gdG8gcmVkaXMtLT48ZyBjbGFzcz0ibGluayIgZGF0YS1lbnRpdHktMT0ibGFuZ2NoYWluIiBkYXRhLWVudGl0eS0yPSJyZWRpcyIgZGF0YS1zb3VyY2UtbGluZT0iMzQiIGRhdGEtdWlkPSJsbmsyMCIgaWQ9ImxpbmtfbGFuZ2NoYWluX3JlZGlzIj48cGF0aCBkPSJNNjc5LjkxLDM4My4xODg4IEM2NDIuNTIsNDA5LjI5ODggNTg1LjA3ODksNDQ5LjQyMjkgNTQ3Ljc5ODksNDc1LjQ2MjkiIGZpbGw9Im5vbmUiIGlkPSJsYW5nY2hhaW4tdG8tcmVkaXMiIHN0eWxlPSJzdHJva2U6IzE4MTgxODtzdHJva2Utd2lkdGg6MTsiLz48cG9seWdvbiBmaWxsPSIjMTgxODE4IiBwb2ludHM9IjU0Mi44OCw0NzguODk4OCw1NTIuNTQ4OCw0NzcuMDI0Myw1NDYuOTc5MSw0NzYuMDM1Niw1NDcuOTY3Nyw0NzAuNDY1OCw1NDIuODgsNDc4Ljg5ODgiIHN0eWxlPSJzdHJva2U6IzE4MTgxODtzdHJva2Utd2lkdGg6MTsiLz48dGV4dCBmaWxsPSIjMDAwMDAwIiBmb250LWZhbWlseT0ic2Fucy1zZXJpZiIgZm9udC1zaXplPSIxMyIgbGVuZ3RoQWRqdXN0PSJzcGFjaW5nIiB0ZXh0TGVuZ3RoPSI1MiIgeD0iNjMwIiB5PSI0MjguMjU3OCI+JiMyODA0MDsmIzI0Njg3OyYjMzg0MzE7JiMyMTAxNTs8L3RleHQ+PC9nPjwhLS1saW5rIHVzZXIgdG8gZGphbmdvX2FwaS0tPjxnIGNsYXNzPSJsaW5rIiBkYXRhLWVudGl0eS0xPSJ1c2VyIiBkYXRhLWVudGl0eS0yPSJkamFuZ29fYXBpIiBkYXRhLXNvdXJjZS1saW5lPSIzOCIgZGF0YS11aWQ9ImxuazIyIiBpZD0ibGlua191c2VyX2RqYW5nb19hcGkiPjxwYXRoIGQ9Ik0xODEuNzcsMTA4LjczODcgQzE3MS43NywxMTguNzQ4NyAxNTguMzksMTMyLjg2ODcgMTQ4LDE0Ni40Njg4IEMxMzIuMywxNjcuMDA4OCAxMjAuMDAyOSwxODcuMTUxNCAxMDkuOTIyOSwyMDQuOTAxNCIgZmlsbD0ibm9uZSIgaWQ9InVzZXItdG8tZGphbmdvX2FwaSIgc3R5bGU9InN0cm9rZTojMTgxODE4O3N0cm9rZS13aWR0aDoxOyIvPjxwb2x5Z29uIGZpbGw9IiMxODE4MTgiIHBvaW50cz0iMTA2Ljk2LDIxMC4xMTg3LDExNC44ODI2LDIwNC4yNjc5LDEwOS40MjkxLDIwNS43NzA5LDEwNy45MjYxLDIwMC4zMTc0LDEwNi45NiwyMTAuMTE4NyIgc3R5bGU9InN0cm9rZTojMTgxODE4O3N0cm9rZS13aWR0aDoxOyIvPjx0ZXh0IGZpbGw9IiMwMDAwMDAiIGZvbnQtZmFtaWx5PSJzYW5zLXNlcmlmIiBmb250LXNpemU9IjEzIiBsZW5ndGhBZGp1c3Q9InNwYWNpbmciIHRleHRMZW5ndGg9IjY1IiB4PSIxNDkiIHk9IjE1OS43NTc4Ij5SRVNUICg4MCUpPC90ZXh0PjwvZz48IS0tbGluayB1c2VyIHRvIGZhc3RhcGlfd3MtLT48ZyBjbGFzcz0ibGluayIgZGF0YS1lbnRpdHktMT0idXNlciIgZGF0YS1lbnRpdHktMj0iZmFzdGFwaV93cyIgZGF0YS1zb3VyY2UtbGluZT0iMzkiIGRhdGEtdWlkPSJsbmsyMyIgaWQ9ImxpbmtfdXNlcl9mYXN0YXBpX3dzIj48cGF0aCBkPSJNMjEwLjA0LDExNC4wMTg4IEMyMjguNjksMTM5LjMwODcgMjU3Ljk2OTcsMTc5LjAyOTIgMjc3LjUxOTcsMjA1LjU0OTIiIGZpbGw9Im5vbmUiIGlkPSJ1c2VyLXRvLWZhc3RhcGlfd3MiIHN0eWxlPSJzdHJva2U6IzE4MTgxODtzdHJva2Utd2lkdGg6MTsiLz48cG9seWdvbiBmaWxsPSIjMTgxODE4IiBwb2ludHM9IjI4MS4wOCwyMTAuMzc4OCwyNzguOTU5MywyMDAuNzYwOSwyNzguMTEzMSwyMDYuMzU0MSwyNzIuNTE5OSwyMDUuNTA3OSwyODEuMDgsMjEwLjM3ODgiIHN0eWxlPSJzdHJva2U6IzE4MTgxODtzdHJva2Utd2lkdGg6MTsiLz48dGV4dCBmaWxsPSIjMDAwMDAwIiBmb250LWZhbWlseT0ic2Fucy1zZXJpZiIgZm9udC1zaXplPSIxMyIgbGVuZ3RoQWRqdXN0PSJzcGFjaW5nIiB0ZXh0TGVuZ3RoPSI1MiIgeD0iMjQ0IiB5PSIxNTkuNzU3OCI+V1MgKDIwJSk8L3RleHQ+PC9nPjwhLS1saW5rIGRqYW5nb19hcGkgdG8gR01OMjQtLT48ZyBjbGFzcz0ibGluayIgZGF0YS1lbnRpdHktMT0iZGphbmdvX2FwaSIgZGF0YS1lbnRpdHktMj0iR01OMjQiIGRhdGEtc291cmNlLWxpbmU9IjQzIiBkYXRhLXVpZD0ibG5rMjYiIGlkPSJsaW5rX2RqYW5nb19hcGlfR01OMjQiPjxwYXRoIGQ9Ik0xMTkuMDgsMjEwLjM3ODggQzE0Mi4zNSwxOTAuMjI4OCAxNzkuNjMsMTYyLjE0ODggMjE4LDE1MC40Njg4IEMyODMuMDUsMTMwLjY2ODggMzA2LjI3LDEyOS42NDg4IDM3MSwxNTAuNDY4OCBDNDA1LjM5LDE2MS41Mjg4IDQzOC4yLDE4Ny4wODg4IDQ1OS45MSwyMDYuODQ4OCIgZmlsbD0ibm9uZSIgaWQ9ImRqYW5nb19hcGktR01OMjQiIHN0eWxlPSJzdHJva2U6IzE4MTgxODtzdHJva2Utd2lkdGg6MTtzdHJva2UtZGFzaGFycmF5OjcuMCw3LjA7Ii8+PC9nPjwhLS1saW5rIEdNTjI3IHRvIGZhc3RhcGlfd3MtLT48ZyBjbGFzcz0ibGluayIgZGF0YS1lbnRpdHktMT0iR01OMjciIGRhdGEtZW50aXR5LTI9ImZhc3RhcGlfd3MiIGRhdGEtc291cmNlLWxpbmU9IjQ5IiBkYXRhLXVpZD0ibG5rMjkiIGlkPSJsaW5rX0dNTjI3X2Zhc3RhcGlfd3MiPjxwYXRoIGQ9Ik02MjcuMzgsMjA2Ljc4ODggQzYwNy42MiwxODYuOTg4NyA1NzcuNDksMTYxLjQwODggNTQ1LDE1MC40Njg4IEM0OTUuMywxMzMuNzI4OCA0NzcuMzYsMTM1LjgzODggNDI3LDE1MC40Njg4IEMzODYuOTYsMTYyLjA5ODggMzQ3LjQ0LDE5MC4xODg4IDMyMi42OCwyMTAuMzU4OCIgZmlsbD0ibm9uZSIgaWQ9IkdNTjI3LWZhc3RhcGlfd3MiIHN0eWxlPSJzdHJva2U6IzE4MTgxODtzdHJva2Utd2lkdGg6MTtzdHJva2UtZGFzaGFycmF5OjcuMCw3LjA7Ii8+PC9nPjwhLS1TUkM9W1JMRFRKbkQxNTdzVk50NnBZSDVZMjRIWk9kbW1BUTJjZmFKZmdkckdHdVJqajV0UXhqUVRoT0dHNHh3NEhpRU44M08tZTIwYUpHbkswYkFxSlZXbFhmYmpfdUtwcXNOUjlSeGlQaXl6enZvdlAteEloNmFMaThGcGFCU2pzeVd1VGZ3MHduRzllYTc1aWZFNGFXQlM3a1cyN01uYjlOWGgwMjdOVDdDNDhiN21aa2pVX0lpaEJSQVpFUnZ6b2hTTk5iZXptbkZPSWpqbTBudld3YVFVSDg3TlFjb2puMml4aEI3UVlyMDE2cmNTOWczOU1XbkY0S1UzUUdKbW1jLUN0elVWV2dZejBhbVhnUjBuTjMwYnVyOG5HU1Byc3lXSUx0NUkwWE00aUthZ0U0ZGl1ZDVDWFZvWlg5MGZrWGJEU1lPY05WSXNvdGttSTRzQkswZW5Fc3FRdUdGZW43Ylo2ZUhzN3Uzd2NBSjUxM0FLbVFPNTJUbDlmZEJzZjZCYzE2bjhFNkdxQkN1SmNkOWFJWC1EZ09SeTU3c1RLc0Q1ZWhlRXB1ZFhzaXhtZTMtSklQTFBkMkhEMmFGT285My1xSThmNGJMczkyZnpoYUZwVjlrbHhCRHRuLThvSzJTa3c0bHN0UERabXJ0R2NlVHhwVWdpWFpmOTFNS0t3WDdPYk81TC15enZSeENJUlhWQ082MzlPT3F2VmgzRnpYUXlqS0tqNDBySzk1X0RBeGNGdW9GUVZuYmdCQ2RtNlhsaWVBb1haZUtpZ3IyS3NUZndRc2NMVnZfbkpkUWxhVzhEVmJoWWl6TE1NVXBkUHFxY25WUXNNbENMQ0dhbHJIMk1PU0NwT0lfcEI4ZXRhZV9rMjZHWUdhVmpPeS1UV01rek1lVkk1T01XOTdKZWtRYThtZVBfTS1CN2JNUnJYOVROYTZNeDExbXBkTjcxSmVNdC1VX0NoazJVaVZGdll4Q2x4RnNFTTZtVlJILW5sdGN1b3ZPX1VPU3g4YkFfZWZsdkdldzhwTXhWQTI5TTRnRzVRWGxiSTRodlhGdThzVFZ3S01RX0p6ZGdVWUpRaERSdXFUb2Jfd3pQeUxFb1pNTnNQekU3a1lfb2dsd3V4UmZzTlpmcWJodFQ1T2tEVThxamxsQkhfdXY3N1dmamhfOFhmN2ZIaHVqMXNyU0lRRnkzXS0tPjwvZz48L3N2Zz4=;" vertex="1" parent="1">
            <mxGeometry x="-150" y="150" width="949" height="546" as="geometry" />
          </mxCell>
        </UserObject>
        <UserObject label="" plantUmlData="{&#xa;  &quot;data&quot;: &quot;@startuml AI-System-Architecture\nskinparam monochrome true\nskinparam nodesep 50\nskinparam ranksep 30\n\ntitle AI 系统分层架构\\n(Django 统一路由所有AI服务)\n\npackage \&quot;API Layer\&quot; {\n  [Django REST API] as django_api\n  [FastAPI WebSocket] as fastapi_ws\n  database \&quot;JWT Auth\&quot; as jwt\n}\n\npackage \&quot;Business Logic\&quot; {\n  [Django Services] as django_services\n  \n  package \&quot;AI Integration Module\&quot; &lt;&lt;rectangle&gt;&gt; {\n    [SiliconFlow] as silicon\n    [DeepSeek] as deepseek\n    [ErnieBot] as ernie\n    [Coze Workflow] as coze\n  }\n  \n  [LangChain Workflow] as langchain\n}\n\npackage \&quot;Data Layer\&quot; {\n  [MySQL] as mysql\n  [FAISS VectorDB] as faiss\n}\n\n&#39; 认证与核心调用\ndjango_api -d-&gt; jwt : \&quot;认证\&quot;\ndjango_api --&gt; django_services : \&quot;业务逻辑\&quot;\n\n&#39; Django调用AI模块\ndjango_services --&gt; silicon : \&quot;图像生成\&quot;\ndjango_services --&gt; deepseek : \&quot;通用LLM\&quot;\ndjango_services --&gt; ernie : \&quot;中文优化\&quot;\ndjango_services --&gt; coze : \&quot;复杂工作流\&quot;\n\n&#39; FastAPI专属通道\ndjango_api --&gt; fastapi_ws : \&quot;DeepSeek流式请求\&quot;\nfastapi_ws --&gt; deepseek : \&quot;高性能调用\&quot;\n\n&#39; 数据层连接\ndjango_services --&gt; mysql : \&quot;ORM\&quot;\nlangchain --&gt; faiss : \&quot;向量检索\&quot;\n\n&#39; 模块排列\nsilicon -[hidden]-&gt; deepseek\ndeepseek -[hidden]-&gt; ernie\nernie -[hidden]-&gt; coze\n\n&#39; 外部用户\nactor User as user\nuser --&gt; django_api : \&quot;所有请求\\n(HTTP/REST)\&quot;\n\n&#39; 标注说明\nnote right of django_api\n  ◼ 所有请求统一入口\n  ◼ 智能路由AI服务\n  ◼ 会话管理/限流\n  ◼ JWT认证鉴权\nend note\n\nnote left of fastapi_ws\n  ◼ 独占DeepSeek连接\n  ◼ WebSocket长连接\n  ◼ 高并发流式响应\n  ◼ 绕过Django业务逻辑\nend note\n\nnote bottom of \&quot;AI Integration Module\&quot;\n  ◼ SiliconFlow: SDXL/Stable Diffusion\n  ◼ DeepSeek: 核心文本生成\n  ◼ ErnieBot: 中文领域增强\n  ◼ Coze: 多工具编排工作流\nend note\n@enduml&quot;,&#xa;  &quot;format&quot;: &quot;svg&quot;&#xa;}" id="rgclN-8iBo6ZPXDW5_Zl-52">
          <mxCell style="shape=image;noLabel=1;verticalAlign=top;aspect=fixed;imageAspect=0;image=data:image/svg+xml,PHN2ZyB4bWxucz0iaHR0cDovL3d3dy53My5vcmcvMjAwMC9zdmciIHhtbG5zOnhsaW5rPSJodHRwOi8vd3d3LnczLm9yZy8xOTk5L3hsaW5rIiBjb250ZW50U3R5bGVUeXBlPSJ0ZXh0L2NzcyIgZGF0YS1kaWFncmFtLXR5cGU9IkRFU0NSSVBUSU9OIiBoZWlnaHQ9IjkxOHB4IiBwcmVzZXJ2ZUFzcGVjdFJhdGlvPSJub25lIiBzdHlsZT0id2lkdGg6MTIyOHB4O2hlaWdodDo5MThweDtiYWNrZ3JvdW5kOiNGRkZGRkY7IiB2ZXJzaW9uPSIxLjEiIHZpZXdCb3g9IjAgMCAxMjI4IDkxOCIgd2lkdGg9IjEyMjhweCIgem9vbUFuZFBhbj0ibWFnbmlmeSI+PHRpdGxlPkFJICYjMzE5OTU7JiMzMjQ3OTsmIzIwOTk4OyYjMjM2MTg7JiMyNjU1MDsmIzI2NTAwOzwvdGl0bGU+PGRlZnMvPjxnPjx0ZXh0IGZpbGw9IiMwMDAwMDAiIGZvbnQtZmFtaWx5PSJzYW5zLXNlcmlmIiBmb250LXNpemU9IjE0IiBmb250LXdlaWdodD0iYm9sZCIgbGVuZ3RoQWRqdXN0PSJzcGFjaW5nIiB0ZXh0TGVuZ3RoPSIxMDUiIHg9IjU1NC41ODUiIHk9IjIzLjIzNDQiPkFJICYjMzE5OTU7JiMzMjQ3OTsmIzIwOTk4OyYjMjM2MTg7JiMyNjU1MDsmIzI2NTAwOzwvdGV4dD48dGV4dCBmaWxsPSIjMDAwMDAwIiBmb250LWZhbWlseT0ic2Fucy1zZXJpZiIgZm9udC1zaXplPSIxNCIgZm9udC13ZWlnaHQ9ImJvbGQiIGxlbmd0aEFkanVzdD0ic3BhY2luZyIgdGV4dExlbmd0aD0iMTg5IiB4PSI1MTIuNTg1IiB5PSIzOC4yMTg4Ij4oRGphbmdvICYjMzI0Nzk7JiMxOTk2ODsmIzM2MzM1OyYjMzAwMDE7JiMyNTE1MjsmIzI2Mzc3O0FJJiMyNjM4MTsmIzIxMTUzOyk8L3RleHQ+PCEtLWNsdXN0ZXIgQVBJIExheWVyLS0+PGcgY2xhc3M9ImNsdXN0ZXIiIGRhdGEtZW50aXR5PSJBUEkgTGF5ZXIiIGRhdGEtc291cmNlLWxpbmU9IjciIGRhdGEtdWlkPSJlbnQwMDAyIiBpZD0iY2x1c3Rlcl9BUEkgTGF5ZXIiPjxwYXRoIGQ9Ik05OS4xNywxOTEuNDY4OCBMMTYzLjE3LDE5MS40Njg4IEEzLjc1LDMuNzUgMCAwIDEgMTY1LjY3LDE5My45Njg4IEwxNzIuNjcsMjEyLjQ1MzEgTDQxMS4xNywyMTIuNDUzMSBBMi41LDIuNSAwIDAgMSA0MTMuNjcsMjE0Ljk1MzEgTDQxMy42Nyw0MTcuNDY4OCBBMi41LDIuNSAwIDAgMSA0MTEuMTcsNDE5Ljk2ODggTDk5LjE3LDQxOS45Njg4IEEyLjUsMi41IDAgMCAxIDk2LjY3LDQxNy40Njg4IEw5Ni42NywxOTMuOTY4OCBBMi41LDIuNSAwIDAgMSA5OS4xNywxOTEuNDY4OCIgZmlsbD0ibm9uZSIgc3R5bGU9InN0cm9rZTojMDAwMDAwO3N0cm9rZS13aWR0aDoxLjU7Ii8+PGxpbmUgc3R5bGU9InN0cm9rZTojMDAwMDAwO3N0cm9rZS13aWR0aDoxLjU7IiB4MT0iOTYuNjciIHgyPSIxNzIuNjciIHkxPSIyMTIuNDUzMSIgeTI9IjIxMi40NTMxIi8+PHRleHQgZmlsbD0iIzAwMDAwMCIgZm9udC1mYW1pbHk9InNhbnMtc2VyaWYiIGZvbnQtc2l6ZT0iMTQiIGZvbnQtd2VpZ2h0PSJib2xkIiBsZW5ndGhBZGp1c3Q9InNwYWNpbmciIHRleHRMZW5ndGg9IjYzIiB4PSIxMDAuNjciIHk9IjIwNi43MDMxIj5BUEkgTGF5ZXI8L3RleHQ+PC9nPjwhLS1jbHVzdGVyIEJ1c2luZXNzIExvZ2ljLS0+PGcgY2xhc3M9ImNsdXN0ZXIiIGRhdGEtZW50aXR5PSJCdXNpbmVzcyBMb2dpYyIgZGF0YS1zb3VyY2UtbGluZT0iMTMiIGRhdGEtdWlkPSJlbnQwMDA2IiBpZD0iY2x1c3Rlcl9CdXNpbmVzcyBMb2dpYyI+PHBhdGggZD0iTTQ0MC4xNywzMjUuOTY4OCBMNTM5LjE3LDMyNS45Njg4IEEzLjc1LDMuNzUgMCAwIDEgNTQxLjY3LDMyOC40Njg4IEw1NDguNjcsMzQ2Ljk1MzEgTDkyOS4xNywzNDYuOTUzMSBBMi41LDIuNSAwIDAgMSA5MzEuNjcsMzQ5LjQ1MzEgTDkzMS42Nyw5MDkuNDY4OCBBMi41LDIuNSAwIDAgMSA5MjkuMTcsOTExLjk2ODggTDQ0MC4xNyw5MTEuOTY4OCBBMi41LDIuNSAwIDAgMSA0MzcuNjcsOTA5LjQ2ODggTDQzNy42NywzMjguNDY4OCBBMi41LDIuNSAwIDAgMSA0NDAuMTcsMzI1Ljk2ODgiIGZpbGw9Im5vbmUiIHN0eWxlPSJzdHJva2U6IzAwMDAwMDtzdHJva2Utd2lkdGg6MS41OyIvPjxsaW5lIHN0eWxlPSJzdHJva2U6IzAwMDAwMDtzdHJva2Utd2lkdGg6MS41OyIgeDE9IjQzNy42NyIgeDI9IjU0OC42NyIgeTE9IjM0Ni45NTMxIiB5Mj0iMzQ2Ljk1MzEiLz48dGV4dCBmaWxsPSIjMDAwMDAwIiBmb250LWZhbWlseT0ic2Fucy1zZXJpZiIgZm9udC1zaXplPSIxNCIgZm9udC13ZWlnaHQ9ImJvbGQiIGxlbmd0aEFkanVzdD0ic3BhY2luZyIgdGV4dExlbmd0aD0iOTgiIHg9IjQ0MS42NyIgeT0iMzQxLjIwMzEiPkJ1c2luZXNzIExvZ2ljPC90ZXh0PjwvZz48IS0tY2x1c3RlciBBSSBJbnRlZ3JhdGlvbiBNb2R1bGUtLT48ZyBjbGFzcz0iY2x1c3RlciIgZGF0YS1lbnRpdHk9IkFJIEludGVncmF0aW9uIE1vZHVsZSIgZGF0YS1zb3VyY2UtbGluZT0iMTYiIGRhdGEtdWlkPSJlbnQwMDA4IiBpZD0iY2x1c3Rlcl9BSSBJbnRlZ3JhdGlvbiBNb2R1bGUiPjxwYXRoIGQ9Ik01NzkuMTcsNDc0Ljk2ODggTDcyNy4xNyw0NzQuOTY4OCBBMy43NSwzLjc1IDAgMCAxIDcyOS42Nyw0NzcuNDY4OCBMNzM2LjY3LDQ5NS45NTMxIEw3NzQuMTcsNDk1Ljk1MzEgQTIuNSwyLjUgMCAwIDEgNzc2LjY3LDQ5OC40NTMxIEw3NzYuNjcsODc3LjQ2ODggQTIuNSwyLjUgMCAwIDEgNzc0LjE3LDg3OS45Njg4IEw1NzkuMTcsODc5Ljk2ODggQTIuNSwyLjUgMCAwIDEgNTc2LjY3LDg3Ny40Njg4IEw1NzYuNjcsNDc3LjQ2ODggQTIuNSwyLjUgMCAwIDEgNTc5LjE3LDQ3NC45Njg4IiBmaWxsPSJub25lIiBzdHlsZT0ic3Ryb2tlOiMwMDAwMDA7c3Ryb2tlLXdpZHRoOjEuNTsiLz48bGluZSBzdHlsZT0ic3Ryb2tlOiMwMDAwMDA7c3Ryb2tlLXdpZHRoOjEuNTsiIHgxPSI1NzYuNjciIHgyPSI3MzYuNjciIHkxPSI0OTUuOTUzMSIgeTI9IjQ5NS45NTMxIi8+PHRleHQgZmlsbD0iIzAwMDAwMCIgZm9udC1mYW1pbHk9InNhbnMtc2VyaWYiIGZvbnQtc2l6ZT0iMTQiIGZvbnQtd2VpZ2h0PSJib2xkIiBsZW5ndGhBZGp1c3Q9InNwYWNpbmciIHRleHRMZW5ndGg9IjE0NyIgeD0iNTgwLjY3IiB5PSI0OTAuMjAzMSI+QUkgSW50ZWdyYXRpb24gTW9kdWxlPC90ZXh0Pjx0ZXh0IGZpbGw9IiMwMDAwMDAiIGZvbnQtZmFtaWx5PSJzYW5zLXNlcmlmIiBmb250LXNpemU9IjE0IiBmb250LXN0eWxlPSJpdGFsaWMiIGxlbmd0aEFkanVzdD0ic3BhY2luZyIgdGV4dExlbmd0aD0iNzciIHg9IjY0Mi4xNyIgeT0iNTExLjE4NzUiPiYjMTcxO3JlY3RhbmdsZSYjMTg3OzwvdGV4dD48L2c+PCEtLWNsdXN0ZXIgRGF0YSBMYXllci0tPjxnIGNsYXNzPSJjbHVzdGVyIiBkYXRhLWVudGl0eT0iRGF0YSBMYXllciIgZGF0YS1zb3VyY2UtbGluZT0iMjYiIGRhdGEtdWlkPSJlbnQwMDE0IiBpZD0iY2x1c3Rlcl9EYXRhIExheWVyIj48cGF0aCBkPSJNMTIxLjE3LDQ5Ny45Njg4IEwxOTIuMTcsNDk3Ljk2ODggQTMuNzUsMy43NSAwIDAgMSAxOTQuNjcsNTAwLjQ2ODggTDIwMS42Nyw1MTguOTUzMSBMNDExLjE3LDUxOC45NTMxIEEyLjUsMi41IDAgMCAxIDQxMy42Nyw1MjEuNDUzMSBMNDEzLjY3LDU4OS40Njg4IEEyLjUsMi41IDAgMCAxIDQxMS4xNyw1OTEuOTY4OCBMMTIxLjE3LDU5MS45Njg4IEEyLjUsMi41IDAgMCAxIDExOC42Nyw1ODkuNDY4OCBMMTE4LjY3LDUwMC40Njg4IEEyLjUsMi41IDAgMCAxIDEyMS4xNyw0OTcuOTY4OCIgZmlsbD0ibm9uZSIgc3R5bGU9InN0cm9rZTojMDAwMDAwO3N0cm9rZS13aWR0aDoxLjU7Ii8+PGxpbmUgc3R5bGU9InN0cm9rZTojMDAwMDAwO3N0cm9rZS13aWR0aDoxLjU7IiB4MT0iMTE4LjY3IiB4Mj0iMjAxLjY3IiB5MT0iNTE4Ljk1MzEiIHkyPSI1MTguOTUzMSIvPjx0ZXh0IGZpbGw9IiMwMDAwMDAiIGZvbnQtZmFtaWx5PSJzYW5zLXNlcmlmIiBmb250LXNpemU9IjE0IiBmb250LXdlaWdodD0iYm9sZCIgbGVuZ3RoQWRqdXN0PSJzcGFjaW5nIiB0ZXh0TGVuZ3RoPSI3MCIgeD0iMTIyLjY3IiB5PSI1MTMuMjAzMSI+RGF0YSBMYXllcjwvdGV4dD48L2c+PCEtLWVudGl0eSBkamFuZ29fYXBpLS0+PGcgY2xhc3M9ImVudGl0eSIgZGF0YS1lbnRpdHk9ImRqYW5nb19hcGkiIGRhdGEtc291cmNlLWxpbmU9IjgiIGRhdGEtdWlkPSJlbnQwMDAzIiBpZD0iZW50aXR5X2RqYW5nb19hcGkiPjxyZWN0IGZpbGw9IiNGMUYxRjEiIGhlaWdodD0iNDQuOTg0NCIgcng9IjIuNSIgcnk9IjIuNSIgc3R5bGU9InN0cm9rZTojMTgxODE4O3N0cm9rZS13aWR0aDowLjU7IiB3aWR0aD0iMTQ1IiB4PSIyMjYuMTciIHk9IjIyNC40Njg4Ii8+PHJlY3QgZmlsbD0iI0YxRjFGMSIgaGVpZ2h0PSIxMCIgc3R5bGU9InN0cm9rZTojMTgxODE4O3N0cm9rZS13aWR0aDowLjU7IiB3aWR0aD0iMTUiIHg9IjM1MS4xNyIgeT0iMjI5LjQ2ODgiLz48cmVjdCBmaWxsPSIjRjFGMUYxIiBoZWlnaHQ9IjIiIHN0eWxlPSJzdHJva2U6IzE4MTgxODtzdHJva2Utd2lkdGg6MC41OyIgd2lkdGg9IjQiIHg9IjM0OS4xNyIgeT0iMjMxLjQ2ODgiLz48cmVjdCBmaWxsPSIjRjFGMUYxIiBoZWlnaHQ9IjIiIHN0eWxlPSJzdHJva2U6IzE4MTgxODtzdHJva2Utd2lkdGg6MC41OyIgd2lkdGg9IjQiIHg9IjM0OS4xNyIgeT0iMjM1LjQ2ODgiLz48dGV4dCBmaWxsPSIjMDAwMDAwIiBmb250LWZhbWlseT0ic2Fucy1zZXJpZiIgZm9udC1zaXplPSIxNCIgbGVuZ3RoQWRqdXN0PSJzcGFjaW5nIiB0ZXh0TGVuZ3RoPSIxMDUiIHg9IjI0MS4xNyIgeT0iMjU3LjcwMzEiPkRqYW5nbyBSRVNUIEFQSTwvdGV4dD48L2c+PCEtLWVudGl0eSBmYXN0YXBpX3dzLS0+PGcgY2xhc3M9ImVudGl0eSIgZGF0YS1lbnRpdHk9ImZhc3RhcGlfd3MiIGRhdGEtc291cmNlLWxpbmU9IjkiIGRhdGEtdWlkPSJlbnQwMDA0IiBpZD0iZW50aXR5X2Zhc3RhcGlfd3MiPjxyZWN0IGZpbGw9IiNGMUYxRjEiIGhlaWdodD0iNDQuOTg0NCIgcng9IjIuNSIgcnk9IjIuNSIgc3R5bGU9InN0cm9rZTojMTgxODE4O3N0cm9rZS13aWR0aDowLjU7IiB3aWR0aD0iMTU5IiB4PSIyMzkuMTciIHk9IjM1OC45Njg4Ii8+PHJlY3QgZmlsbD0iI0YxRjFGMSIgaGVpZ2h0PSIxMCIgc3R5bGU9InN0cm9rZTojMTgxODE4O3N0cm9rZS13aWR0aDowLjU7IiB3aWR0aD0iMTUiIHg9IjM3OC4xNyIgeT0iMzYzLjk2ODgiLz48cmVjdCBmaWxsPSIjRjFGMUYxIiBoZWlnaHQ9IjIiIHN0eWxlPSJzdHJva2U6IzE4MTgxODtzdHJva2Utd2lkdGg6MC41OyIgd2lkdGg9IjQiIHg9IjM3Ni4xNyIgeT0iMzY1Ljk2ODgiLz48cmVjdCBmaWxsPSIjRjFGMUYxIiBoZWlnaHQ9IjIiIHN0eWxlPSJzdHJva2U6IzE4MTgxODtzdHJva2Utd2lkdGg6MC41OyIgd2lkdGg9IjQiIHg9IjM3Ni4xNyIgeT0iMzY5Ljk2ODgiLz48dGV4dCBmaWxsPSIjMDAwMDAwIiBmb250LWZhbWlseT0ic2Fucy1zZXJpZiIgZm9udC1zaXplPSIxNCIgbGVuZ3RoQWRqdXN0PSJzcGFjaW5nIiB0ZXh0TGVuZ3RoPSIxMTkiIHg9IjI1NC4xNyIgeT0iMzkyLjIwMzEiPkZhc3RBUEkgV2ViU29ja2V0PC90ZXh0PjwvZz48IS0tZW50aXR5IGp3dC0tPjxnIGNsYXNzPSJlbnRpdHkiIGRhdGEtZW50aXR5PSJqd3QiIGRhdGEtc291cmNlLWxpbmU9IjEwIiBkYXRhLXVpZD0iZW50MDAwNSIgaWQ9ImVudGl0eV9qd3QiPjxwYXRoIGQ9Ik0xMTIuNjcsMzY5LjQ2ODggQzExMi42NywzNTkuNDY4OCAxNTAuNjcsMzU5LjQ2ODggMTUwLjY3LDM1OS40Njg4IEMxNTAuNjcsMzU5LjQ2ODggMTg4LjY3LDM1OS40Njg4IDE4OC42NywzNjkuNDY4OCBMMTg4LjY3LDM5My40NTMxIEMxODguNjcsNDAzLjQ1MzEgMTUwLjY3LDQwMy40NTMxIDE1MC42Nyw0MDMuNDUzMSBDMTUwLjY3LDQwMy40NTMxIDExMi42Nyw0MDMuNDUzMSAxMTIuNjcsMzkzLjQ1MzEgTDExMi42NywzNjkuNDY4OCIgZmlsbD0iI0YxRjFGMSIgc3R5bGU9InN0cm9rZTojMTgxODE4O3N0cm9rZS13aWR0aDowLjU7Ii8+PHBhdGggZD0iTTExMi42NywzNjkuNDY4OCBDMTEyLjY3LDM3OS40Njg4IDE1MC42NywzNzkuNDY4OCAxNTAuNjcsMzc5LjQ2ODggQzE1MC42NywzNzkuNDY4OCAxODguNjcsMzc5LjQ2ODggMTg4LjY3LDM2OS40Njg4IiBmaWxsPSJub25lIiBzdHlsZT0ic3Ryb2tlOiMxODE4MTg7c3Ryb2tlLXdpZHRoOjAuNTsiLz48dGV4dCBmaWxsPSIjMDAwMDAwIiBmb250LWZhbWlseT0ic2Fucy1zZXJpZiIgZm9udC1zaXplPSIxNCIgbGVuZ3RoQWRqdXN0PSJzcGFjaW5nIiB0ZXh0TGVuZ3RoPSI1NiIgeD0iMTIyLjY3IiB5PSIzOTYuNzAzMSI+SldUIEF1dGg8L3RleHQ+PC9nPjwhLS1lbnRpdHkgZGphbmdvX3NlcnZpY2VzLS0+PGcgY2xhc3M9ImVudGl0eSIgZGF0YS1lbnRpdHk9ImRqYW5nb19zZXJ2aWNlcyIgZGF0YS1zb3VyY2UtbGluZT0iMTQiIGRhdGEtdWlkPSJlbnQwMDA3IiBpZD0iZW50aXR5X2RqYW5nb19zZXJ2aWNlcyI+PHJlY3QgZmlsbD0iI0YxRjFGMSIgaGVpZ2h0PSI0NC45ODQ0IiByeD0iMi41IiByeT0iMi41IiBzdHlsZT0ic3Ryb2tlOiMxODE4MTg7c3Ryb2tlLXdpZHRoOjAuNTsiIHdpZHRoPSIxNDUiIHg9IjY3MC4xNyIgeT0iMzU4Ljk2ODgiLz48cmVjdCBmaWxsPSIjRjFGMUYxIiBoZWlnaHQ9IjEwIiBzdHlsZT0ic3Ryb2tlOiMxODE4MTg7c3Ryb2tlLXdpZHRoOjAuNTsiIHdpZHRoPSIxNSIgeD0iNzk1LjE3IiB5PSIzNjMuOTY4OCIvPjxyZWN0IGZpbGw9IiNGMUYxRjEiIGhlaWdodD0iMiIgc3R5bGU9InN0cm9rZTojMTgxODE4O3N0cm9rZS13aWR0aDowLjU7IiB3aWR0aD0iNCIgeD0iNzkzLjE3IiB5PSIzNjUuOTY4OCIvPjxyZWN0IGZpbGw9IiNGMUYxRjEiIGhlaWdodD0iMiIgc3R5bGU9InN0cm9rZTojMTgxODE4O3N0cm9rZS13aWR0aDowLjU7IiB3aWR0aD0iNCIgeD0iNzkzLjE3IiB5PSIzNjkuOTY4OCIvPjx0ZXh0IGZpbGw9IiMwMDAwMDAiIGZvbnQtZmFtaWx5PSJzYW5zLXNlcmlmIiBmb250LXNpemU9IjE0IiBsZW5ndGhBZGp1c3Q9InNwYWNpbmciIHRleHRMZW5ndGg9IjEwNSIgeD0iNjg1LjE3IiB5PSIzOTIuMjAzMSI+RGphbmdvIFNlcnZpY2VzPC90ZXh0PjwvZz48IS0tZW50aXR5IGxhbmdjaGFpbi0tPjxnIGNsYXNzPSJlbnRpdHkiIGRhdGEtZW50aXR5PSJsYW5nY2hhaW4iIGRhdGEtc291cmNlLWxpbmU9IjIzIiBkYXRhLXVpZD0iZW50MDAxMyIgaWQ9ImVudGl0eV9sYW5nY2hhaW4iPjxyZWN0IGZpbGw9IiNGMUYxRjEiIGhlaWdodD0iNDQuOTg0NCIgcng9IjIuNSIgcnk9IjIuNSIgc3R5bGU9InN0cm9rZTojMTgxODE4O3N0cm9rZS13aWR0aDowLjU7IiB3aWR0aD0iMTY2IiB4PSI0NTMuNjciIHk9IjM1OC45Njg4Ii8+PHJlY3QgZmlsbD0iI0YxRjFGMSIgaGVpZ2h0PSIxMCIgc3R5bGU9InN0cm9rZTojMTgxODE4O3N0cm9rZS13aWR0aDowLjU7IiB3aWR0aD0iMTUiIHg9IjU5OS42NyIgeT0iMzYzLjk2ODgiLz48cmVjdCBmaWxsPSIjRjFGMUYxIiBoZWlnaHQ9IjIiIHN0eWxlPSJzdHJva2U6IzE4MTgxODtzdHJva2Utd2lkdGg6MC41OyIgd2lkdGg9IjQiIHg9IjU5Ny42NyIgeT0iMzY1Ljk2ODgiLz48cmVjdCBmaWxsPSIjRjFGMUYxIiBoZWlnaHQ9IjIiIHN0eWxlPSJzdHJva2U6IzE4MTgxODtzdHJva2Utd2lkdGg6MC41OyIgd2lkdGg9IjQiIHg9IjU5Ny42NyIgeT0iMzY5Ljk2ODgiLz48dGV4dCBmaWxsPSIjMDAwMDAwIiBmb250LWZhbWlseT0ic2Fucy1zZXJpZiIgZm9udC1zaXplPSIxNCIgbGVuZ3RoQWRqdXN0PSJzcGFjaW5nIiB0ZXh0TGVuZ3RoPSIxMjYiIHg9IjQ2OC42NyIgeT0iMzkyLjIwMzEiPkxhbmdDaGFpbiBXb3JrZmxvdzwvdGV4dD48L2c+PCEtLWVudGl0eSBzaWxpY29uLS0+PGcgY2xhc3M9ImVudGl0eSIgZGF0YS1lbnRpdHk9InNpbGljb24iIGRhdGEtc291cmNlLWxpbmU9IjE3IiBkYXRhLXVpZD0iZW50MDAwOSIgaWQ9ImVudGl0eV9zaWxpY29uIj48cmVjdCBmaWxsPSIjRjFGMUYxIiBoZWlnaHQ9IjQ0Ljk4NDQiIHJ4PSIyLjUiIHJ5PSIyLjUiIHN0eWxlPSJzdHJva2U6IzE4MTgxODtzdHJva2Utd2lkdGg6MC41OyIgd2lkdGg9IjExNyIgeD0iNjAxLjE3IiB5PSI1MzAuOTY4OCIvPjxyZWN0IGZpbGw9IiNGMUYxRjEiIGhlaWdodD0iMTAiIHN0eWxlPSJzdHJva2U6IzE4MTgxODtzdHJva2Utd2lkdGg6MC41OyIgd2lkdGg9IjE1IiB4PSI2OTguMTciIHk9IjUzNS45Njg4Ii8+PHJlY3QgZmlsbD0iI0YxRjFGMSIgaGVpZ2h0PSIyIiBzdHlsZT0ic3Ryb2tlOiMxODE4MTg7c3Ryb2tlLXdpZHRoOjAuNTsiIHdpZHRoPSI0IiB4PSI2OTYuMTciIHk9IjUzNy45Njg4Ii8+PHJlY3QgZmlsbD0iI0YxRjFGMSIgaGVpZ2h0PSIyIiBzdHlsZT0ic3Ryb2tlOiMxODE4MTg7c3Ryb2tlLXdpZHRoOjAuNTsiIHdpZHRoPSI0IiB4PSI2OTYuMTciIHk9IjU0MS45Njg4Ii8+PHRleHQgZmlsbD0iIzAwMDAwMCIgZm9udC1mYW1pbHk9InNhbnMtc2VyaWYiIGZvbnQtc2l6ZT0iMTQiIGxlbmd0aEFkanVzdD0ic3BhY2luZyIgdGV4dExlbmd0aD0iNzciIHg9IjYxNi4xNyIgeT0iNTY0LjIwMzEiPlNpbGljb25GbG93PC90ZXh0PjwvZz48IS0tZW50aXR5IGRlZXBzZWVrLS0+PGcgY2xhc3M9ImVudGl0eSIgZGF0YS1lbnRpdHk9ImRlZXBzZWVrIiBkYXRhLXNvdXJjZS1saW5lPSIxOCIgZGF0YS11aWQ9ImVudDAwMTAiIGlkPSJlbnRpdHlfZGVlcHNlZWsiPjxyZWN0IGZpbGw9IiNGMUYxRjEiIGhlaWdodD0iNDQuOTg0NCIgcng9IjIuNSIgcnk9IjIuNSIgc3R5bGU9InN0cm9rZTojMTgxODE4O3N0cm9rZS13aWR0aDowLjU7IiB3aWR0aD0iOTYiIHg9IjYwMC42NyIgeT0iNjQ4LjQ2ODgiLz48cmVjdCBmaWxsPSIjRjFGMUYxIiBoZWlnaHQ9IjEwIiBzdHlsZT0ic3Ryb2tlOiMxODE4MTg7c3Ryb2tlLXdpZHRoOjAuNTsiIHdpZHRoPSIxNSIgeD0iNjc2LjY3IiB5PSI2NTMuNDY4OCIvPjxyZWN0IGZpbGw9IiNGMUYxRjEiIGhlaWdodD0iMiIgc3R5bGU9InN0cm9rZTojMTgxODE4O3N0cm9rZS13aWR0aDowLjU7IiB3aWR0aD0iNCIgeD0iNjc0LjY3IiB5PSI2NTUuNDY4OCIvPjxyZWN0IGZpbGw9IiNGMUYxRjEiIGhlaWdodD0iMiIgc3R5bGU9InN0cm9rZTojMTgxODE4O3N0cm9rZS13aWR0aDowLjU7IiB3aWR0aD0iNCIgeD0iNjc0LjY3IiB5PSI2NTkuNDY4OCIvPjx0ZXh0IGZpbGw9IiMwMDAwMDAiIGZvbnQtZmFtaWx5PSJzYW5zLXNlcmlmIiBmb250LXNpemU9IjE0IiBsZW5ndGhBZGp1c3Q9InNwYWNpbmciIHRleHRMZW5ndGg9IjU2IiB4PSI2MTUuNjciIHk9IjY4MS43MDMxIj5EZWVwU2VlazwvdGV4dD48L2c+PCEtLWVudGl0eSBlcm5pZS0tPjxnIGNsYXNzPSJlbnRpdHkiIGRhdGEtZW50aXR5PSJlcm5pZSIgZGF0YS1zb3VyY2UtbGluZT0iMTkiIGRhdGEtdWlkPSJlbnQwMDExIiBpZD0iZW50aXR5X2VybmllIj48cmVjdCBmaWxsPSIjRjFGMUYxIiBoZWlnaHQ9IjQ0Ljk4NDQiIHJ4PSIyLjUiIHJ5PSIyLjUiIHN0eWxlPSJzdHJva2U6IzE4MTgxODtzdHJva2Utd2lkdGg6MC41OyIgd2lkdGg9Ijk2IiB4PSI2MTguNjciIHk9IjczNC45Njg4Ii8+PHJlY3QgZmlsbD0iI0YxRjFGMSIgaGVpZ2h0PSIxMCIgc3R5bGU9InN0cm9rZTojMTgxODE4O3N0cm9rZS13aWR0aDowLjU7IiB3aWR0aD0iMTUiIHg9IjY5NC42NyIgeT0iNzM5Ljk2ODgiLz48cmVjdCBmaWxsPSIjRjFGMUYxIiBoZWlnaHQ9IjIiIHN0eWxlPSJzdHJva2U6IzE4MTgxODtzdHJva2Utd2lkdGg6MC41OyIgd2lkdGg9IjQiIHg9IjY5Mi42NyIgeT0iNzQxLjk2ODgiLz48cmVjdCBmaWxsPSIjRjFGMUYxIiBoZWlnaHQ9IjIiIHN0eWxlPSJzdHJva2U6IzE4MTgxODtzdHJva2Utd2lkdGg6MC41OyIgd2lkdGg9IjQiIHg9IjY5Mi42NyIgeT0iNzQ1Ljk2ODgiLz48dGV4dCBmaWxsPSIjMDAwMDAwIiBmb250LWZhbWlseT0ic2Fucy1zZXJpZiIgZm9udC1zaXplPSIxNCIgbGVuZ3RoQWRqdXN0PSJzcGFjaW5nIiB0ZXh0TGVuZ3RoPSI1NiIgeD0iNjMzLjY3IiB5PSI3NjguMjAzMSI+RXJuaWVCb3Q8L3RleHQ+PC9nPjwhLS1lbnRpdHkgY296ZS0tPjxnIGNsYXNzPSJlbnRpdHkiIGRhdGEtZW50aXR5PSJjb3plIiBkYXRhLXNvdXJjZS1saW5lPSIyMCIgZGF0YS11aWQ9ImVudDAwMTIiIGlkPSJlbnRpdHlfY296ZSI+PHJlY3QgZmlsbD0iI0YxRjFGMSIgaGVpZ2h0PSI0NC45ODQ0IiByeD0iMi41IiByeT0iMi41IiBzdHlsZT0ic3Ryb2tlOiMxODE4MTg7c3Ryb2tlLXdpZHRoOjAuNTsiIHdpZHRoPSIxMzEiIHg9IjYwMS4xNyIgeT0iODEwLjk2ODgiLz48cmVjdCBmaWxsPSIjRjFGMUYxIiBoZWlnaHQ9IjEwIiBzdHlsZT0ic3Ryb2tlOiMxODE4MTg7c3Ryb2tlLXdpZHRoOjAuNTsiIHdpZHRoPSIxNSIgeD0iNzEyLjE3IiB5PSI4MTUuOTY4OCIvPjxyZWN0IGZpbGw9IiNGMUYxRjEiIGhlaWdodD0iMiIgc3R5bGU9InN0cm9rZTojMTgxODE4O3N0cm9rZS13aWR0aDowLjU7IiB3aWR0aD0iNCIgeD0iNzEwLjE3IiB5PSI4MTcuOTY4OCIvPjxyZWN0IGZpbGw9IiNGMUYxRjEiIGhlaWdodD0iMiIgc3R5bGU9InN0cm9rZTojMTgxODE4O3N0cm9rZS13aWR0aDowLjU7IiB3aWR0aD0iNCIgeD0iNzEwLjE3IiB5PSI4MjEuOTY4OCIvPjx0ZXh0IGZpbGw9IiMwMDAwMDAiIGZvbnQtZmFtaWx5PSJzYW5zLXNlcmlmIiBmb250LXNpemU9IjE0IiBsZW5ndGhBZGp1c3Q9InNwYWNpbmciIHRleHRMZW5ndGg9IjkxIiB4PSI2MTYuMTciIHk9Ijg0NC4yMDMxIj5Db3plIFdvcmtmbG93PC90ZXh0PjwvZz48IS0tZW50aXR5IG15c3FsLS0+PGcgY2xhc3M9ImVudGl0eSIgZGF0YS1lbnRpdHk9Im15c3FsIiBkYXRhLXNvdXJjZS1saW5lPSIyNyIgZGF0YS11aWQ9ImVudDAwMTUiIGlkPSJlbnRpdHlfbXlzcWwiPjxyZWN0IGZpbGw9IiNGMUYxRjEiIGhlaWdodD0iNDQuOTg0NCIgcng9IjIuNSIgcnk9IjIuNSIgc3R5bGU9InN0cm9rZTojMTgxODE4O3N0cm9rZS13aWR0aDowLjU7IiB3aWR0aD0iNzUiIHg9IjMyMy4xNyIgeT0iNTMwLjk2ODgiLz48cmVjdCBmaWxsPSIjRjFGMUYxIiBoZWlnaHQ9IjEwIiBzdHlsZT0ic3Ryb2tlOiMxODE4MTg7c3Ryb2tlLXdpZHRoOjAuNTsiIHdpZHRoPSIxNSIgeD0iMzc4LjE3IiB5PSI1MzUuOTY4OCIvPjxyZWN0IGZpbGw9IiNGMUYxRjEiIGhlaWdodD0iMiIgc3R5bGU9InN0cm9rZTojMTgxODE4O3N0cm9rZS13aWR0aDowLjU7IiB3aWR0aD0iNCIgeD0iMzc2LjE3IiB5PSI1MzcuOTY4OCIvPjxyZWN0IGZpbGw9IiNGMUYxRjEiIGhlaWdodD0iMiIgc3R5bGU9InN0cm9rZTojMTgxODE4O3N0cm9rZS13aWR0aDowLjU7IiB3aWR0aD0iNCIgeD0iMzc2LjE3IiB5PSI1NDEuOTY4OCIvPjx0ZXh0IGZpbGw9IiMwMDAwMDAiIGZvbnQtZmFtaWx5PSJzYW5zLXNlcmlmIiBmb250LXNpemU9IjE0IiBsZW5ndGhBZGp1c3Q9InNwYWNpbmciIHRleHRMZW5ndGg9IjM1IiB4PSIzMzguMTciIHk9IjU2NC4yMDMxIj5NeVNRTDwvdGV4dD48L2c+PCEtLWVudGl0eSBmYWlzcy0tPjxnIGNsYXNzPSJlbnRpdHkiIGRhdGEtZW50aXR5PSJmYWlzcyIgZGF0YS1zb3VyY2UtbGluZT0iMjgiIGRhdGEtdWlkPSJlbnQwMDE2IiBpZD0iZW50aXR5X2ZhaXNzIj48cmVjdCBmaWxsPSIjRjFGMUYxIiBoZWlnaHQ9IjQ0Ljk4NDQiIHJ4PSIyLjUiIHJ5PSIyLjUiIHN0eWxlPSJzdHJva2U6IzE4MTgxODtzdHJva2Utd2lkdGg6MC41OyIgd2lkdGg9IjEzOCIgeD0iMTM0LjY3IiB5PSI1MzAuOTY4OCIvPjxyZWN0IGZpbGw9IiNGMUYxRjEiIGhlaWdodD0iMTAiIHN0eWxlPSJzdHJva2U6IzE4MTgxODtzdHJva2Utd2lkdGg6MC41OyIgd2lkdGg9IjE1IiB4PSIyNTIuNjciIHk9IjUzNS45Njg4Ii8+PHJlY3QgZmlsbD0iI0YxRjFGMSIgaGVpZ2h0PSIyIiBzdHlsZT0ic3Ryb2tlOiMxODE4MTg7c3Ryb2tlLXdpZHRoOjAuNTsiIHdpZHRoPSI0IiB4PSIyNTAuNjciIHk9IjUzNy45Njg4Ii8+PHJlY3QgZmlsbD0iI0YxRjFGMSIgaGVpZ2h0PSIyIiBzdHlsZT0ic3Ryb2tlOiMxODE4MTg7c3Ryb2tlLXdpZHRoOjAuNTsiIHdpZHRoPSI0IiB4PSIyNTAuNjciIHk9IjU0MS45Njg4Ii8+PHRleHQgZmlsbD0iIzAwMDAwMCIgZm9udC1mYW1pbHk9InNhbnMtc2VyaWYiIGZvbnQtc2l6ZT0iMTQiIGxlbmd0aEFkanVzdD0ic3BhY2luZyIgdGV4dExlbmd0aD0iOTgiIHg9IjE0OS42NyIgeT0iNTY0LjIwMzEiPkZBSVNTIFZlY3RvckRCPC90ZXh0PjwvZz48IS0tZW50aXR5IHVzZXItLT48ZyBjbGFzcz0iZW50aXR5IiBkYXRhLWVudGl0eT0idXNlciIgZGF0YS1zb3VyY2UtbGluZT0iNTUiIGRhdGEtdWlkPSJlbnQwMDMwIiBpZD0iZW50aXR5X3VzZXIiPjxlbGxpcHNlIGN4PSIyOTguNjciIGN5PSI2NC45Njg4IiBmaWxsPSIjRjFGMUYxIiByeD0iOCIgcnk9IjgiIHN0eWxlPSJzdHJva2U6IzE4MTgxODtzdHJva2Utd2lkdGg6MC41OyIvPjxwYXRoIGQ9Ik0yOTguNjcsNzIuOTY4OCBMMjk4LjY3LDk5Ljk2ODggTTI4NS42Nyw4MC45Njg4IEwzMTEuNjcsODAuOTY4OCBNMjk4LjY3LDk5Ljk2ODggTDI4NS42NywxMTQuOTY4OCBNMjk4LjY3LDk5Ljk2ODggTDMxMS42NywxMTQuOTY4OCIgZmlsbD0ibm9uZSIgc3R5bGU9InN0cm9rZTojMTgxODE4O3N0cm9rZS13aWR0aDowLjU7Ii8+PHRleHQgZmlsbD0iIzAwMDAwMCIgZm9udC1mYW1pbHk9InNhbnMtc2VyaWYiIGZvbnQtc2l6ZT0iMTQiIGxlbmd0aEFkanVzdD0ic3BhY2luZyIgdGV4dExlbmd0aD0iMjgiIHg9IjI4NC42NyIgeT0iMTI5LjcwMzEiPlVzZXI8L3RleHQ+PC9nPjxnIGNsYXNzPSJlbnRpdHkiIGRhdGEtZW50aXR5PSJHTU4zMiIgZGF0YS1zb3VyY2UtbGluZT0iNjAiIGRhdGEtdWlkPSJlbnQwMDMzIiBpZD0iZW50aXR5X0dNTjMyIj48cGF0aCBkPSJNNDI5LjY3LDIxMy45Njg4IEw0MjkuNjcsMjQyLjk2ODggTDM3MS4zMywyNDYuOTY4OCBMNDI5LjY3LDI1MC45Njg4IEw0MjkuNjcsMjc5LjYyNSBBMCwwIDAgMCAwIDQyOS42NywyNzkuNjI1IEw1NjcuNjcsMjc5LjYyNSBBMCwwIDAgMCAwIDU2Ny42NywyNzkuNjI1IEw1NjcuNjcsMjIzLjk2ODggTDU1Ny42NywyMTMuOTY4OCBMNDI5LjY3LDIxMy45Njg4IEEwLDAgMCAwIDAgNDI5LjY3LDIxMy45Njg4IiBmaWxsPSIjRkFGQUZBIiBzdHlsZT0ic3Ryb2tlOiMxODE4MTg7c3Ryb2tlLXdpZHRoOjAuNTsiLz48cGF0aCBkPSJNNTU3LjY3LDIxMy45Njg4IEw1NTcuNjcsMjIzLjk2ODggTDU2Ny42NywyMjMuOTY4OCBMNTU3LjY3LDIxMy45Njg4IiBmaWxsPSIjRkFGQUZBIiBzdHlsZT0ic3Ryb2tlOiMxODE4MTg7c3Ryb2tlLXdpZHRoOjAuNTsiLz48dGV4dCBmaWxsPSIjMDAwMDAwIiBmb250LWZhbWlseT0ic2Fucy1zZXJpZiIgZm9udC1zaXplPSIxMyIgbGVuZ3RoQWRqdXN0PSJzcGFjaW5nIiB0ZXh0TGVuZ3RoPSIxMTciIHg9IjQzNS42NyIgeT0iMjMxLjI1NzgiPiYjOTcyNDsgJiMyNTE1MjsmIzI2Mzc3OyYjMzU4MzE7JiMyNzcxNDsmIzMyNDc5OyYjMTk5Njg7JiMyMDgzNzsmIzIxNDc1OzwvdGV4dD48dGV4dCBmaWxsPSIjMDAwMDAwIiBmb250LWZhbWlseT0ic2Fucy1zZXJpZiIgZm9udC1zaXplPSIxMyIgbGVuZ3RoQWRqdXN0PSJzcGFjaW5nIiB0ZXh0TGVuZ3RoPSIxMDQiIHg9IjQzNS42NyIgeT0iMjQ1LjE3MTkiPiYjOTcyNDsgJiMyNjIzNDsmIzMzMDIxOyYjMzYzMzU7JiMzMDAwMTtBSSYjMjYzODE7JiMyMTE1Mzs8L3RleHQ+PHRleHQgZmlsbD0iIzAwMDAwMCIgZm9udC1mYW1pbHk9InNhbnMtc2VyaWYiIGZvbnQtc2l6ZT0iMTMiIGxlbmd0aEFkanVzdD0ic3BhY2luZyIgdGV4dExlbmd0aD0iOTcuNSIgeD0iNDM1LjY3IiB5PSIyNTkuMDg1OSI+JiM5NzI0OyAmIzIwMjUwOyYjMzU4MDU7JiMzMTY0OTsmIzI5NzAyOy8mIzM4NDgwOyYjMjc5Njk7PC90ZXh0Pjx0ZXh0IGZpbGw9IiMwMDAwMDAiIGZvbnQtZmFtaWx5PSJzYW5zLXNlcmlmIiBmb250LXNpemU9IjEzIiBsZW5ndGhBZGp1c3Q9InNwYWNpbmciIHRleHRMZW5ndGg9Ijg0LjUiIHg9IjQzNS42NyIgeT0iMjczIj4mIzk3MjQ7IEpXVCYjMzU3NDg7JiMzNTc3NzsmIzM3NDkyOyYjMjY0MzU7PC90ZXh0PjwvZz48ZyBjbGFzcz0iZW50aXR5IiBkYXRhLWVudGl0eT0iR01OMzUiIGRhdGEtc291cmNlLWxpbmU9IjY3IiBkYXRhLXVpZD0iZW50MDAzNiIgaWQ9ImVudGl0eV9HTU4zNSI+PHBhdGggZD0iTTk0OC4xNywzNDguNDY4OCBMOTQ4LjE3LDQxNC4xMjUgTDEwOTkuMTcsNDE0LjEyNSBMMTA5OS4xNywzNTguNDY4OCBMMTA4OS4xNywzNDguNDY4OCBMOTQ4LjE3LDM0OC40Njg4IiBmaWxsPSIjRkFGQUZBIiBzdHlsZT0ic3Ryb2tlOiMxODE4MTg7c3Ryb2tlLXdpZHRoOjAuNTsiLz48cGF0aCBkPSJNMTA4OS4xNywzNDguNDY4OCBMMTA4OS4xNywzNTguNDY4OCBMMTA5OS4xNywzNTguNDY4OCBMMTA4OS4xNywzNDguNDY4OCIgZmlsbD0iI0ZBRkFGQSIgc3R5bGU9InN0cm9rZTojMTgxODE4O3N0cm9rZS13aWR0aDoxOyIvPjx0ZXh0IGZpbGw9IiMwMDAwMDAiIGZvbnQtZmFtaWx5PSJzYW5zLXNlcmlmIiBmb250LXNpemU9IjEzIiBsZW5ndGhBZGp1c3Q9InNwYWNpbmciIHRleHRMZW5ndGg9IjExNyIgeD0iOTU0LjE3IiB5PSIzNjUuNzU3OCI+JiM5NzI0OyAmIzI5NDIwOyYjMjEzNDQ7RGVlcFNlZWsmIzM2ODMwOyYjMjU1MDk7PC90ZXh0Pjx0ZXh0IGZpbGw9IiMwMDAwMDAiIGZvbnQtZmFtaWx5PSJzYW5zLXNlcmlmIiBmb250LXNpemU9IjEzIiBsZW5ndGhBZGp1c3Q9InNwYWNpbmciIHRleHRMZW5ndGg9IjExMC41IiB4PSI5NTQuMTciIHk9IjM3OS42NzE5Ij4mIzk3MjQ7IFdlYlNvY2tldCYjMzgyNzE7JiMzNjgzMDsmIzI1NTA5OzwvdGV4dD48dGV4dCBmaWxsPSIjMDAwMDAwIiBmb250LWZhbWlseT0ic2Fucy1zZXJpZiIgZm9udC1zaXplPSIxMyIgbGVuZ3RoQWRqdXN0PSJzcGFjaW5nIiB0ZXh0TGVuZ3RoPSIxMDQiIHg9Ijk1NC4xNyIgeT0iMzkzLjU4NTkiPiYjOTcyNDsgJiMzOTY0MDsmIzI0MTgyOyYjMjE0NTc7JiMyNzk2OTsmIzI0MzM1OyYjMjE3MDk7JiMyNDIxMjs8L3RleHQ+PHRleHQgZmlsbD0iIzAwMDAwMCIgZm9udC1mYW1pbHk9InNhbnMtc2VyaWYiIGZvbnQtc2l6ZT0iMTMiIGxlbmd0aEFkanVzdD0ic3BhY2luZyIgdGV4dExlbmd0aD0iMTMwIiB4PSI5NTQuMTciIHk9IjQwNy41Ij4mIzk3MjQ7ICYjMzI0Njk7JiMzNjgwNztEamFuZ28mIzE5OTk0OyYjMjExNTM7JiMzNjkyMzsmIzM2NzUzOzwvdGV4dD48L2c+PGcgY2xhc3M9ImVudGl0eSIgZGF0YS1lbnRpdHk9IkdNTjM4IiBkYXRhLXNvdXJjZS1saW5lPSI3NCIgZGF0YS11aWQ9ImVudDAwMzkiIGlkPSJlbnRpdHlfR01OMzgiPjxwYXRoIGQ9Ik05NjYuMTcsNjM3Ljk2ODggTDk2Ni4xNyw3MDMuNjI1IEwxMjIxLjE3LDcwMy42MjUgTDEyMjEuMTcsNjQ3Ljk2ODggTDEyMTEuMTcsNjM3Ljk2ODggTDk2Ni4xNyw2MzcuOTY4OCIgZmlsbD0iI0ZBRkFGQSIgc3R5bGU9InN0cm9rZTojMTgxODE4O3N0cm9rZS13aWR0aDowLjU7Ii8+PHBhdGggZD0iTTEyMTEuMTcsNjM3Ljk2ODggTDEyMTEuMTcsNjQ3Ljk2ODggTDEyMjEuMTcsNjQ3Ljk2ODggTDEyMTEuMTcsNjM3Ljk2ODgiIGZpbGw9IiNGQUZBRkEiIHN0eWxlPSJzdHJva2U6IzE4MTgxODtzdHJva2Utd2lkdGg6MTsiLz48dGV4dCBmaWxsPSIjMDAwMDAwIiBmb250LWZhbWlseT0ic2Fucy1zZXJpZiIgZm9udC1zaXplPSIxMyIgbGVuZ3RoQWRqdXN0PSJzcGFjaW5nIiB0ZXh0TGVuZ3RoPSIyMzQiIHg9Ijk3Mi4xNyIgeT0iNjU1LjI1NzgiPiYjOTcyNDsgU2lsaWNvbkZsb3c6IFNEWEwvU3RhYmxlIERpZmZ1c2lvbjwvdGV4dD48dGV4dCBmaWxsPSIjMDAwMDAwIiBmb250LWZhbWlseT0ic2Fucy1zZXJpZiIgZm9udC1zaXplPSIxMyIgbGVuZ3RoQWRqdXN0PSJzcGFjaW5nIiB0ZXh0TGVuZ3RoPSIxNTYiIHg9Ijk3Mi4xNyIgeT0iNjY5LjE3MTkiPiYjOTcyNDsgRGVlcFNlZWs6ICYjMjY2ODA7JiMyNDUxNTsmIzI1OTkxOyYjMjY0MTI7JiMyOTk4MzsmIzI1MTA0OzwvdGV4dD48dGV4dCBmaWxsPSIjMDAwMDAwIiBmb250LWZhbWlseT0ic2Fucy1zZXJpZiIgZm9udC1zaXplPSIxMyIgbGVuZ3RoQWRqdXN0PSJzcGFjaW5nIiB0ZXh0TGVuZ3RoPSIxNTYiIHg9Ijk3Mi4xNyIgeT0iNjgzLjA4NTkiPiYjOTcyNDsgRXJuaWVCb3Q6ICYjMjAwMTM7JiMyNTk5MTsmIzM5MDQ2OyYjMjI0OTU7JiMyMjY4NjsmIzI0Mzc4OzwvdGV4dD48dGV4dCBmaWxsPSIjMDAwMDAwIiBmb250LWZhbWlseT0ic2Fucy1zZXJpZiIgZm9udC1zaXplPSIxMyIgbGVuZ3RoQWRqdXN0PSJzcGFjaW5nIiB0ZXh0TGVuZ3RoPSIxNTYiIHg9Ijk3Mi4xNyIgeT0iNjk3Ij4mIzk3MjQ7IENvemU6ICYjMjI4MTA7JiMyNDAzNzsmIzIwODU1OyYjMzI1MzQ7JiMyNTQ5MDsmIzI0MDM3OyYjMjAzMTY7JiMyNzk2OTs8L3RleHQ+PC9nPjwhLS1saW5rIGRqYW5nb19hcGkgdG8gand0LS0+PGcgY2xhc3M9ImxpbmsiIGRhdGEtZW50aXR5LTE9ImRqYW5nb19hcGkiIGRhdGEtZW50aXR5LTI9Imp3dCIgZGF0YS1zb3VyY2UtbGluZT0iMzIiIGRhdGEtdWlkPSJsbmsxNyIgaWQ9ImxpbmtfZGphbmdvX2FwaV9qd3QiPjxwYXRoIGQ9Ik0yNzEuNzMsMjY5LjUwODcgQzI1NS4wMywyODMuMDk4OCAyMzMuMjcsMzAxLjE3ODggMjE0LjY3LDMxNy45Njg4IEMxOTkuOTEsMzMxLjI4ODggMTg4LjE1NDQsMzQyLjY2NzggMTc1Ljg0NDQsMzU0Ljk2NzgiIGZpbGw9Im5vbmUiIGlkPSJkamFuZ29fYXBpLXRvLWp3dCIgc3R5bGU9InN0cm9rZTojMTgxODE4O3N0cm9rZS13aWR0aDoxOyIvPjxwb2x5Z29uIGZpbGw9IiMxODE4MTgiIHBvaW50cz0iMTcxLjYsMzU5LjIwODgsMTgwLjc5MzgsMzU1LjY3NywxNzUuMTM3LDM1NS42NzQ3LDE3NS4xMzkzLDM1MC4wMTc4LDE3MS42LDM1OS4yMDg4IiBzdHlsZT0ic3Ryb2tlOiMxODE4MTg7c3Ryb2tlLXdpZHRoOjE7Ii8+PHRleHQgZmlsbD0iIzAwMDAwMCIgZm9udC1mYW1pbHk9InNhbnMtc2VyaWYiIGZvbnQtc2l6ZT0iMTMiIGxlbmd0aEFkanVzdD0ic3BhY2luZyIgdGV4dExlbmd0aD0iMjYiIHg9IjIzOS42NyIgeT0iMzA4LjI1NzgiPiYjMzU3NDg7JiMzNTc3Nzs8L3RleHQ+PC9nPjwhLS1saW5rIGRqYW5nb19hcGkgdG8gZGphbmdvX3NlcnZpY2VzLS0+PGcgY2xhc3M9ImxpbmsiIGRhdGEtZW50aXR5LTE9ImRqYW5nb19hcGkiIGRhdGEtZW50aXR5LTI9ImRqYW5nb19zZXJ2aWNlcyIgZGF0YS1zb3VyY2UtbGluZT0iMzMiIGRhdGEtdWlkPSJsbmsxOCIgaWQ9ImxpbmtfZGphbmdvX2FwaV9kamFuZ29fc2VydmljZXMiPjxwYXRoIGQ9Ik0zNjUuMDIsMjY5LjUwODcgQzM3OC4wOCwyNzMuMzE4OCAzOTEuNzQsMjc3LjAwODcgNDA0LjY3LDI3OS45Njg4IEM1MDkuOTQsMzA0LjA3ODggNTQzLjY5LDI3OS42ODg4IDY0NC42NywzMTcuOTY4OCBDNjcwLjUyLDMyNy43Njg3IDY5MS45NDEyLDM0MS40MTc1IDcxMC43NjEyLDM1NS4yOTc1IiBmaWxsPSJub25lIiBpZD0iZGphbmdvX2FwaS10by1kamFuZ29fc2VydmljZXMiIHN0eWxlPSJzdHJva2U6IzE4MTgxODtzdHJva2Utd2lkdGg6MTsiLz48cG9seWdvbiBmaWxsPSIjMTgxODE4IiBwb2ludHM9IjcxNS41OSwzNTguODU4OCw3MTAuNzIxLDM1MC4yOTc2LDcxMS41NjYsMzU1Ljg5MSw3MDUuOTcyNiwzNTYuNzM2LDcxNS41OSwzNTguODU4OCIgc3R5bGU9InN0cm9rZTojMTgxODE4O3N0cm9rZS13aWR0aDoxOyIvPjx0ZXh0IGZpbGw9IiMwMDAwMDAiIGZvbnQtZmFtaWx5PSJzYW5zLXNlcmlmIiBmb250LXNpemU9IjEzIiBsZW5ndGhBZGp1c3Q9InNwYWNpbmciIHRleHRMZW5ndGg9IjUyIiB4PSI2MjEuNjciIHk9IjMwOC4yNTc4Ij4mIzE5OTk0OyYjMjExNTM7JiMzNjkyMzsmIzM2NzUzOzwvdGV4dD48L2c+PCEtLWxpbmsgZGphbmdvX3NlcnZpY2VzIHRvIHNpbGljb24tLT48ZyBjbGFzcz0ibGluayIgZGF0YS1lbnRpdHktMT0iZGphbmdvX3NlcnZpY2VzIiBkYXRhLWVudGl0eS0yPSJzaWxpY29uIiBkYXRhLXNvdXJjZS1saW5lPSIzNiIgZGF0YS11aWQ9ImxuazE5IiBpZD0ibGlua19kamFuZ29fc2VydmljZXNfc2lsaWNvbiI+PHBhdGggZD0iTTczMi4xNiw0MDMuOTk4OCBDNzE2LjI0LDQzNi42MDg4IDY4OC44MTIzLDQ5Mi43ODcgNjcyLjg2MjMsNTI1LjQ1NyIgZmlsbD0ibm9uZSIgaWQ9ImRqYW5nb19zZXJ2aWNlcy10by1zaWxpY29uIiBzdHlsZT0ic3Ryb2tlOiMxODE4MTg7c3Ryb2tlLXdpZHRoOjE7Ii8+PHBvbHlnb24gZmlsbD0iIzE4MTgxOCIgcG9pbnRzPSI2NzAuMjMsNTMwLjg0ODgsNjc3Ljc3Myw1MjQuNTE2LDY3Mi40MjM2LDUyNi4zNTU2LDY3MC41ODQsNTIxLjAwNjMsNjcwLjIzLDUzMC44NDg4IiBzdHlsZT0ic3Ryb2tlOiMxODE4MTg7c3Ryb2tlLXdpZHRoOjE7Ii8+PHRleHQgZmlsbD0iIzAwMDAwMCIgZm9udC1mYW1pbHk9InNhbnMtc2VyaWYiIGZvbnQtc2l6ZT0iMTMiIGxlbmd0aEFkanVzdD0ic3BhY2luZyIgdGV4dExlbmd0aD0iNTIiIHg9IjcxNi42NyIgeT0iNDQ5LjI1NzgiPiYjMjIyNzA7JiMyMDY4NzsmIzI5OTgzOyYjMjUxMDQ7PC90ZXh0PjwvZz48IS0tbGluayBkamFuZ29fc2VydmljZXMgdG8gZGVlcHNlZWstLT48ZyBjbGFzcz0ibGluayIgZGF0YS1lbnRpdHktMT0iZGphbmdvX3NlcnZpY2VzIiBkYXRhLWVudGl0eS0yPSJkZWVwc2VlayIgZGF0YS1zb3VyY2UtbGluZT0iMzciIGRhdGEtdWlkPSJsbmsyMCIgaWQ9ImxpbmtfZGphbmdvX3NlcnZpY2VzX2RlZXBzZWVrIj48cGF0aCBkPSJNNzAwLjQxLDQwNC4wMTg3IEM2ODMuMzcsNDEyLjE5ODggNjYzLjM2LDQyMS4xNjg4IDY0NC42Nyw0MjcuOTY4OCBDNTk0LjkzLDQ0Ni4wNjg4IDU2MS44Nyw0MTYuOTQ4OCA1MjkuNjcsNDU4Ljk2ODggQzQ5MS41Niw1MDguNzE4OCA0OTguNTYsNTQ1LjU2ODggNTI5LjY3LDU5OS45Njg4IEM1NDQuOSw2MjYuNTk4OCA1NjkuMTEzNiw2NDEuNzg2MSA1OTUuMDYzNiw2NTIuNjI2MSIgZmlsbD0ibm9uZSIgaWQ9ImRqYW5nb19zZXJ2aWNlcy10by1kZWVwc2VlayIgc3R5bGU9InN0cm9rZTojMTgxODE4O3N0cm9rZS13aWR0aDoxOyIvPjxwb2x5Z29uIGZpbGw9IiMxODE4MTgiIHBvaW50cz0iNjAwLjYsNjU0LjkzODgsNTkzLjgzNzIsNjQ3Ljc3ODgsNTk1Ljk4NjQsNjUzLjAxMTUsNTkwLjc1MzYsNjU1LjE2MDYsNjAwLjYsNjU0LjkzODgiIHN0eWxlPSJzdHJva2U6IzE4MTgxODtzdHJva2Utd2lkdGg6MTsiLz48dGV4dCBmaWxsPSIjMDAwMDAwIiBmb250LWZhbWlseT0ic2Fucy1zZXJpZiIgZm9udC1zaXplPSIxMyIgbGVuZ3RoQWRqdXN0PSJzcGFjaW5nIiB0ZXh0TGVuZ3RoPSI0NS41IiB4PSI1MzAuNjciIHk9IjU1OS4yNTc4Ij4mIzM2ODkwOyYjMjk5OTI7TExNPC90ZXh0PjwvZz48IS0tbGluayBkamFuZ29fc2VydmljZXMgdG8gZXJuaWUtLT48ZyBjbGFzcz0ibGluayIgZGF0YS1lbnRpdHktMT0iZGphbmdvX3NlcnZpY2VzIiBkYXRhLWVudGl0eS0yPSJlcm5pZSIgZGF0YS1zb3VyY2UtbGluZT0iMzgiIGRhdGEtdWlkPSJsbmsyMSIgaWQ9ImxpbmtfZGphbmdvX3NlcnZpY2VzX2VybmllIj48cGF0aCBkPSJNNzYwLjk1LDQwNC4wMzg4IEM3NjguMTgsNDEzLjM5ODcgNzc2LjA4LDQyNC43NTg4IDc4MS42Nyw0MzUuOTY4OCBDODA5LjUyLDQ5MS43OTg4IDc5MC4yNCw1OTQuNjI4OCA3ODguNjcsNTk5Ljk2ODggQzc3Mi4wNCw2NTYuNDc4OCA3MjcuNjYxMSw3MDMuMzE2NSA2OTcuMDUxMSw3MzAuODQ2NSIgZmlsbD0ibm9uZSIgaWQ9ImRqYW5nb19zZXJ2aWNlcy10by1lcm5pZSIgc3R5bGU9InN0cm9rZTojMTgxODE4O3N0cm9rZS13aWR0aDoxOyIvPjxwb2x5Z29uIGZpbGw9IiMxODE4MTgiIHBvaW50cz0iNjkyLjU5LDczNC44NTg4LDcwMS45NTY2LDczMS44MTQ1LDY5Ni4zMDc2LDczMS41MTUyLDY5Ni42MDY5LDcyNS44NjYzLDY5Mi41OSw3MzQuODU4OCIgc3R5bGU9InN0cm9rZTojMTgxODE4O3N0cm9rZS13aWR0aDoxOyIvPjx0ZXh0IGZpbGw9IiMwMDAwMDAiIGZvbnQtZmFtaWx5PSJzYW5zLXNlcmlmIiBmb250LXNpemU9IjEzIiBsZW5ndGhBZGp1c3Q9InNwYWNpbmciIHRleHRMZW5ndGg9IjUyIiB4PSI3ODYuNjciIHk9IjYyMS4yNTc4Ij4mIzIwMDEzOyYjMjU5OTE7JiMyMDI0ODsmIzIxMjcwOzwvdGV4dD48L2c+PCEtLWxpbmsgZGphbmdvX3NlcnZpY2VzIHRvIGNvemUtLT48ZyBjbGFzcz0ibGluayIgZGF0YS1lbnRpdHktMT0iZGphbmdvX3NlcnZpY2VzIiBkYXRhLWVudGl0eS0yPSJjb3plIiBkYXRhLXNvdXJjZS1saW5lPSIzOSIgZGF0YS11aWQ9ImxuazIyIiBpZD0ibGlua19kamFuZ29fc2VydmljZXNfY296ZSI+PHBhdGggZD0iTTc2OS4xNiw0MDQuMTE4OCBDNzc4Ljg3LDQxMy4xMzg3IDc4OS4yOCw0MjQuMjQ4OCA3OTYuNjcsNDM1Ljk2ODggQzg0Mi44Niw1MDkuMjU4OCA4NzguMDgsNTQwLjQ1ODggODUxLjY3LDYyMi45Njg4IEM4MjUuNTQsNzA0LjU5ODggODAwLjE2LDcxOS4yNDg4IDczOS42Nyw3NzkuOTY4OCBDNzI4LjMyLDc5MS4zNTg4IDcxOS4yMzUyLDc5OC42OTA5IDcwNi41MTUyLDgwNy40MzA5IiBmaWxsPSJub25lIiBpZD0iZGphbmdvX3NlcnZpY2VzLXRvLWNvemUiIHN0eWxlPSJzdHJva2U6IzE4MTgxODtzdHJva2Utd2lkdGg6MTsiLz48cG9seWdvbiBmaWxsPSIjMTgxODE4IiBwb2ludHM9IjcwMS41Nyw4MTAuODI4OCw3MTEuMjUzLDgwOS4wMjg3LDcwNS42OTEsODA3Ljk5NzIsNzA2LjcyMjUsODAyLjQzNTIsNzAxLjU3LDgxMC44Mjg4IiBzdHlsZT0ic3Ryb2tlOiMxODE4MTg7c3Ryb2tlLXdpZHRoOjE7Ii8+PHRleHQgZmlsbD0iIzAwMDAwMCIgZm9udC1mYW1pbHk9InNhbnMtc2VyaWYiIGZvbnQtc2l6ZT0iMTMiIGxlbmd0aEFkanVzdD0ic3BhY2luZyIgdGV4dExlbmd0aD0iNjUiIHg9Ijg0Ni42NyIgeT0iNjc2Ljc1NzgiPiYjMjI3OTc7JiMyNjQzNDsmIzI0MDM3OyYjMjAzMTY7JiMyNzk2OTs8L3RleHQ+PC9nPjwhLS1saW5rIGRqYW5nb19hcGkgdG8gZmFzdGFwaV93cy0tPjxnIGNsYXNzPSJsaW5rIiBkYXRhLWVudGl0eS0xPSJkamFuZ29fYXBpIiBkYXRhLWVudGl0eS0yPSJmYXN0YXBpX3dzIiBkYXRhLXNvdXJjZS1saW5lPSI0MiIgZGF0YS11aWQ9ImxuazIzIiBpZD0ibGlua19kamFuZ29fYXBpX2Zhc3RhcGlfd3MiPjxwYXRoIGQ9Ik0zMDEuOTMsMjY5LjU0ODggQzMwNS42NSwyOTQuMTg4OCAzMTAuODA0MywzMjguMzI2IDMxNC41MjQzLDM1Mi45NjYiIGZpbGw9Im5vbmUiIGlkPSJkamFuZ29fYXBpLXRvLWZhc3RhcGlfd3MiIHN0eWxlPSJzdHJva2U6IzE4MTgxODtzdHJva2Utd2lkdGg6MTsiLz48cG9seWdvbiBmaWxsPSIjMTgxODE4IiBwb2ludHM9IjMxNS40MiwzNTguODk4NywzMTguMDMxNiwzNDkuNDAyNSwzMTQuNjczNiwzNTMuOTU0OCwzMTAuMTIxMywzNTAuNTk2NywzMTUuNDIsMzU4Ljg5ODciIHN0eWxlPSJzdHJva2U6IzE4MTgxODtzdHJva2Utd2lkdGg6MTsiLz48dGV4dCBmaWxsPSIjMDAwMDAwIiBmb250LWZhbWlseT0ic2Fucy1zZXJpZiIgZm9udC1zaXplPSIxMyIgbGVuZ3RoQWRqdXN0PSJzcGFjaW5nIiB0ZXh0TGVuZ3RoPSIxMDQiIHg9IjMwNy42NyIgeT0iMzA4LjI1NzgiPkRlZXBTZWVrJiMyNzk2OTsmIzI0MzM1OyYjMzU4MzE7JiMyNzcxNDs8L3RleHQ+PC9nPjwhLS1saW5rIGZhc3RhcGlfd3MgdG8gZGVlcHNlZWstLT48ZyBjbGFzcz0ibGluayIgZGF0YS1lbnRpdHktMT0iZmFzdGFwaV93cyIgZGF0YS1lbnRpdHktMj0iZGVlcHNlZWsiIGRhdGEtc291cmNlLWxpbmU9IjQzIiBkYXRhLXVpZD0ibG5rMjQiIGlkPSJsaW5rX2Zhc3RhcGlfd3NfZGVlcHNlZWsiPjxwYXRoIGQ9Ik0yNzUuMDUsNDAzLjk3ODggQzI1Ni40OSw0MTIuNDQ4OCAyMzQuMzgsNDIxLjYzODggMjEzLjY3LDQyNy45Njg4IEMxNDEuOSw0NDkuOTE4OCA5NS42Miw0MDEuMjI4OCA0Ny42Nyw0NTguOTY4OCBDNy42Myw1MDcuMTc4OCA2LDU1My4xNTg4IDQ3LjY3LDU5OS45Njg4IEM4NC4zLDY0MS4xMDg4IDQ1OC4zNjYxLDY2MS41NTg0IDU5NC41MDYxLDY2Ny42OTg0IiBmaWxsPSJub25lIiBpZD0iZmFzdGFwaV93cy10by1kZWVwc2VlayIgc3R5bGU9InN0cm9rZTojMTgxODE4O3N0cm9rZS13aWR0aDoxOyIvPjxwb2x5Z29uIGZpbGw9IiMxODE4MTgiIHBvaW50cz0iNjAwLjUsNjY3Ljk2ODgsNTkxLjY4OTQsNjYzLjU2NzMsNTk1LjUwNTEsNjY3Ljc0MzUsNTkxLjMyODksNjcxLjU1OTIsNjAwLjUsNjY3Ljk2ODgiIHN0eWxlPSJzdHJva2U6IzE4MTgxODtzdHJva2Utd2lkdGg6MTsiLz48dGV4dCBmaWxsPSIjMDAwMDAwIiBmb250LWZhbWlseT0ic2Fucy1zZXJpZiIgZm9udC1zaXplPSIxMyIgbGVuZ3RoQWRqdXN0PSJzcGFjaW5nIiB0ZXh0TGVuZ3RoPSI2NSIgeD0iNDguNjciIHk9IjU1OS4yNTc4Ij4mIzM5NjQwOyYjMjQ2MTU7JiMzMzAyMTsmIzM1ODQzOyYjMjk5OTI7PC90ZXh0PjwvZz48IS0tbGluayBkamFuZ29fc2VydmljZXMgdG8gbXlzcWwtLT48ZyBjbGFzcz0ibGluayIgZGF0YS1lbnRpdHktMT0iZGphbmdvX3NlcnZpY2VzIiBkYXRhLWVudGl0eS0yPSJteXNxbCIgZGF0YS1zb3VyY2UtbGluZT0iNDYiIGRhdGEtdWlkPSJsbmsyNSIgaWQ9ImxpbmtfZGphbmdvX3NlcnZpY2VzX215c3FsIj48cGF0aCBkPSJNNzA1LjMsNDAzLjk5ODggQzY4Ny41Myw0MTMuMTM4NyA2NjUuNjIsNDIyLjgzODggNjQ0LjY3LDQyNy45Njg4IEM2MDYuODYsNDM3LjIyODggNTA2Ljc4LDQyNC4xOTg4IDQ2OS42Nyw0MzUuOTY4OCBDNDIyLjY4LDQ1MC44Njg4IDM5MS4yODY3LDQ5Ni4xNTIyIDM3NC43MTY3LDUyNS41NDIyIiBmaWxsPSJub25lIiBpZD0iZGphbmdvX3NlcnZpY2VzLXRvLW15c3FsIiBzdHlsZT0ic3Ryb2tlOiMxODE4MTg7c3Ryb2tlLXdpZHRoOjE7Ii8+PHBvbHlnb24gZmlsbD0iIzE4MTgxOCIgcG9pbnRzPSIzNzEuNzcsNTMwLjc2ODgsMzc5LjY3NDQsNTI0Ljg5MzQsMzc0LjIyNTYsNTI2LjQxMzMsMzcyLjcwNTcsNTIwLjk2NDQsMzcxLjc3LDUzMC43Njg4IiBzdHlsZT0ic3Ryb2tlOiMxODE4MTg7c3Ryb2tlLXdpZHRoOjE7Ii8+PHRleHQgZmlsbD0iIzAwMDAwMCIgZm9udC1mYW1pbHk9InNhbnMtc2VyaWYiIGZvbnQtc2l6ZT0iMTMiIGxlbmd0aEFkanVzdD0ic3BhY2luZyIgdGV4dExlbmd0aD0iMTkuNSIgeD0iNDcwLjY3IiB5PSI0NDkuMjU3OCI+T1JNPC90ZXh0PjwvZz48IS0tbGluayBsYW5nY2hhaW4gdG8gZmFpc3MtLT48ZyBjbGFzcz0ibGluayIgZGF0YS1lbnRpdHktMT0ibGFuZ2NoYWluIiBkYXRhLWVudGl0eS0yPSJmYWlzcyIgZGF0YS1zb3VyY2UtbGluZT0iNDciIGRhdGEtdWlkPSJsbmsyNiIgaWQ9ImxpbmtfbGFuZ2NoYWluX2ZhaXNzIj48cGF0aCBkPSJNNDg5Ljg5LDQwNC4wMzg4IEM0NjguMzUsNDEyLjk5ODggNDQyLjE5LDQyMi41NTg4IDQxNy42Nyw0MjcuOTY4OCBDMzkyLjY2LDQzMy40ODg4IDMyNS41NCw0MjQuNDE4OCAzMDIuNjcsNDM1Ljk2ODggQzI2MS40NSw0NTYuNzk4OCAyMzMuNDgzNSw0OTcuOTA2IDIxNy45MDM1LDUyNS40NTYiIGZpbGw9Im5vbmUiIGlkPSJsYW5nY2hhaW4tdG8tZmFpc3MiIHN0eWxlPSJzdHJva2U6IzE4MTgxODtzdHJva2Utd2lkdGg6MTsiLz48cG9seWdvbiBmaWxsPSIjMTgxODE4IiBwb2ludHM9IjIxNC45NSw1MzAuNjc4OCwyMjIuODYyMSw1MjQuODEzNywyMTcuNDExMyw1MjYuMzI2NSwyMTUuODk4NSw1MjAuODc1NywyMTQuOTUsNTMwLjY3ODgiIHN0eWxlPSJzdHJva2U6IzE4MTgxODtzdHJva2Utd2lkdGg6MTsiLz48dGV4dCBmaWxsPSIjMDAwMDAwIiBmb250LWZhbWlseT0ic2Fucy1zZXJpZiIgZm9udC1zaXplPSIxMyIgbGVuZ3RoQWRqdXN0PSJzcGFjaW5nIiB0ZXh0TGVuZ3RoPSI1MiIgeD0iMzAzLjY3IiB5PSI0NDkuMjU3OCI+JiMyMTUyMTsmIzM3MzI3OyYjMjY4MTY7JiMzMjAzNDs8L3RleHQ+PC9nPjwhLS1saW5rIHNpbGljb24gdG8gZGVlcHNlZWstLT48IS0tbGluayBkZWVwc2VlayB0byBlcm5pZS0tPjwhLS1saW5rIGVybmllIHRvIGNvemUtLT48IS0tbGluayB1c2VyIHRvIGRqYW5nb19hcGktLT48ZyBjbGFzcz0ibGluayIgZGF0YS1lbnRpdHktMT0idXNlciIgZGF0YS1lbnRpdHktMj0iZGphbmdvX2FwaSIgZGF0YS1zb3VyY2UtbGluZT0iNTYiIGRhdGEtdWlkPSJsbmszMSIgaWQ9ImxpbmtfdXNlcl9kamFuZ29fYXBpIj48cGF0aCBkPSJNMjk4LjY3LDEzMS41MTg3IEMyOTguNjcsMTYwLjQ5ODcgMjk4LjY3LDE5NC4wMTg3IDI5OC42NywyMTguMjE4OCIgZmlsbD0ibm9uZSIgaWQ9InVzZXItdG8tZGphbmdvX2FwaSIgc3R5bGU9InN0cm9rZTojMTgxODE4O3N0cm9rZS13aWR0aDoxOyIvPjxwb2x5Z29uIGZpbGw9IiMxODE4MTgiIHBvaW50cz0iMjk4LjY3LDIyNC4yMTg4LDMwMi42NywyMTUuMjE4OCwyOTguNjcsMjE5LjIxODgsMjk0LjY3LDIxNS4yMTg4LDI5OC42NywyMjQuMjE4OCIgc3R5bGU9InN0cm9rZTojMTgxODE4O3N0cm9rZS13aWR0aDoxOyIvPjx0ZXh0IGZpbGw9IiMwMDAwMDAiIGZvbnQtZmFtaWx5PSJzYW5zLXNlcmlmIiBmb250LXNpemU9IjEzIiBsZW5ndGhBZGp1c3Q9InNwYWNpbmciIHRleHRMZW5ndGg9IjUyIiB4PSIzMDkuNDIiIHk9IjE1OS43NTc4Ij4mIzI1MTUyOyYjMjYzNzc7JiMzNTgzMTsmIzI3NzE0OzwvdGV4dD48dGV4dCBmaWxsPSIjMDAwMDAwIiBmb250LWZhbWlseT0ic2Fucy1zZXJpZiIgZm9udC1zaXplPSIxMyIgbGVuZ3RoQWRqdXN0PSJzcGFjaW5nIiB0ZXh0TGVuZ3RoPSI3MS41IiB4PSIyOTkuNjciIHk9IjE3My42NzE5Ij4oSFRUUC9SRVNUKTwvdGV4dD48L2c+PCEtLWxpbmsgR01OMzUgdG8gZmFzdGFwaV93cy0tPjxnIGNsYXNzPSJsaW5rIiBkYXRhLWVudGl0eS0xPSJHTU4zNSIgZGF0YS1lbnRpdHktMj0iZmFzdGFwaV93cyIgZGF0YS1zb3VyY2UtbGluZT0iNjciIGRhdGEtdWlkPSJsbmszNyIgaWQ9ImxpbmtfR01OMzVfZmFzdGFwaV93cyI+PHBhdGggZD0iTTk5MC4zMSwzNDguMjk4OCBDOTY5LjM2LDMyOS44Nzg3IDk0MC42OSwzMDguNzU4NyA5MTAuNjcsMjk4Ljk2ODggQzg2Mi45MywyODMuMzk4NyA1MDcuMTIsMjg1Ljc1ODcgNDU4LjY3LDI5OC45Njg4IEM0MTYuMjEsMzEwLjU0ODggMzczLjUxLDMzOC42NDg3IDM0Ni42MywzNTguODM4OCIgZmlsbD0ibm9uZSIgaWQ9IkdNTjM1LWZhc3RhcGlfd3MiIHN0eWxlPSJzdHJva2U6IzE4MTgxODtzdHJva2Utd2lkdGg6MTtzdHJva2UtZGFzaGFycmF5OjcuMCw3LjA7Ii8+PC9nPjwhLS1saW5rIEFJIEludGVncmF0aW9uIE1vZHVsZSB0byBHTU4zOC0tPjxnIGNsYXNzPSJsaW5rIiBkYXRhLWVudGl0eS0xPSJBSSBJbnRlZ3JhdGlvbiBNb2R1bGUiIGRhdGEtZW50aXR5LTI9IkdNTjM4IiBkYXRhLXNvdXJjZS1saW5lPSI3NCIgZGF0YS11aWQ9ImxuazQwIiBpZD0ibGlua19BSSBJbnRlZ3JhdGlvbiBNb2R1bGVfR01OMzgiPjxwYXRoIGQ9Ik03NzYuODQ2NCw1NTYuODgzNiBDNzc3LjA3MzksNTU2Ljk1MTIgNzc3LjMwNTcsNTU3LjAyMDEgNzc3LjU0MTgsNTU3LjA5MDQgQzc3OC4wMTQsNTU3LjIzMDkgNzc4LjUwMzQsNTU3LjM3NjYgNzc5LjAwOTYsNTU3LjUyNzUgQzc4MS4wMzQxLDU1OC4xMzA5IDc4My4zMjY3LDU1OC44MTYzIDc4NS44NjA4LDU1OS41NzY5IEM3OTUuOTk3Miw1NjIuNjE5NCA4MDkuOTk4MSw1NjYuODY2MiA4MjYuMTY4OCw1NzEuODkxMiBDODU4LjUxLDU4MS45NDEzIDg5OS41Myw1OTUuMTAzOCA5MzUuNjcsNjA3Ljk2ODggQzk2MS42Myw2MTcuMjA4OCA5ODkuNyw2MjcuOTY4OCAxMDE0Ljg4LDYzNy45MDg4IiBmaWxsPSJub25lIiBpZD0iQUkgSW50ZWdyYXRpb24gTW9kdWxlLUdNTjM4IiBzdHlsZT0ic3Ryb2tlOiMxODE4MTg7c3Ryb2tlLXdpZHRoOjE7c3Ryb2tlLWRhc2hhcnJheTo3LjAsNy4wOyIvPjwvZz48IS0tU1JDPVtUTExSSm5qNzU3eFZOcDdRYnBHRlk0WEhOd204MlU5NFNNTktENGpCOUhmNW90ZmlSc3Bsa0JsaDhiOTVDaFpYcWpPT21aS0twMk1XOFpONUdRNm4ycXh1QnZMZFRsVFZ6Q3BFaGJhSjhiY3N2Zm5sbFpkTnByUEVEdWdnZ0hQR1dIWDRvdmdhVzk1amJoMWFUSnE2SU00QjV6Nk5qbzk2S3BMb3Q3WnhiWUpQa2Z0N1EzMjFkN1ZkcGxhRWRQa1g5ekVpX2Z4TFZfZDEtMkItTDNLbzE4Nlpxb2d4cE9RcFNpQmNvc25oVlozMWpnaHFyeHNSYWJIS2pQb1FtS1dVVjlYMElOS0ljcEJ3TUs5ZUJCWnl3OXVvV2kzdDZBYU1JbGNzOXNmSHZ1WnhnY05wTXdEdU4yNVEzamktOVdyTTAzb1BpMDJKS2Nyck5CTTBfZ2pIZTJkUE1QYlpkYXhPcWxGOHNxQ2JJcFVtUFE0YW9VWFFSbTBBRGRfSURNbjUweDAyNnkzV1N2YjIwWUtDNnNUQ3JUUTlXT1A5Z2ZKN0NoZnBueUlRM0hWcFU2MzB2bVBzSFNfaDZaN2t2eWM0cHNvOWl0MzZDSXVnNkVWNGN0Mm11MjFTenFuM25xRDR2OGh2R1RabGFjU09aSDhwYm11UERSMjB4eGE4U1ltOTBUcERnaGhIWXlnM01VRmNkZUI0ZU11enRIWVVMQnY5LVhTQWF6UUZVUl95V21iNUdUejFRaUlDM21NcnJvc0I0enIweGw2MXN2WmdqMVJPUmVqVUxEb3Q1TVZiSUJmaThFZkJ6R3RtSGcwT2FXTE94ZDYzenFnckVSQkpzZUl2eVNoZHhpU2JjUnlaa1lKZU9Rb0V6a1pza2RKcjhZU0IyaW45dzF5VlFRTmNoRW9ta0tOdk1kMU9TdXhzb2ZsMGRLbUVObV9yVW8xMi12a2pwTlJRNl9KdGpVa1hsMkYtIC1tVExqWnJEY3VVVDNybGlkb2FfWnMyT0V3cmJVYkE3OXhzZnZRbGJrOW5pSlhCRTIxM0dUaXJqRERkOWoybjVDOV9heVRTNkFfX2ZMWnc4T2xjbGlqTXRoN2VDRS1qVXJEZDJ1UkxILW10ZDE1eV9XWDlxdm9LODJIaGtmeEl1dkN0TXNFa29TeGVsY0ZyRWk4TU5UNnZUMmNsVkR2UkxLb2JpRjh3NDlkTFpaN2g1UDhsUUhrdC1LMEN6RkxacEFhVUcxZmpoSVllVkdWR2pIQ3M3aTBJXzRsLUFwWDJsOE9HZnY0U0sybUpnbVNaOG10d2tDM1Q1cEJrcHhEc0hzcFhiNm1rSUdNb0NKM3NKakg1OXpvaEZWLWpqNTZLSTBhVFY3REJRd3ozendlbk5zalV5S0VxMkx3VXp3SlFzZFVDelB0NmN0dGtyMjBxQ0ZBMUhPWEV5LUxFc05QNm1hSzh5MzRhNGF5VGZGdk9VWFVGdGREX1VxRWZrRTExMUF1TWhndXRVd2FNRjB3UTFfbGtVcmZSNF9EM2JBWnJSMlZkRUx6c0JNUjVQcU9NeDZqMHVpTXJJdTI1ekhsZTJsZVpNblAwSV9weFBodTBpbW56N040LWRHTmZ6c1VGMEM4S080Z2UxLXlJc3RlWDUzSTJYX2lNR3MzVGxWdVJreEQzekVjc1YxSDBrWEo2T2E0dE9DRmdZd1JKTi0xWTZzelBEdWR5MF0tLT48L2c+PC9zdmc+;" vertex="1" parent="1">
            <mxGeometry x="-250" y="-180" width="1228" height="918" as="geometry" />
          </mxCell>
        </UserObject>
        <UserObject label="" plantUmlData="{&#xa;  &quot;data&quot;: &quot;@startuml AI-System-Architecture\nskinparam monochrome false\nskinparam nodesep 50\nskinparam ranksep 30\n\ntitle AI 系统分层架构\\n(Django 统一路由所有AI服务)\n\nskinparam package {\n  BackgroundColor #F5F5F5\n  BorderColor #333333\n  FontColor #333333\n}\n\nskinparam database {\n  BackgroundColor #E3F2FD\n  BorderColor #1976D2\n}\n\nskinparam node {\n  BackgroundColor #E8F5E9\n  BorderColor #388E3C\n}\n\nskinparam actor {\n  BackgroundColor #FFF3E0\n  BorderColor #E64A19\n}\n\nskinparam rectangle {\n  BackgroundColor #EDE7F6\n  BorderColor #5E35B1\n}\n\n&#39; 分层定义\npackage \&quot;API Layer\&quot; #BBDEFB {\n  [Django REST API] as django_api #4FC3F7\n  [FastAPI WebSocket] as fastapi_ws #4FC3F7\n  database \&quot;JWT Auth\&quot; as jwt\n}\n\npackage \&quot;Business Logic\&quot; #C8E6C9 {\n  [Django Services] as django_services #81C784\n  \n  package \&quot;AI Integration Module\&quot; &lt;&lt;rectangle&gt;&gt; {\n    [SiliconFlow] as silicon #BA68C8\n    [DeepSeek] as deepseek #64B5F6\n    [ErnieBot] as ernie #4DB6AC\n    [Coze Workflow] as coze #FFB74D\n  }\n  \n  [LangChain Workflow] as langchain #81C784\n}\n\npackage \&quot;Data Layer\&quot; #BBDEFB {\n  [MySQL] as mysql\n  [FAISS VectorDB] as faiss\n}\n\n&#39; 连接线样式\nskinparam arrow {\n  Color #616161\n  Thickness 2\n}\n\n&#39; 认证与核心调用\ndjango_api -[#2196F3]-&gt; jwt : \&quot;认证\&quot;\ndjango_api -[#4CAF50]-&gt; django_services : \&quot;业务逻辑\&quot;\n\n&#39; Django调用AI模块\ndjango_services -[#7B1FA2]-&gt; silicon : \&quot;图像生成\&quot;\ndjango_services -[#1976D2]-&gt; deepseek : \&quot;通用LLM\&quot;\ndjango_services -[#00796B]-&gt; ernie : \&quot;中文优化\&quot;\ndjango_services -[#FF9800]-&gt; coze : \&quot;复杂工作流\&quot;\n\n&#39; FastAPI专属通道\ndjango_api -[#0288D1]-&gt; fastapi_ws : \&quot;DeepSeek流式请求\&quot;\nfastapi_ws -[#1565C0]-&gt; deepseek : \&quot;高性能调用\&quot;\n\n&#39; 数据层连接\ndjango_services -[#388E3C]-&gt; mysql : \&quot;ORM\&quot;\nlangchain -[#689F38]-&gt; faiss : \&quot;向量检索\&quot;\n\n&#39; 模块排列\nsilicon -[hidden]-&gt; deepseek\ndeepseek -[hidden]-&gt; ernie\nernie -[hidden]-&gt; coze\n\n&#39; 外部用户\nactor User as user\nuser -[#E64A19]-&gt; django_api : \&quot;所有请求\\n(HTTP/REST)\&quot;\n\n&#39; 标注样式\nskinparam note {\n  BackgroundColor #FFF9C4\n  BorderColor #FFD600\n  FontColor #333333\n}\n\nnote right of django_api\n  &lt;color:#0277BD&gt;◼ 所有请求统一入口\n  ◼ 智能路由AI服务\n  ◼ 会话管理/限流\n  ◼ JWT认证鉴权&lt;/color&gt;\nend note\n\nnote left of fastapi_ws\n  &lt;color:#1565C0&gt;◼ 独占DeepSeek连接\n  ◼ WebSocket长连接\n  ◼ 高并发流式响应\n  ◼ 绕过Django业务逻辑&lt;/color&gt;\nend note\n\nnote bottom of \&quot;AI Integration Module\&quot;\n  &lt;color:#7B1FA2&gt;◼ SiliconFlow: SDXL/Stable Diffusion&lt;/color&gt;\n  &lt;color:#1565C0&gt;◼ DeepSeek: 核心文本生成&lt;/color&gt;\n  &lt;color:#00796B&gt;◼ ErnieBot: 中文领域增强&lt;/color&gt;\n  &lt;color:#FF9800&gt;◼ Coze: 多工具编排工作流&lt;/color&gt;\nend note\n@enduml&quot;,&#xa;  &quot;format&quot;: &quot;svg&quot;&#xa;}" id="rgclN-8iBo6ZPXDW5_Zl-53">
          <mxCell style="shape=image;noLabel=1;verticalAlign=top;aspect=fixed;imageAspect=0;image=data:image/svg+xml,PHN2ZyB4bWxucz0iaHR0cDovL3d3dy53My5vcmcvMjAwMC9zdmciIHhtbG5zOnhsaW5rPSJodHRwOi8vd3d3LnczLm9yZy8xOTk5L3hsaW5rIiBjb250ZW50U3R5bGVUeXBlPSJ0ZXh0L2NzcyIgZGF0YS1kaWFncmFtLXR5cGU9IkRFU0NSSVBUSU9OIiBoZWlnaHQ9IjkxOHB4IiBwcmVzZXJ2ZUFzcGVjdFJhdGlvPSJub25lIiBzdHlsZT0id2lkdGg6MTIyOHB4O2hlaWdodDo5MThweDtiYWNrZ3JvdW5kOiNGRkZGRkY7IiB2ZXJzaW9uPSIxLjEiIHZpZXdCb3g9IjAgMCAxMjI4IDkxOCIgd2lkdGg9IjEyMjhweCIgem9vbUFuZFBhbj0ibWFnbmlmeSI+PHRpdGxlPkFJICYjMzE5OTU7JiMzMjQ3OTsmIzIwOTk4OyYjMjM2MTg7JiMyNjU1MDsmIzI2NTAwOzwvdGl0bGU+PGRlZnMvPjxnPjx0ZXh0IGZpbGw9IiMwMDAwMDAiIGZvbnQtZmFtaWx5PSJzYW5zLXNlcmlmIiBmb250LXNpemU9IjE0IiBmb250LXdlaWdodD0iYm9sZCIgbGVuZ3RoQWRqdXN0PSJzcGFjaW5nIiB0ZXh0TGVuZ3RoPSIxMDUiIHg9IjU1NC41ODUiIHk9IjIzLjIzNDQiPkFJICYjMzE5OTU7JiMzMjQ3OTsmIzIwOTk4OyYjMjM2MTg7JiMyNjU1MDsmIzI2NTAwOzwvdGV4dD48dGV4dCBmaWxsPSIjMDAwMDAwIiBmb250LWZhbWlseT0ic2Fucy1zZXJpZiIgZm9udC1zaXplPSIxNCIgZm9udC13ZWlnaHQ9ImJvbGQiIGxlbmd0aEFkanVzdD0ic3BhY2luZyIgdGV4dExlbmd0aD0iMTg5IiB4PSI1MTIuNTg1IiB5PSIzOC4yMTg4Ij4oRGphbmdvICYjMzI0Nzk7JiMxOTk2ODsmIzM2MzM1OyYjMzAwMDE7JiMyNTE1MjsmIzI2Mzc3O0FJJiMyNjM4MTsmIzIxMTUzOyk8L3RleHQ+PCEtLWNsdXN0ZXIgQVBJIExheWVyLS0+PGcgY2xhc3M9ImNsdXN0ZXIiIGRhdGEtZW50aXR5PSJBUEkgTGF5ZXIiIGRhdGEtc291cmNlLWxpbmU9IjM0IiBkYXRhLXVpZD0iZW50MDAwMiIgaWQ9ImNsdXN0ZXJfQVBJIExheWVyIj48cGF0aCBkPSJNOTkuMTcsMTkxLjQ2ODggTDE2My4xNywxOTEuNDY4OCBBMy43NSwzLjc1IDAgMCAxIDE2NS42NywxOTMuOTY4OCBMMTcyLjY3LDIxMi40NTMxIEw0MTEuMTcsMjEyLjQ1MzEgQTIuNSwyLjUgMCAwIDEgNDEzLjY3LDIxNC45NTMxIEw0MTMuNjcsNDE3LjQ2ODggQTIuNSwyLjUgMCAwIDEgNDExLjE3LDQxOS45Njg4IEw5OS4xNyw0MTkuOTY4OCBBMi41LDIuNSAwIDAgMSA5Ni42Nyw0MTcuNDY4OCBMOTYuNjcsMTkzLjk2ODggQTIuNSwyLjUgMCAwIDEgOTkuMTcsMTkxLjQ2ODgiIGZpbGw9IiNCQkRFRkIiIHN0eWxlPSJzdHJva2U6IzMzMzMzMztzdHJva2Utd2lkdGg6MS41OyIvPjxsaW5lIHN0eWxlPSJzdHJva2U6IzMzMzMzMztzdHJva2Utd2lkdGg6MS41OyIgeDE9Ijk2LjY3IiB4Mj0iMTcyLjY3IiB5MT0iMjEyLjQ1MzEiIHkyPSIyMTIuNDUzMSIvPjx0ZXh0IGZpbGw9IiMzMzMzMzMiIGZvbnQtZmFtaWx5PSJzYW5zLXNlcmlmIiBmb250LXNpemU9IjE0IiBmb250LXdlaWdodD0iYm9sZCIgbGVuZ3RoQWRqdXN0PSJzcGFjaW5nIiB0ZXh0TGVuZ3RoPSI2MyIgeD0iMTAwLjY3IiB5PSIyMDYuNzAzMSI+QVBJIExheWVyPC90ZXh0PjwvZz48IS0tY2x1c3RlciBCdXNpbmVzcyBMb2dpYy0tPjxnIGNsYXNzPSJjbHVzdGVyIiBkYXRhLWVudGl0eT0iQnVzaW5lc3MgTG9naWMiIGRhdGEtc291cmNlLWxpbmU9IjQwIiBkYXRhLXVpZD0iZW50MDAwNiIgaWQ9ImNsdXN0ZXJfQnVzaW5lc3MgTG9naWMiPjxwYXRoIGQ9Ik00NDAuMTcsMzI1Ljk2ODggTDUzOS4xNywzMjUuOTY4OCBBMy43NSwzLjc1IDAgMCAxIDU0MS42NywzMjguNDY4OCBMNTQ4LjY3LDM0Ni45NTMxIEw5MjkuMTcsMzQ2Ljk1MzEgQTIuNSwyLjUgMCAwIDEgOTMxLjY3LDM0OS40NTMxIEw5MzEuNjcsOTA5LjQ2ODggQTIuNSwyLjUgMCAwIDEgOTI5LjE3LDkxMS45Njg4IEw0NDAuMTcsOTExLjk2ODggQTIuNSwyLjUgMCAwIDEgNDM3LjY3LDkwOS40Njg4IEw0MzcuNjcsMzI4LjQ2ODggQTIuNSwyLjUgMCAwIDEgNDQwLjE3LDMyNS45Njg4IiBmaWxsPSIjQzhFNkM5IiBzdHlsZT0ic3Ryb2tlOiMzMzMzMzM7c3Ryb2tlLXdpZHRoOjEuNTsiLz48bGluZSBzdHlsZT0ic3Ryb2tlOiMzMzMzMzM7c3Ryb2tlLXdpZHRoOjEuNTsiIHgxPSI0MzcuNjciIHgyPSI1NDguNjciIHkxPSIzNDYuOTUzMSIgeTI9IjM0Ni45NTMxIi8+PHRleHQgZmlsbD0iIzMzMzMzMyIgZm9udC1mYW1pbHk9InNhbnMtc2VyaWYiIGZvbnQtc2l6ZT0iMTQiIGZvbnQtd2VpZ2h0PSJib2xkIiBsZW5ndGhBZGp1c3Q9InNwYWNpbmciIHRleHRMZW5ndGg9Ijk4IiB4PSI0NDEuNjciIHk9IjM0MS4yMDMxIj5CdXNpbmVzcyBMb2dpYzwvdGV4dD48L2c+PCEtLWNsdXN0ZXIgQUkgSW50ZWdyYXRpb24gTW9kdWxlLS0+PGcgY2xhc3M9ImNsdXN0ZXIiIGRhdGEtZW50aXR5PSJBSSBJbnRlZ3JhdGlvbiBNb2R1bGUiIGRhdGEtc291cmNlLWxpbmU9IjQzIiBkYXRhLXVpZD0iZW50MDAwOCIgaWQ9ImNsdXN0ZXJfQUkgSW50ZWdyYXRpb24gTW9kdWxlIj48cGF0aCBkPSJNNTc5LjE3LDQ3NC45Njg4IEw3MjcuMTcsNDc0Ljk2ODggQTMuNzUsMy43NSAwIDAgMSA3MjkuNjcsNDc3LjQ2ODggTDczNi42Nyw0OTUuOTUzMSBMNzc0LjE3LDQ5NS45NTMxIEEyLjUsMi41IDAgMCAxIDc3Ni42Nyw0OTguNDUzMSBMNzc2LjY3LDg3Ny40Njg4IEEyLjUsMi41IDAgMCAxIDc3NC4xNyw4NzkuOTY4OCBMNTc5LjE3LDg3OS45Njg4IEEyLjUsMi41IDAgMCAxIDU3Ni42Nyw4NzcuNDY4OCBMNTc2LjY3LDQ3Ny40Njg4IEEyLjUsMi41IDAgMCAxIDU3OS4xNyw0NzQuOTY4OCIgZmlsbD0iI0Y1RjVGNSIgc3R5bGU9InN0cm9rZTojMzMzMzMzO3N0cm9rZS13aWR0aDoxLjU7Ii8+PGxpbmUgc3R5bGU9InN0cm9rZTojMzMzMzMzO3N0cm9rZS13aWR0aDoxLjU7IiB4MT0iNTc2LjY3IiB4Mj0iNzM2LjY3IiB5MT0iNDk1Ljk1MzEiIHkyPSI0OTUuOTUzMSIvPjx0ZXh0IGZpbGw9IiMzMzMzMzMiIGZvbnQtZmFtaWx5PSJzYW5zLXNlcmlmIiBmb250LXNpemU9IjE0IiBmb250LXdlaWdodD0iYm9sZCIgbGVuZ3RoQWRqdXN0PSJzcGFjaW5nIiB0ZXh0TGVuZ3RoPSIxNDciIHg9IjU4MC42NyIgeT0iNDkwLjIwMzEiPkFJIEludGVncmF0aW9uIE1vZHVsZTwvdGV4dD48dGV4dCBmaWxsPSIjMzMzMzMzIiBmb250LWZhbWlseT0ic2Fucy1zZXJpZiIgZm9udC1zaXplPSIxNCIgZm9udC1zdHlsZT0iaXRhbGljIiBsZW5ndGhBZGp1c3Q9InNwYWNpbmciIHRleHRMZW5ndGg9Ijc3IiB4PSI2NDIuMTciIHk9IjUxMS4xODc1Ij4mIzE3MTtyZWN0YW5nbGUmIzE4Nzs8L3RleHQ+PC9nPjwhLS1jbHVzdGVyIERhdGEgTGF5ZXItLT48ZyBjbGFzcz0iY2x1c3RlciIgZGF0YS1lbnRpdHk9IkRhdGEgTGF5ZXIiIGRhdGEtc291cmNlLWxpbmU9IjUzIiBkYXRhLXVpZD0iZW50MDAxNCIgaWQ9ImNsdXN0ZXJfRGF0YSBMYXllciI+PHBhdGggZD0iTTEyMS4xNyw0OTcuOTY4OCBMMTkyLjE3LDQ5Ny45Njg4IEEzLjc1LDMuNzUgMCAwIDEgMTk0LjY3LDUwMC40Njg4IEwyMDEuNjcsNTE4Ljk1MzEgTDQxMS4xNyw1MTguOTUzMSBBMi41LDIuNSAwIDAgMSA0MTMuNjcsNTIxLjQ1MzEgTDQxMy42Nyw1ODkuNDY4OCBBMi41LDIuNSAwIDAgMSA0MTEuMTcsNTkxLjk2ODggTDEyMS4xNyw1OTEuOTY4OCBBMi41LDIuNSAwIDAgMSAxMTguNjcsNTg5LjQ2ODggTDExOC42Nyw1MDAuNDY4OCBBMi41LDIuNSAwIDAgMSAxMjEuMTcsNDk3Ljk2ODgiIGZpbGw9IiNCQkRFRkIiIHN0eWxlPSJzdHJva2U6IzMzMzMzMztzdHJva2Utd2lkdGg6MS41OyIvPjxsaW5lIHN0eWxlPSJzdHJva2U6IzMzMzMzMztzdHJva2Utd2lkdGg6MS41OyIgeDE9IjExOC42NyIgeDI9IjIwMS42NyIgeTE9IjUxOC45NTMxIiB5Mj0iNTE4Ljk1MzEiLz48dGV4dCBmaWxsPSIjMzMzMzMzIiBmb250LWZhbWlseT0ic2Fucy1zZXJpZiIgZm9udC1zaXplPSIxNCIgZm9udC13ZWlnaHQ9ImJvbGQiIGxlbmd0aEFkanVzdD0ic3BhY2luZyIgdGV4dExlbmd0aD0iNzAiIHg9IjEyMi42NyIgeT0iNTEzLjIwMzEiPkRhdGEgTGF5ZXI8L3RleHQ+PC9nPjwhLS1lbnRpdHkgZGphbmdvX2FwaS0tPjxnIGNsYXNzPSJlbnRpdHkiIGRhdGEtZW50aXR5PSJkamFuZ29fYXBpIiBkYXRhLXNvdXJjZS1saW5lPSIzNSIgZGF0YS11aWQ9ImVudDAwMDMiIGlkPSJlbnRpdHlfZGphbmdvX2FwaSI+PHJlY3QgZmlsbD0iIzRGQzNGNyIgaGVpZ2h0PSI0NC45ODQ0IiByeD0iMi41IiByeT0iMi41IiBzdHlsZT0ic3Ryb2tlOiMxODE4MTg7c3Ryb2tlLXdpZHRoOjAuNTsiIHdpZHRoPSIxNDUiIHg9IjIyNi4xNyIgeT0iMjI0LjQ2ODgiLz48cmVjdCBmaWxsPSIjNEZDM0Y3IiBoZWlnaHQ9IjEwIiBzdHlsZT0ic3Ryb2tlOiMxODE4MTg7c3Ryb2tlLXdpZHRoOjAuNTsiIHdpZHRoPSIxNSIgeD0iMzUxLjE3IiB5PSIyMjkuNDY4OCIvPjxyZWN0IGZpbGw9IiM0RkMzRjciIGhlaWdodD0iMiIgc3R5bGU9InN0cm9rZTojMTgxODE4O3N0cm9rZS13aWR0aDowLjU7IiB3aWR0aD0iNCIgeD0iMzQ5LjE3IiB5PSIyMzEuNDY4OCIvPjxyZWN0IGZpbGw9IiM0RkMzRjciIGhlaWdodD0iMiIgc3R5bGU9InN0cm9rZTojMTgxODE4O3N0cm9rZS13aWR0aDowLjU7IiB3aWR0aD0iNCIgeD0iMzQ5LjE3IiB5PSIyMzUuNDY4OCIvPjx0ZXh0IGZpbGw9IiMwMDAwMDAiIGZvbnQtZmFtaWx5PSJzYW5zLXNlcmlmIiBmb250LXNpemU9IjE0IiBsZW5ndGhBZGp1c3Q9InNwYWNpbmciIHRleHRMZW5ndGg9IjEwNSIgeD0iMjQxLjE3IiB5PSIyNTcuNzAzMSI+RGphbmdvIFJFU1QgQVBJPC90ZXh0PjwvZz48IS0tZW50aXR5IGZhc3RhcGlfd3MtLT48ZyBjbGFzcz0iZW50aXR5IiBkYXRhLWVudGl0eT0iZmFzdGFwaV93cyIgZGF0YS1zb3VyY2UtbGluZT0iMzYiIGRhdGEtdWlkPSJlbnQwMDA0IiBpZD0iZW50aXR5X2Zhc3RhcGlfd3MiPjxyZWN0IGZpbGw9IiM0RkMzRjciIGhlaWdodD0iNDQuOTg0NCIgcng9IjIuNSIgcnk9IjIuNSIgc3R5bGU9InN0cm9rZTojMTgxODE4O3N0cm9rZS13aWR0aDowLjU7IiB3aWR0aD0iMTU5IiB4PSIyMzkuMTciIHk9IjM1OC45Njg4Ii8+PHJlY3QgZmlsbD0iIzRGQzNGNyIgaGVpZ2h0PSIxMCIgc3R5bGU9InN0cm9rZTojMTgxODE4O3N0cm9rZS13aWR0aDowLjU7IiB3aWR0aD0iMTUiIHg9IjM3OC4xNyIgeT0iMzYzLjk2ODgiLz48cmVjdCBmaWxsPSIjNEZDM0Y3IiBoZWlnaHQ9IjIiIHN0eWxlPSJzdHJva2U6IzE4MTgxODtzdHJva2Utd2lkdGg6MC41OyIgd2lkdGg9IjQiIHg9IjM3Ni4xNyIgeT0iMzY1Ljk2ODgiLz48cmVjdCBmaWxsPSIjNEZDM0Y3IiBoZWlnaHQ9IjIiIHN0eWxlPSJzdHJva2U6IzE4MTgxODtzdHJva2Utd2lkdGg6MC41OyIgd2lkdGg9IjQiIHg9IjM3Ni4xNyIgeT0iMzY5Ljk2ODgiLz48dGV4dCBmaWxsPSIjMDAwMDAwIiBmb250LWZhbWlseT0ic2Fucy1zZXJpZiIgZm9udC1zaXplPSIxNCIgbGVuZ3RoQWRqdXN0PSJzcGFjaW5nIiB0ZXh0TGVuZ3RoPSIxMTkiIHg9IjI1NC4xNyIgeT0iMzkyLjIwMzEiPkZhc3RBUEkgV2ViU29ja2V0PC90ZXh0PjwvZz48IS0tZW50aXR5IGp3dC0tPjxnIGNsYXNzPSJlbnRpdHkiIGRhdGEtZW50aXR5PSJqd3QiIGRhdGEtc291cmNlLWxpbmU9IjM3IiBkYXRhLXVpZD0iZW50MDAwNSIgaWQ9ImVudGl0eV9qd3QiPjxwYXRoIGQ9Ik0xMTIuNjcsMzY5LjQ2ODggQzExMi42NywzNTkuNDY4OCAxNTAuNjcsMzU5LjQ2ODggMTUwLjY3LDM1OS40Njg4IEMxNTAuNjcsMzU5LjQ2ODggMTg4LjY3LDM1OS40Njg4IDE4OC42NywzNjkuNDY4OCBMMTg4LjY3LDM5My40NTMxIEMxODguNjcsNDAzLjQ1MzEgMTUwLjY3LDQwMy40NTMxIDE1MC42Nyw0MDMuNDUzMSBDMTUwLjY3LDQwMy40NTMxIDExMi42Nyw0MDMuNDUzMSAxMTIuNjcsMzkzLjQ1MzEgTDExMi42NywzNjkuNDY4OCIgZmlsbD0iI0UzRjJGRCIgc3R5bGU9InN0cm9rZTojMTk3NkQyO3N0cm9rZS13aWR0aDowLjU7Ii8+PHBhdGggZD0iTTExMi42NywzNjkuNDY4OCBDMTEyLjY3LDM3OS40Njg4IDE1MC42NywzNzkuNDY4OCAxNTAuNjcsMzc5LjQ2ODggQzE1MC42NywzNzkuNDY4OCAxODguNjcsMzc5LjQ2ODggMTg4LjY3LDM2OS40Njg4IiBmaWxsPSJub25lIiBzdHlsZT0ic3Ryb2tlOiMxOTc2RDI7c3Ryb2tlLXdpZHRoOjAuNTsiLz48dGV4dCBmaWxsPSIjMDAwMDAwIiBmb250LWZhbWlseT0ic2Fucy1zZXJpZiIgZm9udC1zaXplPSIxNCIgbGVuZ3RoQWRqdXN0PSJzcGFjaW5nIiB0ZXh0TGVuZ3RoPSI1NiIgeD0iMTIyLjY3IiB5PSIzOTYuNzAzMSI+SldUIEF1dGg8L3RleHQ+PC9nPjwhLS1lbnRpdHkgZGphbmdvX3NlcnZpY2VzLS0+PGcgY2xhc3M9ImVudGl0eSIgZGF0YS1lbnRpdHk9ImRqYW5nb19zZXJ2aWNlcyIgZGF0YS1zb3VyY2UtbGluZT0iNDEiIGRhdGEtdWlkPSJlbnQwMDA3IiBpZD0iZW50aXR5X2RqYW5nb19zZXJ2aWNlcyI+PHJlY3QgZmlsbD0iIzgxQzc4NCIgaGVpZ2h0PSI0NC45ODQ0IiByeD0iMi41IiByeT0iMi41IiBzdHlsZT0ic3Ryb2tlOiMxODE4MTg7c3Ryb2tlLXdpZHRoOjAuNTsiIHdpZHRoPSIxNDUiIHg9IjY3MC4xNyIgeT0iMzU4Ljk2ODgiLz48cmVjdCBmaWxsPSIjODFDNzg0IiBoZWlnaHQ9IjEwIiBzdHlsZT0ic3Ryb2tlOiMxODE4MTg7c3Ryb2tlLXdpZHRoOjAuNTsiIHdpZHRoPSIxNSIgeD0iNzk1LjE3IiB5PSIzNjMuOTY4OCIvPjxyZWN0IGZpbGw9IiM4MUM3ODQiIGhlaWdodD0iMiIgc3R5bGU9InN0cm9rZTojMTgxODE4O3N0cm9rZS13aWR0aDowLjU7IiB3aWR0aD0iNCIgeD0iNzkzLjE3IiB5PSIzNjUuOTY4OCIvPjxyZWN0IGZpbGw9IiM4MUM3ODQiIGhlaWdodD0iMiIgc3R5bGU9InN0cm9rZTojMTgxODE4O3N0cm9rZS13aWR0aDowLjU7IiB3aWR0aD0iNCIgeD0iNzkzLjE3IiB5PSIzNjkuOTY4OCIvPjx0ZXh0IGZpbGw9IiMwMDAwMDAiIGZvbnQtZmFtaWx5PSJzYW5zLXNlcmlmIiBmb250LXNpemU9IjE0IiBsZW5ndGhBZGp1c3Q9InNwYWNpbmciIHRleHRMZW5ndGg9IjEwNSIgeD0iNjg1LjE3IiB5PSIzOTIuMjAzMSI+RGphbmdvIFNlcnZpY2VzPC90ZXh0PjwvZz48IS0tZW50aXR5IGxhbmdjaGFpbi0tPjxnIGNsYXNzPSJlbnRpdHkiIGRhdGEtZW50aXR5PSJsYW5nY2hhaW4iIGRhdGEtc291cmNlLWxpbmU9IjUwIiBkYXRhLXVpZD0iZW50MDAxMyIgaWQ9ImVudGl0eV9sYW5nY2hhaW4iPjxyZWN0IGZpbGw9IiM4MUM3ODQiIGhlaWdodD0iNDQuOTg0NCIgcng9IjIuNSIgcnk9IjIuNSIgc3R5bGU9InN0cm9rZTojMTgxODE4O3N0cm9rZS13aWR0aDowLjU7IiB3aWR0aD0iMTY2IiB4PSI0NTMuNjciIHk9IjM1OC45Njg4Ii8+PHJlY3QgZmlsbD0iIzgxQzc4NCIgaGVpZ2h0PSIxMCIgc3R5bGU9InN0cm9rZTojMTgxODE4O3N0cm9rZS13aWR0aDowLjU7IiB3aWR0aD0iMTUiIHg9IjU5OS42NyIgeT0iMzYzLjk2ODgiLz48cmVjdCBmaWxsPSIjODFDNzg0IiBoZWlnaHQ9IjIiIHN0eWxlPSJzdHJva2U6IzE4MTgxODtzdHJva2Utd2lkdGg6MC41OyIgd2lkdGg9IjQiIHg9IjU5Ny42NyIgeT0iMzY1Ljk2ODgiLz48cmVjdCBmaWxsPSIjODFDNzg0IiBoZWlnaHQ9IjIiIHN0eWxlPSJzdHJva2U6IzE4MTgxODtzdHJva2Utd2lkdGg6MC41OyIgd2lkdGg9IjQiIHg9IjU5Ny42NyIgeT0iMzY5Ljk2ODgiLz48dGV4dCBmaWxsPSIjMDAwMDAwIiBmb250LWZhbWlseT0ic2Fucy1zZXJpZiIgZm9udC1zaXplPSIxNCIgbGVuZ3RoQWRqdXN0PSJzcGFjaW5nIiB0ZXh0TGVuZ3RoPSIxMjYiIHg9IjQ2OC42NyIgeT0iMzkyLjIwMzEiPkxhbmdDaGFpbiBXb3JrZmxvdzwvdGV4dD48L2c+PCEtLWVudGl0eSBzaWxpY29uLS0+PGcgY2xhc3M9ImVudGl0eSIgZGF0YS1lbnRpdHk9InNpbGljb24iIGRhdGEtc291cmNlLWxpbmU9IjQ0IiBkYXRhLXVpZD0iZW50MDAwOSIgaWQ9ImVudGl0eV9zaWxpY29uIj48cmVjdCBmaWxsPSIjQkE2OEM4IiBoZWlnaHQ9IjQ0Ljk4NDQiIHJ4PSIyLjUiIHJ5PSIyLjUiIHN0eWxlPSJzdHJva2U6IzE4MTgxODtzdHJva2Utd2lkdGg6MC41OyIgd2lkdGg9IjExNyIgeD0iNjAxLjE3IiB5PSI1MzAuOTY4OCIvPjxyZWN0IGZpbGw9IiNCQTY4QzgiIGhlaWdodD0iMTAiIHN0eWxlPSJzdHJva2U6IzE4MTgxODtzdHJva2Utd2lkdGg6MC41OyIgd2lkdGg9IjE1IiB4PSI2OTguMTciIHk9IjUzNS45Njg4Ii8+PHJlY3QgZmlsbD0iI0JBNjhDOCIgaGVpZ2h0PSIyIiBzdHlsZT0ic3Ryb2tlOiMxODE4MTg7c3Ryb2tlLXdpZHRoOjAuNTsiIHdpZHRoPSI0IiB4PSI2OTYuMTciIHk9IjUzNy45Njg4Ii8+PHJlY3QgZmlsbD0iI0JBNjhDOCIgaGVpZ2h0PSIyIiBzdHlsZT0ic3Ryb2tlOiMxODE4MTg7c3Ryb2tlLXdpZHRoOjAuNTsiIHdpZHRoPSI0IiB4PSI2OTYuMTciIHk9IjU0MS45Njg4Ii8+PHRleHQgZmlsbD0iIzAwMDAwMCIgZm9udC1mYW1pbHk9InNhbnMtc2VyaWYiIGZvbnQtc2l6ZT0iMTQiIGxlbmd0aEFkanVzdD0ic3BhY2luZyIgdGV4dExlbmd0aD0iNzciIHg9IjYxNi4xNyIgeT0iNTY0LjIwMzEiPlNpbGljb25GbG93PC90ZXh0PjwvZz48IS0tZW50aXR5IGRlZXBzZWVrLS0+PGcgY2xhc3M9ImVudGl0eSIgZGF0YS1lbnRpdHk9ImRlZXBzZWVrIiBkYXRhLXNvdXJjZS1saW5lPSI0NSIgZGF0YS11aWQ9ImVudDAwMTAiIGlkPSJlbnRpdHlfZGVlcHNlZWsiPjxyZWN0IGZpbGw9IiM2NEI1RjYiIGhlaWdodD0iNDQuOTg0NCIgcng9IjIuNSIgcnk9IjIuNSIgc3R5bGU9InN0cm9rZTojMTgxODE4O3N0cm9rZS13aWR0aDowLjU7IiB3aWR0aD0iOTYiIHg9IjYwMC42NyIgeT0iNjQ4LjQ2ODgiLz48cmVjdCBmaWxsPSIjNjRCNUY2IiBoZWlnaHQ9IjEwIiBzdHlsZT0ic3Ryb2tlOiMxODE4MTg7c3Ryb2tlLXdpZHRoOjAuNTsiIHdpZHRoPSIxNSIgeD0iNjc2LjY3IiB5PSI2NTMuNDY4OCIvPjxyZWN0IGZpbGw9IiM2NEI1RjYiIGhlaWdodD0iMiIgc3R5bGU9InN0cm9rZTojMTgxODE4O3N0cm9rZS13aWR0aDowLjU7IiB3aWR0aD0iNCIgeD0iNjc0LjY3IiB5PSI2NTUuNDY4OCIvPjxyZWN0IGZpbGw9IiM2NEI1RjYiIGhlaWdodD0iMiIgc3R5bGU9InN0cm9rZTojMTgxODE4O3N0cm9rZS13aWR0aDowLjU7IiB3aWR0aD0iNCIgeD0iNjc0LjY3IiB5PSI2NTkuNDY4OCIvPjx0ZXh0IGZpbGw9IiMwMDAwMDAiIGZvbnQtZmFtaWx5PSJzYW5zLXNlcmlmIiBmb250LXNpemU9IjE0IiBsZW5ndGhBZGp1c3Q9InNwYWNpbmciIHRleHRMZW5ndGg9IjU2IiB4PSI2MTUuNjciIHk9IjY4MS43MDMxIj5EZWVwU2VlazwvdGV4dD48L2c+PCEtLWVudGl0eSBlcm5pZS0tPjxnIGNsYXNzPSJlbnRpdHkiIGRhdGEtZW50aXR5PSJlcm5pZSIgZGF0YS1zb3VyY2UtbGluZT0iNDYiIGRhdGEtdWlkPSJlbnQwMDExIiBpZD0iZW50aXR5X2VybmllIj48cmVjdCBmaWxsPSIjNERCNkFDIiBoZWlnaHQ9IjQ0Ljk4NDQiIHJ4PSIyLjUiIHJ5PSIyLjUiIHN0eWxlPSJzdHJva2U6IzE4MTgxODtzdHJva2Utd2lkdGg6MC41OyIgd2lkdGg9Ijk2IiB4PSI2MTguNjciIHk9IjczNC45Njg4Ii8+PHJlY3QgZmlsbD0iIzREQjZBQyIgaGVpZ2h0PSIxMCIgc3R5bGU9InN0cm9rZTojMTgxODE4O3N0cm9rZS13aWR0aDowLjU7IiB3aWR0aD0iMTUiIHg9IjY5NC42NyIgeT0iNzM5Ljk2ODgiLz48cmVjdCBmaWxsPSIjNERCNkFDIiBoZWlnaHQ9IjIiIHN0eWxlPSJzdHJva2U6IzE4MTgxODtzdHJva2Utd2lkdGg6MC41OyIgd2lkdGg9IjQiIHg9IjY5Mi42NyIgeT0iNzQxLjk2ODgiLz48cmVjdCBmaWxsPSIjNERCNkFDIiBoZWlnaHQ9IjIiIHN0eWxlPSJzdHJva2U6IzE4MTgxODtzdHJva2Utd2lkdGg6MC41OyIgd2lkdGg9IjQiIHg9IjY5Mi42NyIgeT0iNzQ1Ljk2ODgiLz48dGV4dCBmaWxsPSIjMDAwMDAwIiBmb250LWZhbWlseT0ic2Fucy1zZXJpZiIgZm9udC1zaXplPSIxNCIgbGVuZ3RoQWRqdXN0PSJzcGFjaW5nIiB0ZXh0TGVuZ3RoPSI1NiIgeD0iNjMzLjY3IiB5PSI3NjguMjAzMSI+RXJuaWVCb3Q8L3RleHQ+PC9nPjwhLS1lbnRpdHkgY296ZS0tPjxnIGNsYXNzPSJlbnRpdHkiIGRhdGEtZW50aXR5PSJjb3plIiBkYXRhLXNvdXJjZS1saW5lPSI0NyIgZGF0YS11aWQ9ImVudDAwMTIiIGlkPSJlbnRpdHlfY296ZSI+PHJlY3QgZmlsbD0iI0ZGQjc0RCIgaGVpZ2h0PSI0NC45ODQ0IiByeD0iMi41IiByeT0iMi41IiBzdHlsZT0ic3Ryb2tlOiMxODE4MTg7c3Ryb2tlLXdpZHRoOjAuNTsiIHdpZHRoPSIxMzEiIHg9IjYwMS4xNyIgeT0iODEwLjk2ODgiLz48cmVjdCBmaWxsPSIjRkZCNzREIiBoZWlnaHQ9IjEwIiBzdHlsZT0ic3Ryb2tlOiMxODE4MTg7c3Ryb2tlLXdpZHRoOjAuNTsiIHdpZHRoPSIxNSIgeD0iNzEyLjE3IiB5PSI4MTUuOTY4OCIvPjxyZWN0IGZpbGw9IiNGRkI3NEQiIGhlaWdodD0iMiIgc3R5bGU9InN0cm9rZTojMTgxODE4O3N0cm9rZS13aWR0aDowLjU7IiB3aWR0aD0iNCIgeD0iNzEwLjE3IiB5PSI4MTcuOTY4OCIvPjxyZWN0IGZpbGw9IiNGRkI3NEQiIGhlaWdodD0iMiIgc3R5bGU9InN0cm9rZTojMTgxODE4O3N0cm9rZS13aWR0aDowLjU7IiB3aWR0aD0iNCIgeD0iNzEwLjE3IiB5PSI4MjEuOTY4OCIvPjx0ZXh0IGZpbGw9IiMwMDAwMDAiIGZvbnQtZmFtaWx5PSJzYW5zLXNlcmlmIiBmb250LXNpemU9IjE0IiBsZW5ndGhBZGp1c3Q9InNwYWNpbmciIHRleHRMZW5ndGg9IjkxIiB4PSI2MTYuMTciIHk9Ijg0NC4yMDMxIj5Db3plIFdvcmtmbG93PC90ZXh0PjwvZz48IS0tZW50aXR5IG15c3FsLS0+PGcgY2xhc3M9ImVudGl0eSIgZGF0YS1lbnRpdHk9Im15c3FsIiBkYXRhLXNvdXJjZS1saW5lPSI1NCIgZGF0YS11aWQ9ImVudDAwMTUiIGlkPSJlbnRpdHlfbXlzcWwiPjxyZWN0IGZpbGw9IiNGMUYxRjEiIGhlaWdodD0iNDQuOTg0NCIgcng9IjIuNSIgcnk9IjIuNSIgc3R5bGU9InN0cm9rZTojMTgxODE4O3N0cm9rZS13aWR0aDowLjU7IiB3aWR0aD0iNzUiIHg9IjMyMy4xNyIgeT0iNTMwLjk2ODgiLz48cmVjdCBmaWxsPSIjRjFGMUYxIiBoZWlnaHQ9IjEwIiBzdHlsZT0ic3Ryb2tlOiMxODE4MTg7c3Ryb2tlLXdpZHRoOjAuNTsiIHdpZHRoPSIxNSIgeD0iMzc4LjE3IiB5PSI1MzUuOTY4OCIvPjxyZWN0IGZpbGw9IiNGMUYxRjEiIGhlaWdodD0iMiIgc3R5bGU9InN0cm9rZTojMTgxODE4O3N0cm9rZS13aWR0aDowLjU7IiB3aWR0aD0iNCIgeD0iMzc2LjE3IiB5PSI1MzcuOTY4OCIvPjxyZWN0IGZpbGw9IiNGMUYxRjEiIGhlaWdodD0iMiIgc3R5bGU9InN0cm9rZTojMTgxODE4O3N0cm9rZS13aWR0aDowLjU7IiB3aWR0aD0iNCIgeD0iMzc2LjE3IiB5PSI1NDEuOTY4OCIvPjx0ZXh0IGZpbGw9IiMwMDAwMDAiIGZvbnQtZmFtaWx5PSJzYW5zLXNlcmlmIiBmb250LXNpemU9IjE0IiBsZW5ndGhBZGp1c3Q9InNwYWNpbmciIHRleHRMZW5ndGg9IjM1IiB4PSIzMzguMTciIHk9IjU2NC4yMDMxIj5NeVNRTDwvdGV4dD48L2c+PCEtLWVudGl0eSBmYWlzcy0tPjxnIGNsYXNzPSJlbnRpdHkiIGRhdGEtZW50aXR5PSJmYWlzcyIgZGF0YS1zb3VyY2UtbGluZT0iNTUiIGRhdGEtdWlkPSJlbnQwMDE2IiBpZD0iZW50aXR5X2ZhaXNzIj48cmVjdCBmaWxsPSIjRjFGMUYxIiBoZWlnaHQ9IjQ0Ljk4NDQiIHJ4PSIyLjUiIHJ5PSIyLjUiIHN0eWxlPSJzdHJva2U6IzE4MTgxODtzdHJva2Utd2lkdGg6MC41OyIgd2lkdGg9IjEzOCIgeD0iMTM0LjY3IiB5PSI1MzAuOTY4OCIvPjxyZWN0IGZpbGw9IiNGMUYxRjEiIGhlaWdodD0iMTAiIHN0eWxlPSJzdHJva2U6IzE4MTgxODtzdHJva2Utd2lkdGg6MC41OyIgd2lkdGg9IjE1IiB4PSIyNTIuNjciIHk9IjUzNS45Njg4Ii8+PHJlY3QgZmlsbD0iI0YxRjFGMSIgaGVpZ2h0PSIyIiBzdHlsZT0ic3Ryb2tlOiMxODE4MTg7c3Ryb2tlLXdpZHRoOjAuNTsiIHdpZHRoPSI0IiB4PSIyNTAuNjciIHk9IjUzNy45Njg4Ii8+PHJlY3QgZmlsbD0iI0YxRjFGMSIgaGVpZ2h0PSIyIiBzdHlsZT0ic3Ryb2tlOiMxODE4MTg7c3Ryb2tlLXdpZHRoOjAuNTsiIHdpZHRoPSI0IiB4PSIyNTAuNjciIHk9IjU0MS45Njg4Ii8+PHRleHQgZmlsbD0iIzAwMDAwMCIgZm9udC1mYW1pbHk9InNhbnMtc2VyaWYiIGZvbnQtc2l6ZT0iMTQiIGxlbmd0aEFkanVzdD0ic3BhY2luZyIgdGV4dExlbmd0aD0iOTgiIHg9IjE0OS42NyIgeT0iNTY0LjIwMzEiPkZBSVNTIFZlY3RvckRCPC90ZXh0PjwvZz48IS0tZW50aXR5IHVzZXItLT48ZyBjbGFzcz0iZW50aXR5IiBkYXRhLWVudGl0eT0idXNlciIgZGF0YS1zb3VyY2UtbGluZT0iODgiIGRhdGEtdWlkPSJlbnQwMDMwIiBpZD0iZW50aXR5X3VzZXIiPjxlbGxpcHNlIGN4PSIyOTguNjciIGN5PSI2NC45Njg4IiBmaWxsPSIjRkZGM0UwIiByeD0iOCIgcnk9IjgiIHN0eWxlPSJzdHJva2U6I0U2NEExOTtzdHJva2Utd2lkdGg6MC41OyIvPjxwYXRoIGQ9Ik0yOTguNjcsNzIuOTY4OCBMMjk4LjY3LDk5Ljk2ODggTTI4NS42Nyw4MC45Njg4IEwzMTEuNjcsODAuOTY4OCBNMjk4LjY3LDk5Ljk2ODggTDI4NS42NywxMTQuOTY4OCBNMjk4LjY3LDk5Ljk2ODggTDMxMS42NywxMTQuOTY4OCIgZmlsbD0ibm9uZSIgc3R5bGU9InN0cm9rZTojRTY0QTE5O3N0cm9rZS13aWR0aDowLjU7Ii8+PHRleHQgZmlsbD0iIzAwMDAwMCIgZm9udC1mYW1pbHk9InNhbnMtc2VyaWYiIGZvbnQtc2l6ZT0iMTQiIGxlbmd0aEFkanVzdD0ic3BhY2luZyIgdGV4dExlbmd0aD0iMjgiIHg9IjI4NC42NyIgeT0iMTI5LjcwMzEiPlVzZXI8L3RleHQ+PC9nPjxnIGNsYXNzPSJlbnRpdHkiIGRhdGEtZW50aXR5PSJHTU4zMiIgZGF0YS1zb3VyY2UtbGluZT0iOTkiIGRhdGEtdWlkPSJlbnQwMDMzIiBpZD0iZW50aXR5X0dNTjMyIj48cGF0aCBkPSJNNDI5LjY3LDIxMy45Njg4IEw0MjkuNjcsMjQyLjk2ODggTDM3MS4yNywyNDYuOTY4OCBMNDI5LjY3LDI1MC45Njg4IEw0MjkuNjcsMjc5LjYyNSBBMCwwIDAgMCAwIDQyOS42NywyNzkuNjI1IEw1ODcuMTcsMjc5LjYyNSBBMCwwIDAgMCAwIDU4Ny4xNywyNzkuNjI1IEw1ODcuMTcsMjIzLjk2ODggTDU3Ny4xNywyMTMuOTY4OCBMNDI5LjY3LDIxMy45Njg4IEEwLDAgMCAwIDAgNDI5LjY3LDIxMy45Njg4IiBmaWxsPSIjRkZGOUM0IiBzdHlsZT0ic3Ryb2tlOiNGRkQ2MDA7c3Ryb2tlLXdpZHRoOjAuNTsiLz48cGF0aCBkPSJNNTc3LjE3LDIxMy45Njg4IEw1NzcuMTcsMjIzLjk2ODggTDU4Ny4xNywyMjMuOTY4OCBMNTc3LjE3LDIxMy45Njg4IiBmaWxsPSIjRkZGOUM0IiBzdHlsZT0ic3Ryb2tlOiNGRkQ2MDA7c3Ryb2tlLXdpZHRoOjAuNTsiLz48dGV4dCBmaWxsPSIjMDI3N0JEIiBmb250LWZhbWlseT0ic2Fucy1zZXJpZiIgZm9udC1zaXplPSIxMyIgbGVuZ3RoQWRqdXN0PSJzcGFjaW5nIiB0ZXh0TGVuZ3RoPSIxMTciIHg9IjQzNS42NyIgeT0iMjMxLjI1NzgiPiYjOTcyNDsgJiMyNTE1MjsmIzI2Mzc3OyYjMzU4MzE7JiMyNzcxNDsmIzMyNDc5OyYjMTk5Njg7JiMyMDgzNzsmIzIxNDc1OzwvdGV4dD48dGV4dCBmaWxsPSIjMzMzMzMzIiBmb250LWZhbWlseT0ic2Fucy1zZXJpZiIgZm9udC1zaXplPSIxMyIgbGVuZ3RoQWRqdXN0PSJzcGFjaW5nIiB0ZXh0TGVuZ3RoPSIxMDQiIHg9IjQzNS42NyIgeT0iMjQ1LjE3MTkiPiYjOTcyNDsgJiMyNjIzNDsmIzMzMDIxOyYjMzYzMzU7JiMzMDAwMTtBSSYjMjYzODE7JiMyMTE1Mzs8L3RleHQ+PHRleHQgZmlsbD0iIzMzMzMzMyIgZm9udC1mYW1pbHk9InNhbnMtc2VyaWYiIGZvbnQtc2l6ZT0iMTMiIGxlbmd0aEFkanVzdD0ic3BhY2luZyIgdGV4dExlbmd0aD0iOTcuNSIgeD0iNDM1LjY3IiB5PSIyNTkuMDg1OSI+JiM5NzI0OyAmIzIwMjUwOyYjMzU4MDU7JiMzMTY0OTsmIzI5NzAyOy8mIzM4NDgwOyYjMjc5Njk7PC90ZXh0Pjx0ZXh0IGZpbGw9IiMzMzMzMzMiIGZvbnQtZmFtaWx5PSJzYW5zLXNlcmlmIiBmb250LXNpemU9IjEzIiBsZW5ndGhBZGp1c3Q9InNwYWNpbmciIHRleHRMZW5ndGg9IjEzNi41IiB4PSI0MzUuNjciIHk9IjI3MyI+JiM5NzI0OyBKV1QmIzM1NzQ4OyYjMzU3Nzc7JiMzNzQ5MjsmIzI2NDM1OyZsdDsvY29sb3ImZ3Q7PC90ZXh0PjwvZz48ZyBjbGFzcz0iZW50aXR5IiBkYXRhLWVudGl0eT0iR01OMzUiIGRhdGEtc291cmNlLWxpbmU9IjEwNiIgZGF0YS11aWQ9ImVudDAwMzYiIGlkPSJlbnRpdHlfR01OMzUiPjxwYXRoIGQ9Ik05NDcuMTcsMzQ4LjQ2ODggTDk0Ny4xNyw0MTQuMTI1IEwxMTUwLjE3LDQxNC4xMjUgTDExNTAuMTcsMzU4LjQ2ODggTDExNDAuMTcsMzQ4LjQ2ODggTDk0Ny4xNywzNDguNDY4OCIgZmlsbD0iI0ZGRjlDNCIgc3R5bGU9InN0cm9rZTojRkZENjAwO3N0cm9rZS13aWR0aDowLjU7Ii8+PHBhdGggZD0iTTExNDAuMTcsMzQ4LjQ2ODggTDExNDAuMTcsMzU4LjQ2ODggTDExNTAuMTcsMzU4LjQ2ODggTDExNDAuMTcsMzQ4LjQ2ODgiIGZpbGw9IiNGRkY5QzQiIHN0eWxlPSJzdHJva2U6I0ZGRDYwMDtzdHJva2Utd2lkdGg6MTsiLz48dGV4dCBmaWxsPSIjMTU2NUMwIiBmb250LWZhbWlseT0ic2Fucy1zZXJpZiIgZm9udC1zaXplPSIxMyIgbGVuZ3RoQWRqdXN0PSJzcGFjaW5nIiB0ZXh0TGVuZ3RoPSIxMTciIHg9Ijk1My4xNyIgeT0iMzY1Ljc1NzgiPiYjOTcyNDsgJiMyOTQyMDsmIzIxMzQ0O0RlZXBTZWVrJiMzNjgzMDsmIzI1NTA5OzwvdGV4dD48dGV4dCBmaWxsPSIjMzMzMzMzIiBmb250LWZhbWlseT0ic2Fucy1zZXJpZiIgZm9udC1zaXplPSIxMyIgbGVuZ3RoQWRqdXN0PSJzcGFjaW5nIiB0ZXh0TGVuZ3RoPSIxMTAuNSIgeD0iOTUzLjE3IiB5PSIzNzkuNjcxOSI+JiM5NzI0OyBXZWJTb2NrZXQmIzM4MjcxOyYjMzY4MzA7JiMyNTUwOTs8L3RleHQ+PHRleHQgZmlsbD0iIzMzMzMzMyIgZm9udC1mYW1pbHk9InNhbnMtc2VyaWYiIGZvbnQtc2l6ZT0iMTMiIGxlbmd0aEFkanVzdD0ic3BhY2luZyIgdGV4dExlbmd0aD0iMTA0IiB4PSI5NTMuMTciIHk9IjM5My41ODU5Ij4mIzk3MjQ7ICYjMzk2NDA7JiMyNDE4MjsmIzIxNDU3OyYjMjc5Njk7JiMyNDMzNTsmIzIxNzA5OyYjMjQyMTI7PC90ZXh0Pjx0ZXh0IGZpbGw9IiMzMzMzMzMiIGZvbnQtZmFtaWx5PSJzYW5zLXNlcmlmIiBmb250LXNpemU9IjEzIiBsZW5ndGhBZGp1c3Q9InNwYWNpbmciIHRleHRMZW5ndGg9IjE4MiIgeD0iOTUzLjE3IiB5PSI0MDcuNSI+JiM5NzI0OyAmIzMyNDY5OyYjMzY4MDc7RGphbmdvJiMxOTk5NDsmIzIxMTUzOyYjMzY5MjM7JiMzNjc1MzsmbHQ7L2NvbG9yJmd0OzwvdGV4dD48L2c+PGcgY2xhc3M9ImVudGl0eSIgZGF0YS1lbnRpdHk9IkdNTjM4IiBkYXRhLXNvdXJjZS1saW5lPSIxMTMiIGRhdGEtdWlkPSJlbnQwMDM5IiBpZD0iZW50aXR5X0dNTjM4Ij48cGF0aCBkPSJNOTY2LjE3LDYzNy45Njg4IEw5NjYuMTcsNzAzLjYyNSBMMTIyMS4xNyw3MDMuNjI1IEwxMjIxLjE3LDY0Ny45Njg4IEwxMjExLjE3LDYzNy45Njg4IEw5NjYuMTcsNjM3Ljk2ODgiIGZpbGw9IiNGRkY5QzQiIHN0eWxlPSJzdHJva2U6I0ZGRDYwMDtzdHJva2Utd2lkdGg6MC41OyIvPjxwYXRoIGQ9Ik0xMjExLjE3LDYzNy45Njg4IEwxMjExLjE3LDY0Ny45Njg4IEwxMjIxLjE3LDY0Ny45Njg4IEwxMjExLjE3LDYzNy45Njg4IiBmaWxsPSIjRkZGOUM0IiBzdHlsZT0ic3Ryb2tlOiNGRkQ2MDA7c3Ryb2tlLXdpZHRoOjE7Ii8+PHRleHQgZmlsbD0iIzdCMUZBMiIgZm9udC1mYW1pbHk9InNhbnMtc2VyaWYiIGZvbnQtc2l6ZT0iMTMiIGxlbmd0aEFkanVzdD0ic3BhY2luZyIgdGV4dExlbmd0aD0iMjM0IiB4PSI5NzIuMTciIHk9IjY1NS4yNTc4Ij4mIzk3MjQ7IFNpbGljb25GbG93OiBTRFhML1N0YWJsZSBEaWZmdXNpb248L3RleHQ+PHRleHQgZmlsbD0iIzE1NjVDMCIgZm9udC1mYW1pbHk9InNhbnMtc2VyaWYiIGZvbnQtc2l6ZT0iMTMiIGxlbmd0aEFkanVzdD0ic3BhY2luZyIgdGV4dExlbmd0aD0iMTU2IiB4PSI5NzIuMTciIHk9IjY2OS4xNzE5Ij4mIzk3MjQ7IERlZXBTZWVrOiAmIzI2NjgwOyYjMjQ1MTU7JiMyNTk5MTsmIzI2NDEyOyYjMjk5ODM7JiMyNTEwNDs8L3RleHQ+PHRleHQgZmlsbD0iIzAwNzk2QiIgZm9udC1mYW1pbHk9InNhbnMtc2VyaWYiIGZvbnQtc2l6ZT0iMTMiIGxlbmd0aEFkanVzdD0ic3BhY2luZyIgdGV4dExlbmd0aD0iMTU2IiB4PSI5NzIuMTciIHk9IjY4My4wODU5Ij4mIzk3MjQ7IEVybmllQm90OiAmIzIwMDEzOyYjMjU5OTE7JiMzOTA0NjsmIzIyNDk1OyYjMjI2ODY7JiMyNDM3ODs8L3RleHQ+PHRleHQgZmlsbD0iI0ZGOTgwMCIgZm9udC1mYW1pbHk9InNhbnMtc2VyaWYiIGZvbnQtc2l6ZT0iMTMiIGxlbmd0aEFkanVzdD0ic3BhY2luZyIgdGV4dExlbmd0aD0iMTU2IiB4PSI5NzIuMTciIHk9IjY5NyI+JiM5NzI0OyBDb3plOiAmIzIyODEwOyYjMjQwMzc7JiMyMDg1NTsmIzMyNTM0OyYjMjU0OTA7JiMyNDAzNzsmIzIwMzE2OyYjMjc5Njk7PC90ZXh0PjwvZz48IS0tbGluayBkamFuZ29fYXBpIHRvIGp3dC0tPjxnIGNsYXNzPSJsaW5rIiBkYXRhLWVudGl0eS0xPSJkamFuZ29fYXBpIiBkYXRhLWVudGl0eS0yPSJqd3QiIGRhdGEtc291cmNlLWxpbmU9IjY1IiBkYXRhLXVpZD0ibG5rMTciIGlkPSJsaW5rX2RqYW5nb19hcGlfand0Ij48cGF0aCBkPSJNMjcxLjczLDI2OS41MDg3IEMyNTUuMDMsMjgzLjA5ODggMjMzLjI3LDMwMS4xNzg4IDIxNC42NywzMTcuOTY4OCBDMTk5LjkxLDMzMS4yODg4IDE4OC4xNTQ0LDM0Mi42Njc4IDE3NS44NDQ0LDM1NC45Njc4IiBmaWxsPSJub25lIiBpZD0iZGphbmdvX2FwaS10by1qd3QiIHN0eWxlPSJzdHJva2U6IzIxOTZGMztzdHJva2Utd2lkdGg6MjsiLz48cG9seWdvbiBmaWxsPSIjMjE5NkYzIiBwb2ludHM9IjE3MS42LDM1OS4yMDg4LDE4MC43OTM4LDM1NS42NzcsMTc1LjEzNywzNTUuNjc0NywxNzUuMTM5MywzNTAuMDE3OCwxNzEuNiwzNTkuMjA4OCIgc3R5bGU9InN0cm9rZTojMjE5NkYzO3N0cm9rZS13aWR0aDoyOyIvPjx0ZXh0IGZpbGw9IiMwMDAwMDAiIGZvbnQtZmFtaWx5PSJzYW5zLXNlcmlmIiBmb250LXNpemU9IjEzIiBsZW5ndGhBZGp1c3Q9InNwYWNpbmciIHRleHRMZW5ndGg9IjI2IiB4PSIyMzkuNjciIHk9IjMwOC4yNTc4Ij4mIzM1NzQ4OyYjMzU3Nzc7PC90ZXh0PjwvZz48IS0tbGluayBkamFuZ29fYXBpIHRvIGRqYW5nb19zZXJ2aWNlcy0tPjxnIGNsYXNzPSJsaW5rIiBkYXRhLWVudGl0eS0xPSJkamFuZ29fYXBpIiBkYXRhLWVudGl0eS0yPSJkamFuZ29fc2VydmljZXMiIGRhdGEtc291cmNlLWxpbmU9IjY2IiBkYXRhLXVpZD0ibG5rMTgiIGlkPSJsaW5rX2RqYW5nb19hcGlfZGphbmdvX3NlcnZpY2VzIj48cGF0aCBkPSJNMzY1LjAyLDI2OS41MDg3IEMzNzguMDgsMjczLjMxODggMzkxLjc0LDI3Ny4wMDg3IDQwNC42NywyNzkuOTY4OCBDNTA5Ljk0LDMwNC4wNzg4IDU0My42OSwyNzkuNjg4OCA2NDQuNjcsMzE3Ljk2ODggQzY3MC41MiwzMjcuNzY4NyA2OTEuOTQxMiwzNDEuNDE3NSA3MTAuNzYxMiwzNTUuMjk3NSIgZmlsbD0ibm9uZSIgaWQ9ImRqYW5nb19hcGktdG8tZGphbmdvX3NlcnZpY2VzIiBzdHlsZT0ic3Ryb2tlOiM0Q0FGNTA7c3Ryb2tlLXdpZHRoOjI7Ii8+PHBvbHlnb24gZmlsbD0iIzRDQUY1MCIgcG9pbnRzPSI3MTUuNTksMzU4Ljg1ODgsNzEwLjcyMSwzNTAuMjk3Niw3MTEuNTY2LDM1NS44OTEsNzA1Ljk3MjYsMzU2LjczNiw3MTUuNTksMzU4Ljg1ODgiIHN0eWxlPSJzdHJva2U6IzRDQUY1MDtzdHJva2Utd2lkdGg6MjsiLz48dGV4dCBmaWxsPSIjMDAwMDAwIiBmb250LWZhbWlseT0ic2Fucy1zZXJpZiIgZm9udC1zaXplPSIxMyIgbGVuZ3RoQWRqdXN0PSJzcGFjaW5nIiB0ZXh0TGVuZ3RoPSI1MiIgeD0iNjIxLjY3IiB5PSIzMDguMjU3OCI+JiMxOTk5NDsmIzIxMTUzOyYjMzY5MjM7JiMzNjc1Mzs8L3RleHQ+PC9nPjwhLS1saW5rIGRqYW5nb19zZXJ2aWNlcyB0byBzaWxpY29uLS0+PGcgY2xhc3M9ImxpbmsiIGRhdGEtZW50aXR5LTE9ImRqYW5nb19zZXJ2aWNlcyIgZGF0YS1lbnRpdHktMj0ic2lsaWNvbiIgZGF0YS1zb3VyY2UtbGluZT0iNjkiIGRhdGEtdWlkPSJsbmsxOSIgaWQ9ImxpbmtfZGphbmdvX3NlcnZpY2VzX3NpbGljb24iPjxwYXRoIGQ9Ik03MzIuMTYsNDAzLjk5ODggQzcxNi4yNCw0MzYuNjA4OCA2ODguODEyMyw0OTIuNzg3IDY3Mi44NjIzLDUyNS40NTciIGZpbGw9Im5vbmUiIGlkPSJkamFuZ29fc2VydmljZXMtdG8tc2lsaWNvbiIgc3R5bGU9InN0cm9rZTojN0IxRkEyO3N0cm9rZS13aWR0aDoyOyIvPjxwb2x5Z29uIGZpbGw9IiM3QjFGQTIiIHBvaW50cz0iNjcwLjIzLDUzMC44NDg4LDY3Ny43NzMsNTI0LjUxNiw2NzIuNDIzNiw1MjYuMzU1Niw2NzAuNTg0LDUyMS4wMDYzLDY3MC4yMyw1MzAuODQ4OCIgc3R5bGU9InN0cm9rZTojN0IxRkEyO3N0cm9rZS13aWR0aDoyOyIvPjx0ZXh0IGZpbGw9IiMwMDAwMDAiIGZvbnQtZmFtaWx5PSJzYW5zLXNlcmlmIiBmb250LXNpemU9IjEzIiBsZW5ndGhBZGp1c3Q9InNwYWNpbmciIHRleHRMZW5ndGg9IjUyIiB4PSI3MTYuNjciIHk9IjQ0OS4yNTc4Ij4mIzIyMjcwOyYjMjA2ODc7JiMyOTk4MzsmIzI1MTA0OzwvdGV4dD48L2c+PCEtLWxpbmsgZGphbmdvX3NlcnZpY2VzIHRvIGRlZXBzZWVrLS0+PGcgY2xhc3M9ImxpbmsiIGRhdGEtZW50aXR5LTE9ImRqYW5nb19zZXJ2aWNlcyIgZGF0YS1lbnRpdHktMj0iZGVlcHNlZWsiIGRhdGEtc291cmNlLWxpbmU9IjcwIiBkYXRhLXVpZD0ibG5rMjAiIGlkPSJsaW5rX2RqYW5nb19zZXJ2aWNlc19kZWVwc2VlayI+PHBhdGggZD0iTTcwMC40MSw0MDQuMDE4NyBDNjgzLjM3LDQxMi4xOTg4IDY2My4zNiw0MjEuMTY4OCA2NDQuNjcsNDI3Ljk2ODggQzU5NC45Myw0NDYuMDY4OCA1NjEuODcsNDE2Ljk0ODggNTI5LjY3LDQ1OC45Njg4IEM0OTEuNTYsNTA4LjcxODggNDk4LjU2LDU0NS41Njg4IDUyOS42Nyw1OTkuOTY4OCBDNTQ0LjksNjI2LjU5ODggNTY5LjExMzYsNjQxLjc4NjEgNTk1LjA2MzYsNjUyLjYyNjEiIGZpbGw9Im5vbmUiIGlkPSJkamFuZ29fc2VydmljZXMtdG8tZGVlcHNlZWsiIHN0eWxlPSJzdHJva2U6IzE5NzZEMjtzdHJva2Utd2lkdGg6MjsiLz48cG9seWdvbiBmaWxsPSIjMTk3NkQyIiBwb2ludHM9IjYwMC42LDY1NC45Mzg4LDU5My44MzcyLDY0Ny43Nzg4LDU5NS45ODY0LDY1My4wMTE1LDU5MC43NTM2LDY1NS4xNjA2LDYwMC42LDY1NC45Mzg4IiBzdHlsZT0ic3Ryb2tlOiMxOTc2RDI7c3Ryb2tlLXdpZHRoOjI7Ii8+PHRleHQgZmlsbD0iIzAwMDAwMCIgZm9udC1mYW1pbHk9InNhbnMtc2VyaWYiIGZvbnQtc2l6ZT0iMTMiIGxlbmd0aEFkanVzdD0ic3BhY2luZyIgdGV4dExlbmd0aD0iNDUuNSIgeD0iNTMwLjY3IiB5PSI1NTkuMjU3OCI+JiMzNjg5MDsmIzI5OTkyO0xMTTwvdGV4dD48L2c+PCEtLWxpbmsgZGphbmdvX3NlcnZpY2VzIHRvIGVybmllLS0+PGcgY2xhc3M9ImxpbmsiIGRhdGEtZW50aXR5LTE9ImRqYW5nb19zZXJ2aWNlcyIgZGF0YS1lbnRpdHktMj0iZXJuaWUiIGRhdGEtc291cmNlLWxpbmU9IjcxIiBkYXRhLXVpZD0ibG5rMjEiIGlkPSJsaW5rX2RqYW5nb19zZXJ2aWNlc19lcm5pZSI+PHBhdGggZD0iTTc2MC45NSw0MDQuMDM4OCBDNzY4LjE4LDQxMy4zOTg3IDc3Ni4wOCw0MjQuNzU4OCA3ODEuNjcsNDM1Ljk2ODggQzgwOS41Miw0OTEuNzk4OCA3OTAuMjQsNTk0LjYyODggNzg4LjY3LDU5OS45Njg4IEM3NzIuMDQsNjU2LjQ3ODggNzI3LjY2MTEsNzAzLjMxNjUgNjk3LjA1MTEsNzMwLjg0NjUiIGZpbGw9Im5vbmUiIGlkPSJkamFuZ29fc2VydmljZXMtdG8tZXJuaWUiIHN0eWxlPSJzdHJva2U6IzAwNzk2QjtzdHJva2Utd2lkdGg6MjsiLz48cG9seWdvbiBmaWxsPSIjMDA3OTZCIiBwb2ludHM9IjY5Mi41OSw3MzQuODU4OCw3MDEuOTU2Niw3MzEuODE0NSw2OTYuMzA3Niw3MzEuNTE1Miw2OTYuNjA2OSw3MjUuODY2Myw2OTIuNTksNzM0Ljg1ODgiIHN0eWxlPSJzdHJva2U6IzAwNzk2QjtzdHJva2Utd2lkdGg6MjsiLz48dGV4dCBmaWxsPSIjMDAwMDAwIiBmb250LWZhbWlseT0ic2Fucy1zZXJpZiIgZm9udC1zaXplPSIxMyIgbGVuZ3RoQWRqdXN0PSJzcGFjaW5nIiB0ZXh0TGVuZ3RoPSI1MiIgeD0iNzg2LjY3IiB5PSI2MjEuMjU3OCI+JiMyMDAxMzsmIzI1OTkxOyYjMjAyNDg7JiMyMTI3MDs8L3RleHQ+PC9nPjwhLS1saW5rIGRqYW5nb19zZXJ2aWNlcyB0byBjb3plLS0+PGcgY2xhc3M9ImxpbmsiIGRhdGEtZW50aXR5LTE9ImRqYW5nb19zZXJ2aWNlcyIgZGF0YS1lbnRpdHktMj0iY296ZSIgZGF0YS1zb3VyY2UtbGluZT0iNzIiIGRhdGEtdWlkPSJsbmsyMiIgaWQ9ImxpbmtfZGphbmdvX3NlcnZpY2VzX2NvemUiPjxwYXRoIGQ9Ik03NjkuMTYsNDA0LjExODggQzc3OC44Nyw0MTMuMTM4NyA3ODkuMjgsNDI0LjI0ODggNzk2LjY3LDQzNS45Njg4IEM4NDIuODYsNTA5LjI1ODggODc4LjA4LDU0MC40NTg4IDg1MS42Nyw2MjIuOTY4OCBDODI1LjU0LDcwNC41OTg4IDgwMC4xNiw3MTkuMjQ4OCA3MzkuNjcsNzc5Ljk2ODggQzcyOC4zMiw3OTEuMzU4OCA3MTkuMjM1Miw3OTguNjkwOSA3MDYuNTE1Miw4MDcuNDMwOSIgZmlsbD0ibm9uZSIgaWQ9ImRqYW5nb19zZXJ2aWNlcy10by1jb3plIiBzdHlsZT0ic3Ryb2tlOiNGRjk4MDA7c3Ryb2tlLXdpZHRoOjI7Ii8+PHBvbHlnb24gZmlsbD0iI0ZGOTgwMCIgcG9pbnRzPSI3MDEuNTcsODEwLjgyODgsNzExLjI1Myw4MDkuMDI4Nyw3MDUuNjkxLDgwNy45OTcyLDcwNi43MjI1LDgwMi40MzUyLDcwMS41Nyw4MTAuODI4OCIgc3R5bGU9InN0cm9rZTojRkY5ODAwO3N0cm9rZS13aWR0aDoyOyIvPjx0ZXh0IGZpbGw9IiMwMDAwMDAiIGZvbnQtZmFtaWx5PSJzYW5zLXNlcmlmIiBmb250LXNpemU9IjEzIiBsZW5ndGhBZGp1c3Q9InNwYWNpbmciIHRleHRMZW5ndGg9IjY1IiB4PSI4NDYuNjciIHk9IjY3Ni43NTc4Ij4mIzIyNzk3OyYjMjY0MzQ7JiMyNDAzNzsmIzIwMzE2OyYjMjc5Njk7PC90ZXh0PjwvZz48IS0tbGluayBkamFuZ29fYXBpIHRvIGZhc3RhcGlfd3MtLT48ZyBjbGFzcz0ibGluayIgZGF0YS1lbnRpdHktMT0iZGphbmdvX2FwaSIgZGF0YS1lbnRpdHktMj0iZmFzdGFwaV93cyIgZGF0YS1zb3VyY2UtbGluZT0iNzUiIGRhdGEtdWlkPSJsbmsyMyIgaWQ9ImxpbmtfZGphbmdvX2FwaV9mYXN0YXBpX3dzIj48cGF0aCBkPSJNMzAxLjkzLDI2OS41NDg4IEMzMDUuNjUsMjk0LjE4ODggMzEwLjgwNDMsMzI4LjMyNiAzMTQuNTI0MywzNTIuOTY2IiBmaWxsPSJub25lIiBpZD0iZGphbmdvX2FwaS10by1mYXN0YXBpX3dzIiBzdHlsZT0ic3Ryb2tlOiMwMjg4RDE7c3Ryb2tlLXdpZHRoOjI7Ii8+PHBvbHlnb24gZmlsbD0iIzAyODhEMSIgcG9pbnRzPSIzMTUuNDIsMzU4Ljg5ODcsMzE4LjAzMTYsMzQ5LjQwMjUsMzE0LjY3MzYsMzUzLjk1NDgsMzEwLjEyMTMsMzUwLjU5NjcsMzE1LjQyLDM1OC44OTg3IiBzdHlsZT0ic3Ryb2tlOiMwMjg4RDE7c3Ryb2tlLXdpZHRoOjI7Ii8+PHRleHQgZmlsbD0iIzAwMDAwMCIgZm9udC1mYW1pbHk9InNhbnMtc2VyaWYiIGZvbnQtc2l6ZT0iMTMiIGxlbmd0aEFkanVzdD0ic3BhY2luZyIgdGV4dExlbmd0aD0iMTA0IiB4PSIzMDcuNjciIHk9IjMwOC4yNTc4Ij5EZWVwU2VlayYjMjc5Njk7JiMyNDMzNTsmIzM1ODMxOyYjMjc3MTQ7PC90ZXh0PjwvZz48IS0tbGluayBmYXN0YXBpX3dzIHRvIGRlZXBzZWVrLS0+PGcgY2xhc3M9ImxpbmsiIGRhdGEtZW50aXR5LTE9ImZhc3RhcGlfd3MiIGRhdGEtZW50aXR5LTI9ImRlZXBzZWVrIiBkYXRhLXNvdXJjZS1saW5lPSI3NiIgZGF0YS11aWQ9ImxuazI0IiBpZD0ibGlua19mYXN0YXBpX3dzX2RlZXBzZWVrIj48cGF0aCBkPSJNMjc1LjA1LDQwMy45Nzg4IEMyNTYuNDksNDEyLjQ0ODggMjM0LjM4LDQyMS42Mzg4IDIxMy42Nyw0MjcuOTY4OCBDMTQxLjksNDQ5LjkxODggOTUuNjIsNDAxLjIyODggNDcuNjcsNDU4Ljk2ODggQzcuNjMsNTA3LjE3ODggNiw1NTMuMTU4OCA0Ny42Nyw1OTkuOTY4OCBDODQuMyw2NDEuMTA4OCA0NTguMzY2MSw2NjEuNTU4NCA1OTQuNTA2MSw2NjcuNjk4NCIgZmlsbD0ibm9uZSIgaWQ9ImZhc3RhcGlfd3MtdG8tZGVlcHNlZWsiIHN0eWxlPSJzdHJva2U6IzE1NjVDMDtzdHJva2Utd2lkdGg6MjsiLz48cG9seWdvbiBmaWxsPSIjMTU2NUMwIiBwb2ludHM9IjYwMC41LDY2Ny45Njg4LDU5MS42ODk0LDY2My41NjczLDU5NS41MDUxLDY2Ny43NDM1LDU5MS4zMjg5LDY3MS41NTkyLDYwMC41LDY2Ny45Njg4IiBzdHlsZT0ic3Ryb2tlOiMxNTY1QzA7c3Ryb2tlLXdpZHRoOjI7Ii8+PHRleHQgZmlsbD0iIzAwMDAwMCIgZm9udC1mYW1pbHk9InNhbnMtc2VyaWYiIGZvbnQtc2l6ZT0iMTMiIGxlbmd0aEFkanVzdD0ic3BhY2luZyIgdGV4dExlbmd0aD0iNjUiIHg9IjQ4LjY3IiB5PSI1NTkuMjU3OCI+JiMzOTY0MDsmIzI0NjE1OyYjMzMwMjE7JiMzNTg0MzsmIzI5OTkyOzwvdGV4dD48L2c+PCEtLWxpbmsgZGphbmdvX3NlcnZpY2VzIHRvIG15c3FsLS0+PGcgY2xhc3M9ImxpbmsiIGRhdGEtZW50aXR5LTE9ImRqYW5nb19zZXJ2aWNlcyIgZGF0YS1lbnRpdHktMj0ibXlzcWwiIGRhdGEtc291cmNlLWxpbmU9Ijc5IiBkYXRhLXVpZD0ibG5rMjUiIGlkPSJsaW5rX2RqYW5nb19zZXJ2aWNlc19teXNxbCI+PHBhdGggZD0iTTcwNS4zLDQwMy45OTg4IEM2ODcuNTMsNDEzLjEzODcgNjY1LjYyLDQyMi44Mzg4IDY0NC42Nyw0MjcuOTY4OCBDNjA2Ljg2LDQzNy4yMjg4IDUwNi43OCw0MjQuMTk4OCA0NjkuNjcsNDM1Ljk2ODggQzQyMi42OCw0NTAuODY4OCAzOTEuMjg2Nyw0OTYuMTUyMiAzNzQuNzE2Nyw1MjUuNTQyMiIgZmlsbD0ibm9uZSIgaWQ9ImRqYW5nb19zZXJ2aWNlcy10by1teXNxbCIgc3R5bGU9InN0cm9rZTojMzg4RTNDO3N0cm9rZS13aWR0aDoyOyIvPjxwb2x5Z29uIGZpbGw9IiMzODhFM0MiIHBvaW50cz0iMzcxLjc3LDUzMC43Njg4LDM3OS42NzQ0LDUyNC44OTM0LDM3NC4yMjU2LDUyNi40MTMzLDM3Mi43MDU3LDUyMC45NjQ0LDM3MS43Nyw1MzAuNzY4OCIgc3R5bGU9InN0cm9rZTojMzg4RTNDO3N0cm9rZS13aWR0aDoyOyIvPjx0ZXh0IGZpbGw9IiMwMDAwMDAiIGZvbnQtZmFtaWx5PSJzYW5zLXNlcmlmIiBmb250LXNpemU9IjEzIiBsZW5ndGhBZGp1c3Q9InNwYWNpbmciIHRleHRMZW5ndGg9IjE5LjUiIHg9IjQ3MC42NyIgeT0iNDQ5LjI1NzgiPk9STTwvdGV4dD48L2c+PCEtLWxpbmsgbGFuZ2NoYWluIHRvIGZhaXNzLS0+PGcgY2xhc3M9ImxpbmsiIGRhdGEtZW50aXR5LTE9ImxhbmdjaGFpbiIgZGF0YS1lbnRpdHktMj0iZmFpc3MiIGRhdGEtc291cmNlLWxpbmU9IjgwIiBkYXRhLXVpZD0ibG5rMjYiIGlkPSJsaW5rX2xhbmdjaGFpbl9mYWlzcyI+PHBhdGggZD0iTTQ4OS44OSw0MDQuMDM4OCBDNDY4LjM1LDQxMi45OTg4IDQ0Mi4xOSw0MjIuNTU4OCA0MTcuNjcsNDI3Ljk2ODggQzM5Mi42Niw0MzMuNDg4OCAzMjUuNTQsNDI0LjQxODggMzAyLjY3LDQzNS45Njg4IEMyNjEuNDUsNDU2Ljc5ODggMjMzLjQ4MzUsNDk3LjkwNiAyMTcuOTAzNSw1MjUuNDU2IiBmaWxsPSJub25lIiBpZD0ibGFuZ2NoYWluLXRvLWZhaXNzIiBzdHlsZT0ic3Ryb2tlOiM2ODlGMzg7c3Ryb2tlLXdpZHRoOjI7Ii8+PHBvbHlnb24gZmlsbD0iIzY4OUYzOCIgcG9pbnRzPSIyMTQuOTUsNTMwLjY3ODgsMjIyLjg2MjEsNTI0LjgxMzcsMjE3LjQxMTMsNTI2LjMyNjUsMjE1Ljg5ODUsNTIwLjg3NTcsMjE0Ljk1LDUzMC42Nzg4IiBzdHlsZT0ic3Ryb2tlOiM2ODlGMzg7c3Ryb2tlLXdpZHRoOjI7Ii8+PHRleHQgZmlsbD0iIzAwMDAwMCIgZm9udC1mYW1pbHk9InNhbnMtc2VyaWYiIGZvbnQtc2l6ZT0iMTMiIGxlbmd0aEFkanVzdD0ic3BhY2luZyIgdGV4dExlbmd0aD0iNTIiIHg9IjMwMy42NyIgeT0iNDQ5LjI1NzgiPiYjMjE1MjE7JiMzNzMyNzsmIzI2ODE2OyYjMzIwMzQ7PC90ZXh0PjwvZz48IS0tbGluayBzaWxpY29uIHRvIGRlZXBzZWVrLS0+PCEtLWxpbmsgZGVlcHNlZWsgdG8gZXJuaWUtLT48IS0tbGluayBlcm5pZSB0byBjb3plLS0+PCEtLWxpbmsgdXNlciB0byBkamFuZ29fYXBpLS0+PGcgY2xhc3M9ImxpbmsiIGRhdGEtZW50aXR5LTE9InVzZXIiIGRhdGEtZW50aXR5LTI9ImRqYW5nb19hcGkiIGRhdGEtc291cmNlLWxpbmU9Ijg5IiBkYXRhLXVpZD0ibG5rMzEiIGlkPSJsaW5rX3VzZXJfZGphbmdvX2FwaSI+PHBhdGggZD0iTTI5OC42NywxMzEuNTE4NyBDMjk4LjY3LDE2MC40OTg3IDI5OC42NywxOTQuMDE4NyAyOTguNjcsMjE4LjIxODgiIGZpbGw9Im5vbmUiIGlkPSJ1c2VyLXRvLWRqYW5nb19hcGkiIHN0eWxlPSJzdHJva2U6I0U2NEExOTtzdHJva2Utd2lkdGg6MjsiLz48cG9seWdvbiBmaWxsPSIjRTY0QTE5IiBwb2ludHM9IjI5OC42NywyMjQuMjE4OCwzMDIuNjcsMjE1LjIxODgsMjk4LjY3LDIxOS4yMTg4LDI5NC42NywyMTUuMjE4OCwyOTguNjcsMjI0LjIxODgiIHN0eWxlPSJzdHJva2U6I0U2NEExOTtzdHJva2Utd2lkdGg6MjsiLz48dGV4dCBmaWxsPSIjMDAwMDAwIiBmb250LWZhbWlseT0ic2Fucy1zZXJpZiIgZm9udC1zaXplPSIxMyIgbGVuZ3RoQWRqdXN0PSJzcGFjaW5nIiB0ZXh0TGVuZ3RoPSI1MiIgeD0iMzA5LjQyIiB5PSIxNTkuNzU3OCI+JiMyNTE1MjsmIzI2Mzc3OyYjMzU4MzE7JiMyNzcxNDs8L3RleHQ+PHRleHQgZmlsbD0iIzAwMDAwMCIgZm9udC1mYW1pbHk9InNhbnMtc2VyaWYiIGZvbnQtc2l6ZT0iMTMiIGxlbmd0aEFkanVzdD0ic3BhY2luZyIgdGV4dExlbmd0aD0iNzEuNSIgeD0iMjk5LjY3IiB5PSIxNzMuNjcxOSI+KEhUVFAvUkVTVCk8L3RleHQ+PC9nPjwhLS1saW5rIEdNTjM1IHRvIGZhc3RhcGlfd3MtLT48ZyBjbGFzcz0ibGluayIgZGF0YS1lbnRpdHktMT0iR01OMzUiIGRhdGEtZW50aXR5LTI9ImZhc3RhcGlfd3MiIGRhdGEtc291cmNlLWxpbmU9IjEwNiIgZGF0YS11aWQ9ImxuazM3IiBpZD0ibGlua19HTU4zNV9mYXN0YXBpX3dzIj48cGF0aCBkPSJNMTAwNy4wMSwzNDguNDE4OCBDOTgwLjk2LDMyOS45MDg4IDk0NS43OCwzMDguNjY4OCA5MTAuNjcsMjk4Ljk2ODggQzg2Mi4yNiwyODUuNTk4OCA1MDcuMTIsMjg1Ljc1ODcgNDU4LjY3LDI5OC45Njg4IEM0MTYuMjEsMzEwLjU0ODggMzczLjUxLDMzOC42NDg3IDM0Ni42MywzNTguODM4OCIgZmlsbD0ibm9uZSIgaWQ9IkdNTjM1LWZhc3RhcGlfd3MiIHN0eWxlPSJzdHJva2U6IzYxNjE2MTtzdHJva2Utd2lkdGg6MjtzdHJva2UtZGFzaGFycmF5OjcuMCw3LjA7Ii8+PC9nPjwhLS1saW5rIEFJIEludGVncmF0aW9uIE1vZHVsZSB0byBHTU4zOC0tPjxnIGNsYXNzPSJsaW5rIiBkYXRhLWVudGl0eS0xPSJBSSBJbnRlZ3JhdGlvbiBNb2R1bGUiIGRhdGEtZW50aXR5LTI9IkdNTjM4IiBkYXRhLXNvdXJjZS1saW5lPSIxMTMiIGRhdGEtdWlkPSJsbms0MCIgaWQ9ImxpbmtfQUkgSW50ZWdyYXRpb24gTW9kdWxlX0dNTjM4Ij48cGF0aCBkPSJNNzc2Ljg0NjQsNTU2Ljg4MzYgQzc3Ny4wNzM5LDU1Ni45NTEyIDc3Ny4zMDU3LDU1Ny4wMjAxIDc3Ny41NDE4LDU1Ny4wOTA0IEM3NzguMDE0LDU1Ny4yMzA5IDc3OC41MDM0LDU1Ny4zNzY2IDc3OS4wMDk2LDU1Ny41Mjc1IEM3ODEuMDM0MSw1NTguMTMwOSA3ODMuMzI2Nyw1NTguODE2MyA3ODUuODYwOCw1NTkuNTc2OSBDNzk1Ljk5NzIsNTYyLjYxOTQgODA5Ljk5ODEsNTY2Ljg2NjIgODI2LjE2ODgsNTcxLjg5MTIgQzg1OC41MSw1ODEuOTQxMyA4OTkuNTMsNTk1LjEwMzggOTM1LjY3LDYwNy45Njg4IEM5NjEuNjMsNjE3LjIwODggOTg5LjcsNjI3Ljk2ODggMTAxNC44OCw2MzcuOTA4OCIgZmlsbD0ibm9uZSIgaWQ9IkFJIEludGVncmF0aW9uIE1vZHVsZS1HTU4zOCIgc3R5bGU9InN0cm9rZTojNjE2MTYxO3N0cm9rZS13aWR0aDoyO3N0cm9rZS1kYXNoYXJyYXk6Ny4wLDcuMDsiLz48L2c+PCEtLVNSQz1bVExMakpuajc0RnYtbHM5YkZoSnZXQjJuVkp1WlhFSXh5d2JLSGFyWk1ZaEhBM2hpRExuaVJrZFRLS0loSUJtcWxCR2JhOFAwR2RkQmN1aEs1OEFJMVc4YV85VkFUeFJfSE1UdFJOQ3NEYVE2ZFByenpmY1BQc1ZpbDY1RXc5Ty1aaVE5SUo5WjVYZDdBQVNOUjJwT3pJc0pQQjZEOXIwcXczRFFrZmNkbmQxRzQxcDNBTTJLdzRVYmotVWJ5cHJ0UVM0emRsRHN0dGt4bHRubFZneFVyU3JIV2MyWlUzZkpGWmFnaEh6eG9wRlV6ZEFZdHpqVVNOenpUYUZtdUt4ZWNSbS1ZajdGMGE4b18zemdhS2FwZ3YwMmlMMjc1Z0tWa2FFaUJCUWdyWjN4MFFqNkpBVkhUaXlGZFRLVFZLSXRzczBkbXJndGZaUFpYLThuS1Vya25BN3ZROENYUVQ1YV8xZV9JS2c2YktPQ0ZVRjBMa2lXRElzUzMzUTM5Q0w4OFhIbDFCNW1uZTdTNWpnbktQQ25KTW02WVlSM0tKYjRXSnYzbDVCa3VMUm5teDlHb3RtV1NSQ1ZmVkhmUjBMR1hvb2hJS3JjLUNGTEdqdkFmV1NILURuNmtlc29wN1A3ZHAxR0hxSEptYmdDVWNnd3hMMks4Sm9JOWZheVRmWGwzZ3BXVTZWQXpsZE1ZbkJ1U1dYVzl2c24wRk16RS1MR1lkTEV5Z0hqY0RZc0tPZ0M2WGFXZmFYOUtPYXQ0NGpad3FTWldzcV9DUmpnR25ySUk4Yjk0TjI3dHdqRy1yNl93VTFISXRTQ09nODFhZnFpdTAzZ3hRc2RqZy1GdEc2dGY4czJhSTZjTFkxSngwUVJobzU3Mkw1STlFd2FPWm9IblpaRkVTMzJYV05nNDJEb2I5SzJOOUFNUU0yUHk5bldrZTFxZ0JBT0tGWS1HZHgyUThYTy1McGpmV29yVzJ4YU04R0F6MXVGT1pXNTE5S250SjBSbEdqV3BaMXBCTVBfOGJOOFR5bGczYW9kbHF1bldGNWYtdVMyQXNFWUZ2cjZ0c0FnTExNa3JqMm1SSXdVeWtNa3otMUx3VXBJc3B6bkJyUnp1aE9pQ2lMR2d2ZUpHX0czd3k0bjh2RGRUVW9rV1hvLUIxX0Q1YXlWVUZrZHhrTHktU3J5UVZyMHlBY2dTeFlaRW5HTmpWM2pwWndnMmpJMzBsbkdlQ2FqZVlJcVE5MndEVFNVWlhIRmp3M0pMNlJFb3Z5VTFrWjVOM0Z5RmNYNDF5X1NkS3NYLUkyV25rSUdia1ljZ0JMdzB2aHh2b1R0VmhNcWxrU2poR0xRZFU5ald0NmZRRzJFTE1Rc3VCUEtRZzNiY00wbTVYVGJVZVFCV2g3LW56ak9CNXV5U05fVlE3YjZxLTlJYUNOQ0Q0QWZsTHBuVGtSU2FyVjVaemxVbHhDaXJrZnBCOXUtU2V6dFdLSGJ6YjVKeGVCVGFnSTZBOHhsYUc5UUpTdzAxMktrN3ZydW50QzFtVVQzT3VzQUtJTHVCVFFfZHRXcFZ2TmRGXzhLQ254VXVwVlVvWTVxNzJ3VExXN25OYWQxYzBlZnFiVXQ4NXpOZVdPZEtPZmhPT2NwMUpjb2lEU1VMWFBObEhTcGZOVkYtTHNpZWp3M0Z6b2JKUTVNa2l4WENJRVJuUVFWaDUxZHhUemI5SDF1OFZuc2NjUk1FTHprTEVPRjgzMWx3S0pXcFZtUlk4Qy1hS2R1QXowbElmTXRSUHllUVNBMUJ2LTBGQTRtOHh5TzdCcFBISGxoM0t2LVZ6NXhVdDNqTlBkNG1NcmRIYm85REJUd0pMRjVPQjNUTzZIZWJaNHd2WTJJeXo0M196dUNUVXUxTVNIWWlqaHR0LU81eVhGY2V6b3pfeWZUVkc3VVJGbGY2UXFyYy13cmtMeFRBYnZpYk96c0llVkZJY2lCTlBNZFF3MmJ3V3ZxVkZ3S0F5bGxsOXR2dFl2c1JQLTBwSW9CalNnblc3RUN1Zk5pVjFJdi1YWjVxYy1sdFBOemNjSWg2a0N0ckdUSHZWNWJtbVI4ckZ0bXRicnpvMU5rRmJmbnB6UWhVd05wbi1OQkhUdWVfRnNaN1N5SHVaWGFkMzlqQ3JUeWo3YlJPUkh6U3dLN2ZUTmxLYnJmNjhhbXI1S1pidUVuSHlwd1hJdDNoV05TV3RXRlhPeFhSUl9jcFFkNUlUdmNzQ2RROUVmMWxENUtkWS11VXRsa3lydHR1Z3A1SVR2aXM0YXdldGhXNE1uMWV0N2xkdkdrRGtYQmdwTVRRbWR3N20wMF0tLT48L2c+PC9zdmc+;" vertex="1" parent="1">
            <mxGeometry x="-413" y="870" width="1228" height="918" as="geometry" />
          </mxCell>
        </UserObject>
        <UserObject label="" plantUmlData="{&#xa;  &quot;data&quot;: &quot;@startuml AI-System-Architecture-PPT\nskinparam monochrome false\nskinparam nodesep 30\nskinparam ranksep 20\nskinparam defaultFontSize 14\ntitle fontsize 16\n\n!define PPT_WIDTH 1600\n!define PPT_HEIGHT 900\nscale PPT_WIDTH x PPT_HEIGHT\n\ntitle AI 系统分层架构\\n&lt;size:12&gt;Django统一路由AI服务&lt;/size&gt;\n\nleft to right direction\n\n&#39; 1. 用户层\nactor \&quot;User\\n(HTTP/REST)\&quot; as user #FFF3E0\n\n&#39; 2. API层（蓝色系）\npackage \&quot;API Layer\&quot; #E3F2FD {\n  [Django REST API] as django_api #4FC3F7\n  [FastAPI WebSocket] as fastapi_ws #64B5F6\n  database \&quot;JWT Auth\&quot; as jwt #1976D2\n  user --&gt; django_api\n}\n\n&#39; 3. 业务逻辑层（绿色系）\npackage \&quot;Business Logic\&quot; #E8F5E9 {\n  [Django Services] as django_services #81C784\n  django_api --&gt; django_services\n\n  package \&quot;AI Modules\&quot; &lt;&lt;rectangle&gt;&gt; #EDE7F6 {\n    [SiliconFlow\\nSDXL] as silicon #BA68C8\n    [DeepSeek\\nLLM] as deepseek #42A5F5\n    [ErnieBot\\n中文] as ernie #4DB6AC\n    [Coze\\nWorkflow] as coze #FFB74D\n    django_services --&gt; silicon\n    django_services --&gt; deepseek\n    django_services --&gt; ernie\n    django_services --&gt; coze\n  }\n\n  [LangChain\\nWorkflow] as langchain #81C784\n}\n\n&#39; 4. 数据层（蓝色系）\npackage \&quot;Data Layer\&quot; #E3F2FD {\n  [MySQL] as mysql #1976D2\n  [FAISS\\nVectorDB] as faiss #2196F3\n  django_services --&gt; mysql\n  langchain --&gt; faiss\n}\n\n&#39; 5. 关键连接线（按功能着色）\ndjango_api -[#0288D1]-&gt; fastapi_ws : \&quot;DeepSeek\\n流式请求\&quot;\nfastapi_ws -[#1565C0]-&gt; deepseek : \&quot;高性能调用\&quot;\n\n&#39; 6. 模块排列优化\nsilicon -[hidden]-&gt; deepseek\ndeepseek -[hidden]-&gt; ernie\nernie -[hidden]-&gt; coze\n\n&#39; 7. 保留核心注释（移除AI模块说明）\nnote right of django_api\n  &lt;b&gt;核心功能：&lt;/b&gt;\n  • 统一入口路由\n  • JWT认证鉴权\n  • 会话/限流管理\nend note\n\nnote left of fastapi_ws\n  &lt;b&gt;WebSocket通道：&lt;/b&gt;\n  • 独占DeepSeek连接\n  • 高并发流式响应\nend note\n\n&#39; 8. 连接线样式统一\nskinparam arrow {\n  Color #616161\n  Thickness 1.5\n}\n\nskinparam package {\n  BorderColor #333333\n  FontStyle bold\n}\n@enduml&quot;,&#xa;  &quot;format&quot;: &quot;svg&quot;&#xa;}" id="rgclN-8iBo6ZPXDW5_Zl-55">
          <mxCell style="shape=image;noLabel=1;verticalAlign=top;aspect=fixed;imageAspect=0;image=data:image/svg+xml,PHN2ZyB4bWxucz0iaHR0cDovL3d3dy53My5vcmcvMjAwMC9zdmciIHhtbG5zOnhsaW5rPSJodHRwOi8vd3d3LnczLm9yZy8xOTk5L3hsaW5rIiBjb250ZW50U3R5bGVUeXBlPSJ0ZXh0L2NzcyIgZGF0YS1kaWFncmFtLXR5cGU9IkRFU0NSSVBUSU9OIiBoZWlnaHQ9IjkwMC44NDc1cHgiIHByZXNlcnZlQXNwZWN0UmF0aW89Im5vbmUiIHN0eWxlPSJ3aWR0aDoxMzE0cHg7aGVpZ2h0OjkwMHB4O2JhY2tncm91bmQ6I0ZGRkZGRjsiIHZlcnNpb249IjEuMSIgdmlld0JveD0iMCAwIDEzMTQgOTAwIiB3aWR0aD0iMTMxNC43MTg1cHgiIHpvb21BbmRQYW49Im1hZ25pZnkiPjx0aXRsZT5BSSAmIzMxOTk1OyYjMzI0Nzk7JiMyMDk5ODsmIzIzNjE4OyYjMjY1NTA7JiMyNjUwMDs8L3RpdGxlPjxkZWZzLz48Zz48dGV4dCBmaWxsPSIjMDAwMDAwIiBmb250LWZhbWlseT0ic2Fucy1zZXJpZiIgZm9udC1zaXplPSIxNi41MDc3IiBmb250LXdlaWdodD0iYm9sZCIgbGVuZ3RoQWRqdXN0PSJzcGFjaW5nIiB0ZXh0TGVuZ3RoPSIxMjMuODA3NiIgeD0iNTg3LjQ5NjQiIHk9IjI3LjM5NjEiPkFJICYjMzE5OTU7JiMzMjQ3OTsmIzIwOTk4OyYjMjM2MTg7JiMyNjU1MDsmIzI2NTAwOzwvdGV4dD48dGV4dCBmaWxsPSIjMDAwMDAwIiBmb250LWZhbWlseT0ic2Fucy1zZXJpZiIgZm9udC1zaXplPSIxNC4xNDk0IiBmb250LXdlaWdodD0iYm9sZCIgbGVuZ3RoQWRqdXN0PSJzcGFjaW5nIiB0ZXh0TGVuZ3RoPSIxNDEuNDk0NCIgeD0iNTc4LjY1MyIgeT0iNDIuODM1MiI+RGphbmdvJiMzMjQ3OTsmIzE5OTY4OyYjMzYzMzU7JiMzMDAwMTtBSSYjMjYzODE7JiMyMTE1Mzs8L3RleHQ+PCEtLWNsdXN0ZXIgQVBJIExheWVyLS0+PGcgY2xhc3M9ImNsdXN0ZXIiIGRhdGEtZW50aXR5PSJBUEkgTGF5ZXIiIGRhdGEtc291cmNlLWxpbmU9IjE5IiBkYXRhLXVpZD0iZW50MDAwMyIgaWQ9ImNsdXN0ZXJfQVBJIExheWVyIj48cGF0aCBkPSJNMTMyLjY1MSw2MDkuNDAyMyBMMjA4LjExNDYsNjA5LjQwMjMgQTQuNDIxNyw0LjQyMTcgMCAwIDEgMjExLjA2MjQsNjEyLjM1MDEgTDIxOS4zMTYzLDYzNC4xNDUzIEw2MzMuNzc2OSw2MzQuMTQ1MyBBMi45NDc4LDIuOTQ3OCAwIDAgMSA2MzYuNzI0Nyw2MzcuMDkzMSBMNjM2LjcyNDcsODA1LjcyNTcgQTIuOTQ3OCwyLjk0NzggMCAwIDEgNjMzLjc3NjksODA4LjY3MzUgTDEzMi42NTEsODA4LjY3MzUgQTIuOTQ3OCwyLjk0NzggMCAwIDEgMTI5LjcwMzIsODA1LjcyNTcgTDEyOS43MDMyLDYxMi4zNTAxIEEyLjk0NzgsMi45NDc4IDAgMCAxIDEzMi42NTEsNjA5LjQwMjMiIGZpbGw9IiNFM0YyRkQiIHN0eWxlPSJzdHJva2U6IzMzMzMzMztzdHJva2Utd2lkdGg6MS43Njg3OyIvPjxsaW5lIHN0eWxlPSJzdHJva2U6IzMzMzMzMztzdHJva2Utd2lkdGg6MS43Njg3OyIgeDE9IjEyOS43MDMyIiB4Mj0iMjE5LjMxNjMiIHkxPSI2MzQuMTQ1MyIgeTI9IjYzNC4xNDUzIi8+PHRleHQgZmlsbD0iIzAwMDAwMCIgZm9udC1mYW1pbHk9InNhbnMtc2VyaWYiIGZvbnQtc2l6ZT0iMTYuNTA3NyIgZm9udC13ZWlnaHQ9ImJvbGQiIGxlbmd0aEFkanVzdD0ic3BhY2luZyIgdGV4dExlbmd0aD0iNzQuMjg0NSIgeD0iMTM0LjQxOTciIHk9IjYyNy4zNjU0Ij5BUEkgTGF5ZXI8L3RleHQ+PC9nPjwhLS1jbHVzdGVyIEJ1c2luZXNzIExvZ2ljLS0+PGcgY2xhc3M9ImNsdXN0ZXIiIGRhdGEtZW50aXR5PSJCdXNpbmVzcyBMb2dpYyIgZGF0YS1zb3VyY2UtbGluZT0iMjciIGRhdGEtdWlkPSJlbnQwMDA4IiBpZD0iY2x1c3Rlcl9CdXNpbmVzcyBMb2dpYyI+PHBhdGggZD0iTTQyMi43MTQ0LDMxMS4wODUgTDUzOS40NDczLDMxMS4wODUgQTQuNDIxNyw0LjQyMTcgMCAwIDEgNTQyLjM5NTEsMzE0LjAzMjggTDU1MC42NDg5LDMzNS44MjggTDEzMDQuMTA2NCwzMzUuODI4IEEyLjk0NzgsMi45NDc4IDAgMCAxIDEzMDcuMDU0MiwzMzguNzc1OCBMMTMwNy4wNTQyLDU3OC4xNTU2IEEyLjk0NzgsMi45NDc4IDAgMCAxIDEzMDQuMTA2NCw1ODEuMTAzNCBMNDIyLjcxNDQsNTgxLjEwMzQgQTIuOTQ3OCwyLjk0NzggMCAwIDEgNDE5Ljc2NjYsNTc4LjE1NTYgTDQxOS43NjY2LDMxNC4wMzI4IEEyLjk0NzgsMi45NDc4IDAgMCAxIDQyMi43MTQ0LDMxMS4wODUiIGZpbGw9IiNFOEY1RTkiIHN0eWxlPSJzdHJva2U6IzMzMzMzMztzdHJva2Utd2lkdGg6MS43Njg3OyIvPjxsaW5lIHN0eWxlPSJzdHJva2U6IzMzMzMzMztzdHJva2Utd2lkdGg6MS43Njg3OyIgeDE9IjQxOS43NjY2IiB4Mj0iNTUwLjY0ODkiIHkxPSIzMzUuODI4IiB5Mj0iMzM1LjgyOCIvPjx0ZXh0IGZpbGw9IiMwMDAwMDAiIGZvbnQtZmFtaWx5PSJzYW5zLXNlcmlmIiBmb250LXNpemU9IjE2LjUwNzciIGZvbnQtd2VpZ2h0PSJib2xkIiBsZW5ndGhBZGp1c3Q9InNwYWNpbmciIHRleHRMZW5ndGg9IjExNS41NTM3IiB4PSI0MjQuNDgzMSIgeT0iMzI5LjA0ODEiPkJ1c2luZXNzIExvZ2ljPC90ZXh0PjwvZz48IS0tY2x1c3RlciBBSSBNb2R1bGVzLS0+PGcgY2xhc3M9ImNsdXN0ZXIiIGRhdGEtZW50aXR5PSJBSSBNb2R1bGVzIiBkYXRhLXNvdXJjZS1saW5lPSIzMSIgZGF0YS11aWQ9ImVudDAwMTEiIGlkPSJjbHVzdGVyX0FJIE1vZHVsZXMiPjxwYXRoIGQ9Ik02NzguNTgzNCw0MDYuNTkzNyBMNzYyLjMwMDksNDA2LjU5MzcgQTQuNDIxNyw0LjQyMTcgMCAwIDEgNzY1LjI0ODcsNDA5LjU0MTUgTDc3My41MDI2LDQzMS4zMzY3IEwxMjc1LjgwNzYsNDMxLjMzNjcgQTIuOTQ3OCwyLjk0NzggMCAwIDEgMTI3OC43NTU0LDQzNC4yODQ1IEwxMjc4Ljc1NTQsNTQ5Ljg1NjcgQTIuOTQ3OCwyLjk0NzggMCAwIDEgMTI3NS44MDc2LDU1Mi44MDQ1IEw2NzguNTgzNCw1NTIuODA0NSBBMi45NDc4LDIuOTQ3OCAwIDAgMSA2NzUuNjM1Niw1NDkuODU2NyBMNjc1LjYzNTYsNDA5LjU0MTUgQTIuOTQ3OCwyLjk0NzggMCAwIDEgNjc4LjU4MzQsNDA2LjU5MzciIGZpbGw9IiNFREU3RjYiIHN0eWxlPSJzdHJva2U6IzMzMzMzMztzdHJva2Utd2lkdGg6MS43Njg3OyIvPjxsaW5lIHN0eWxlPSJzdHJva2U6IzMzMzMzMztzdHJva2Utd2lkdGg6MS43Njg3OyIgeDE9IjY3NS42MzU2IiB4Mj0iNzczLjUwMjYiIHkxPSI0MzEuMzM2NyIgeTI9IjQzMS4zMzY3Ii8+PHRleHQgZmlsbD0iIzAwMDAwMCIgZm9udC1mYW1pbHk9InNhbnMtc2VyaWYiIGZvbnQtc2l6ZT0iMTYuNTA3NyIgZm9udC13ZWlnaHQ9ImJvbGQiIGxlbmd0aEFkanVzdD0ic3BhY2luZyIgdGV4dExlbmd0aD0iODIuNTM4NCIgeD0iNjgwLjM1MjEiIHk9IjQyNC41NTY4Ij5BSSBNb2R1bGVzPC90ZXh0Pjx0ZXh0IGZpbGw9IiMwMDAwMDAiIGZvbnQtZmFtaWx5PSJzYW5zLXNlcmlmIiBmb250LXNpemU9IjE2LjUwNzciIGZvbnQtd2VpZ2h0PSJib2xkIiBsZW5ndGhBZGp1c3Q9InNwYWNpbmciIHRleHRMZW5ndGg9IjkwLjc5MjIiIHg9IjkzNi41MTU5IiB5PSI0NDkuMjk5OSI+JiMxNzE7cmVjdGFuZ2xlJiMxODc7PC90ZXh0PjwvZz48IS0tY2x1c3RlciBEYXRhIExheWVyLS0+PGcgY2xhc3M9ImNsdXN0ZXIiIGRhdGEtZW50aXR5PSJEYXRhIExheWVyIiBkYXRhLXNvdXJjZS1saW5lPSI0NiIgZGF0YS11aWQ9ImVudDAwMjEiIGlkPSJjbHVzdGVyX0RhdGEgTGF5ZXIiPjxwYXRoIGQ9Ik02OTAuOTY0Miw2NC42NDg5IEw3NzQuNjgxNyw2NC42NDg5IEE0LjQyMTcsNC40MjE3IDAgMCAxIDc3Ny42Mjk1LDY3LjU5NjcgTDc4NS44ODMzLDg5LjM5MiBMODM1Ljk5NTksODkuMzkyIEEyLjk0NzgsMi45NDc4IDAgMCAxIDgzOC45NDM3LDkyLjMzOTggTDgzOC45NDM3LDI3OS44MzgzIEEyLjk0NzgsMi45NDc4IDAgMCAxIDgzNS45OTU5LDI4Mi43ODYxIEw2OTAuOTY0MiwyODIuNzg2MSBBMi45NDc4LDIuOTQ3OCAwIDAgMSA2ODguMDE2NCwyNzkuODM4MyBMNjg4LjAxNjQsNjcuNTk2NyBBMi45NDc4LDIuOTQ3OCAwIDAgMSA2OTAuOTY0Miw2NC42NDg5IiBmaWxsPSIjRTNGMkZEIiBzdHlsZT0ic3Ryb2tlOiMzMzMzMzM7c3Ryb2tlLXdpZHRoOjEuNzY4NzsiLz48bGluZSBzdHlsZT0ic3Ryb2tlOiMzMzMzMzM7c3Ryb2tlLXdpZHRoOjEuNzY4NzsiIHgxPSI2ODguMDE2NCIgeDI9Ijc4NS44ODMzIiB5MT0iODkuMzkyIiB5Mj0iODkuMzkyIi8+PHRleHQgZmlsbD0iIzAwMDAwMCIgZm9udC1mYW1pbHk9InNhbnMtc2VyaWYiIGZvbnQtc2l6ZT0iMTYuNTA3NyIgZm9udC13ZWlnaHQ9ImJvbGQiIGxlbmd0aEFkanVzdD0ic3BhY2luZyIgdGV4dExlbmd0aD0iODIuNTM4NCIgeD0iNjkyLjczMjkiIHk9IjgyLjYxMjEiPkRhdGEgTGF5ZXI8L3RleHQ+PC9nPjwhLS1lbnRpdHkgZGphbmdvX2FwaS0tPjxnIGNsYXNzPSJlbnRpdHkiIGRhdGEtZW50aXR5PSJkamFuZ29fYXBpIiBkYXRhLXNvdXJjZS1saW5lPSIyMCIgZGF0YS11aWQ9ImVudDAwMDQiIGlkPSJlbnRpdHlfZGphbmdvX2FwaSI+PHJlY3QgZmlsbD0iIzRGQzNGNyIgaGVpZ2h0PSI1My4wNDIiIHJ4PSIyLjk0NzgiIHJ5PSIyLjk0NzgiIHN0eWxlPSJzdHJva2U6IzE4MTgxODtzdHJva2Utd2lkdGg6MC41ODk2OyIgd2lkdGg9IjE3MC45NzI0IiB4PSIxNDguNTY5MSIgeT0iNjQ4LjkwMjgiLz48cmVjdCBmaWxsPSIjNEZDM0Y3IiBoZWlnaHQ9IjExLjc5MTIiIHN0eWxlPSJzdHJva2U6IzE4MTgxODtzdHJva2Utd2lkdGg6MC41ODk2OyIgd2lkdGg9IjE3LjY4NjgiIHg9IjI5NS45NTkxIiB5PSI2NTQuNzk4NCIvPjxyZWN0IGZpbGw9IiM0RkMzRjciIGhlaWdodD0iMi4zNTgyIiBzdHlsZT0ic3Ryb2tlOiMxODE4MTg7c3Ryb2tlLXdpZHRoOjAuNTg5NjsiIHdpZHRoPSI0LjcxNjUiIHg9IjI5My42MDA4IiB5PSI2NTcuMTU2NiIvPjxyZWN0IGZpbGw9IiM0RkMzRjciIGhlaWdodD0iMi4zNTgyIiBzdHlsZT0ic3Ryb2tlOiMxODE4MTg7c3Ryb2tlLXdpZHRoOjAuNTg5NjsiIHdpZHRoPSI0LjcxNjUiIHg9IjI5My42MDA4IiB5PSI2NjEuODczMSIvPjx0ZXh0IGZpbGw9IiMwMDAwMDAiIGZvbnQtZmFtaWx5PSJzYW5zLXNlcmlmIiBmb250LXNpemU9IjE2LjUwNzciIGxlbmd0aEFkanVzdD0ic3BhY2luZyIgdGV4dExlbmd0aD0iMTIzLjgwNzYiIHg9IjE2Ni4yNTU5IiB5PSI2ODguMDkwMSI+RGphbmdvIFJFU1QgQVBJPC90ZXh0PjwvZz48IS0tZW50aXR5IGZhc3RhcGlfd3MtLT48ZyBjbGFzcz0iZW50aXR5IiBkYXRhLWVudGl0eT0iZmFzdGFwaV93cyIgZGF0YS1zb3VyY2UtbGluZT0iMjEiIGRhdGEtdWlkPSJlbnQwMDA1IiBpZD0iZW50aXR5X2Zhc3RhcGlfd3MiPjxyZWN0IGZpbGw9IiM2NEI1RjYiIGhlaWdodD0iNTMuMDQyIiByeD0iMi45NDc4IiByeT0iMi45NDc4IiBzdHlsZT0ic3Ryb2tlOiMxODE4MTg7c3Ryb2tlLXdpZHRoOjAuNTg5NjsiIHdpZHRoPSIxODcuNDgiIHg9IjQzMC4zNzg3IiB5PSI2NTguMzM1NyIvPjxyZWN0IGZpbGw9IiM2NEI1RjYiIGhlaWdodD0iMTEuNzkxMiIgc3R5bGU9InN0cm9rZTojMTgxODE4O3N0cm9rZS13aWR0aDowLjU4OTY7IiB3aWR0aD0iMTcuNjg2OCIgeD0iNTk0LjI3NjQiIHk9IjY2NC4yMzEzIi8+PHJlY3QgZmlsbD0iIzY0QjVGNiIgaGVpZ2h0PSIyLjM1ODIiIHN0eWxlPSJzdHJva2U6IzE4MTgxODtzdHJva2Utd2lkdGg6MC41ODk2OyIgd2lkdGg9IjQuNzE2NSIgeD0iNTkxLjkxODEiIHk9IjY2Ni41ODk2Ii8+PHJlY3QgZmlsbD0iIzY0QjVGNiIgaGVpZ2h0PSIyLjM1ODIiIHN0eWxlPSJzdHJva2U6IzE4MTgxODtzdHJva2Utd2lkdGg6MC41ODk2OyIgd2lkdGg9IjQuNzE2NSIgeD0iNTkxLjkxODEiIHk9IjY3MS4zMDYiLz48dGV4dCBmaWxsPSIjMDAwMDAwIiBmb250LWZhbWlseT0ic2Fucy1zZXJpZiIgZm9udC1zaXplPSIxNi41MDc3IiBsZW5ndGhBZGp1c3Q9InNwYWNpbmciIHRleHRMZW5ndGg9IjE0MC4zMTUzIiB4PSI0NDguMDY1NSIgeT0iNjk3LjUyMyI+RmFzdEFQSSBXZWJTb2NrZXQ8L3RleHQ+PC9nPjwhLS1lbnRpdHkgand0LS0+PGcgY2xhc3M9ImVudGl0eSIgZGF0YS1lbnRpdHk9Imp3dCIgZGF0YS1zb3VyY2UtbGluZT0iMjIiIGRhdGEtdWlkPSJlbnQwMDA2IiBpZD0iZW50aXR5X2p3dCI+PHBhdGggZD0iTTE4OS4yNDg3LDc0OS43MTc1IEMxODkuMjQ4Nyw3MzcuOTI2MyAyMzQuMDU1Myw3MzcuOTI2MyAyMzQuMDU1Myw3MzcuOTI2MyBDMjM0LjA1NTMsNzM3LjkyNjMgMjc4Ljg2MTgsNzM3LjkyNjMgMjc4Ljg2MTgsNzQ5LjcxNzUgTDI3OC44NjE4LDc3Ny45OTggQzI3OC44NjE4LDc4OS43ODkyIDIzNC4wNTUzLDc4OS43ODkyIDIzNC4wNTUzLDc4OS43ODkyIEMyMzQuMDU1Myw3ODkuNzg5MiAxODkuMjQ4Nyw3ODkuNzg5MiAxODkuMjQ4Nyw3NzcuOTk4IEwxODkuMjQ4Nyw3NDkuNzE3NSIgZmlsbD0iIzE5NzZEMiIgc3R5bGU9InN0cm9rZTojMTgxODE4O3N0cm9rZS13aWR0aDowLjU4OTY7Ii8+PHBhdGggZD0iTTE4OS4yNDg3LDc0OS43MTc1IEMxODkuMjQ4Nyw3NjEuNTA4NyAyMzQuMDU1Myw3NjEuNTA4NyAyMzQuMDU1Myw3NjEuNTA4NyBDMjM0LjA1NTMsNzYxLjUwODcgMjc4Ljg2MTgsNzYxLjUwODcgMjc4Ljg2MTgsNzQ5LjcxNzUiIGZpbGw9Im5vbmUiIHN0eWxlPSJzdHJva2U6IzE4MTgxODtzdHJva2Utd2lkdGg6MC41ODk2OyIvPjx0ZXh0IGZpbGw9IiMwMDAwMDAiIGZvbnQtZmFtaWx5PSJzYW5zLXNlcmlmIiBmb250LXNpemU9IjE2LjUwNzciIGxlbmd0aEFkanVzdD0ic3BhY2luZyIgdGV4dExlbmd0aD0iNjYuMDMwNyIgeD0iMjAxLjAzOTkiIHk9Ijc4MS44MzAxIj5KV1QgQXV0aDwvdGV4dD48L2c+PCEtLWVudGl0eSBkamFuZ29fc2VydmljZXMtLT48ZyBjbGFzcz0iZW50aXR5IiBkYXRhLWVudGl0eT0iZGphbmdvX3NlcnZpY2VzIiBkYXRhLXNvdXJjZS1saW5lPSIyOCIgZGF0YS11aWQ9ImVudDAwMDkiIGlkPSJlbnRpdHlfZGphbmdvX3NlcnZpY2VzIj48cmVjdCBmaWxsPSIjODFDNzg0IiBoZWlnaHQ9IjUzLjA0MiIgcng9IjIuOTQ3OCIgcnk9IjIuOTQ3OCIgc3R5bGU9InN0cm9rZTojMTgxODE4O3N0cm9rZS13aWR0aDowLjU4OTY7IiB3aWR0aD0iMTcwLjk3MjQiIHg9IjQzOC42MzI1IiB5PSI0NTYuNzA2MiIvPjxyZWN0IGZpbGw9IiM4MUM3ODQiIGhlaWdodD0iMTEuNzkxMiIgc3R5bGU9InN0cm9rZTojMTgxODE4O3N0cm9rZS13aWR0aDowLjU4OTY7IiB3aWR0aD0iMTcuNjg2OCIgeD0iNTg2LjAyMjUiIHk9IjQ2Mi42MDE4Ii8+PHJlY3QgZmlsbD0iIzgxQzc4NCIgaGVpZ2h0PSIyLjM1ODIiIHN0eWxlPSJzdHJva2U6IzE4MTgxODtzdHJva2Utd2lkdGg6MC41ODk2OyIgd2lkdGg9IjQuNzE2NSIgeD0iNTgzLjY2NDMiIHk9IjQ2NC45NjAxIi8+PHJlY3QgZmlsbD0iIzgxQzc4NCIgaGVpZ2h0PSIyLjM1ODIiIHN0eWxlPSJzdHJva2U6IzE4MTgxODtzdHJva2Utd2lkdGg6MC41ODk2OyIgd2lkdGg9IjQuNzE2NSIgeD0iNTgzLjY2NDMiIHk9IjQ2OS42NzY2Ii8+PHRleHQgZmlsbD0iIzAwMDAwMCIgZm9udC1mYW1pbHk9InNhbnMtc2VyaWYiIGZvbnQtc2l6ZT0iMTYuNTA3NyIgbGVuZ3RoQWRqdXN0PSJzcGFjaW5nIiB0ZXh0TGVuZ3RoPSIxMjMuODA3NiIgeD0iNDU2LjMxOTMiIHk9IjQ5NS44OTM2Ij5EamFuZ28gU2VydmljZXM8L3RleHQ+PC9nPjwhLS1lbnRpdHkgbGFuZ2NoYWluLS0+PGcgY2xhc3M9ImVudGl0eSIgZGF0YS1lbnRpdHk9ImxhbmdjaGFpbiIgZGF0YS1zb3VyY2UtbGluZT0iNDIiIGRhdGEtdWlkPSJlbnQwMDIwIiBpZD0iZW50aXR5X2xhbmdjaGFpbiI+PHJlY3QgZmlsbD0iIzgxQzc4NCIgaGVpZ2h0PSI3MC43MTAzIiByeD0iMi45NDc4IiByeT0iMi45NDc4IiBzdHlsZT0ic3Ryb2tlOiMxODE4MTg7c3Ryb2tlLXdpZHRoOjAuNTg5NjsiIHdpZHRoPSIxMjEuNDQ5MyIgeD0iNDYzLjM5NDEiIHk9IjM0OS45OTU5Ii8+PHJlY3QgZmlsbD0iIzgxQzc4NCIgaGVpZ2h0PSIxMS43OTEyIiBzdHlsZT0ic3Ryb2tlOiMxODE4MTg7c3Ryb2tlLXdpZHRoOjAuNTg5NjsiIHdpZHRoPSIxNy42ODY4IiB4PSI1NjEuMjYxIiB5PSIzNTUuODkxNSIvPjxyZWN0IGZpbGw9IiM4MUM3ODQiIGhlaWdodD0iMi4zNTgyIiBzdHlsZT0ic3Ryb2tlOiMxODE4MTg7c3Ryb2tlLXdpZHRoOjAuNTg5NjsiIHdpZHRoPSI0LjcxNjUiIHg9IjU1OC45MDI4IiB5PSIzNTguMjQ5NyIvPjxyZWN0IGZpbGw9IiM4MUM3ODQiIGhlaWdodD0iMi4zNTgyIiBzdHlsZT0ic3Ryb2tlOiMxODE4MTg7c3Ryb2tlLXdpZHRoOjAuNTg5NjsiIHdpZHRoPSI0LjcxNjUiIHg9IjU1OC45MDI4IiB5PSIzNjIuOTY2MiIvPjx0ZXh0IGZpbGw9IiMwMDAwMDAiIGZvbnQtZmFtaWx5PSJzYW5zLXNlcmlmIiBmb250LXNpemU9IjE2LjUwNzciIGxlbmd0aEFkanVzdD0ic3BhY2luZyIgdGV4dExlbmd0aD0iNzQuMjg0NSIgeD0iNDgxLjA4MDkiIHk9IjM4OS4xODMyIj5MYW5nQ2hhaW48L3RleHQ+PHRleHQgZmlsbD0iIzAwMDAwMCIgZm9udC1mYW1pbHk9InNhbnMtc2VyaWYiIGZvbnQtc2l6ZT0iMTYuNTA3NyIgbGVuZ3RoQWRqdXN0PSJzcGFjaW5nIiB0ZXh0TGVuZ3RoPSI2Ni4wMzA3IiB4PSI0ODEuMDgwOSIgeT0iNDA2Ljg1MTYiPldvcmtmbG93PC90ZXh0PjwvZz48IS0tZW50aXR5IHNpbGljb24tLT48ZyBjbGFzcz0iZW50aXR5IiBkYXRhLWVudGl0eT0ic2lsaWNvbiIgZGF0YS1zb3VyY2UtbGluZT0iMzIiIGRhdGEtdWlkPSJlbnQwMDEyIiBpZD0iZW50aXR5X3NpbGljb24iPjxyZWN0IGZpbGw9IiNCQTY4QzgiIGhlaWdodD0iNzAuNzEwMyIgcng9IjIuOTQ3OCIgcnk9IjIuOTQ3OCIgc3R5bGU9InN0cm9rZTojMTgxODE4O3N0cm9rZS13aWR0aDowLjU4OTY7IiB3aWR0aD0iMTM3Ljk1NyIgeD0iNjk0LjUwMTUiIHk9IjQ2My4xOTE0Ii8+PHJlY3QgZmlsbD0iI0JBNjhDOCIgaGVpZ2h0PSIxMS43OTEyIiBzdHlsZT0ic3Ryb2tlOiMxODE4MTg7c3Ryb2tlLXdpZHRoOjAuNTg5NjsiIHdpZHRoPSIxNy42ODY4IiB4PSI4MDguODc2MiIgeT0iNDY5LjA4NyIvPjxyZWN0IGZpbGw9IiNCQTY4QzgiIGhlaWdodD0iMi4zNTgyIiBzdHlsZT0ic3Ryb2tlOiMxODE4MTg7c3Ryb2tlLXdpZHRoOjAuNTg5NjsiIHdpZHRoPSI0LjcxNjUiIHg9IjgwNi41MTc5IiB5PSI0NzEuNDQ1MiIvPjxyZWN0IGZpbGw9IiNCQTY4QzgiIGhlaWdodD0iMi4zNTgyIiBzdHlsZT0ic3Ryb2tlOiMxODE4MTg7c3Ryb2tlLXdpZHRoOjAuNTg5NjsiIHdpZHRoPSI0LjcxNjUiIHg9IjgwNi41MTc5IiB5PSI0NzYuMTYxNyIvPjx0ZXh0IGZpbGw9IiMwMDAwMDAiIGZvbnQtZmFtaWx5PSJzYW5zLXNlcmlmIiBmb250LXNpemU9IjE2LjUwNzciIGxlbmd0aEFkanVzdD0ic3BhY2luZyIgdGV4dExlbmd0aD0iOTAuNzkyMiIgeD0iNzEyLjE4ODMiIHk9IjUwMi4zNzg3Ij5TaWxpY29uRmxvdzwvdGV4dD48dGV4dCBmaWxsPSIjMDAwMDAwIiBmb250LWZhbWlseT0ic2Fucy1zZXJpZiIgZm9udC1zaXplPSIxNi41MDc3IiBsZW5ndGhBZGp1c3Q9InNwYWNpbmciIHRleHRMZW5ndGg9IjMzLjAxNTQiIHg9IjcxMi4xODgzIiB5PSI1MjAuMDQ3MSI+U0RYTDwvdGV4dD48L2c+PCEtLWVudGl0eSBkZWVwc2Vlay0tPjxnIGNsYXNzPSJlbnRpdHkiIGRhdGEtZW50aXR5PSJkZWVwc2VlayIgZGF0YS1zb3VyY2UtbGluZT0iMzMiIGRhdGEtdWlkPSJlbnQwMDEzIiBpZD0iZW50aXR5X2RlZXBzZWVrIj48cmVjdCBmaWxsPSIjNDJBNUY1IiBoZWlnaHQ9IjcwLjcxMDMiIHJ4PSIyLjk0NzgiIHJ5PSIyLjk0NzgiIHN0eWxlPSJzdHJva2U6IzE4MTgxODtzdHJva2Utd2lkdGg6MC41ODk2OyIgd2lkdGg9IjExMy4xOTU1IiB4PSI4NzAuNzc5OSIgeT0iNDYzLjE5MTQiLz48cmVjdCBmaWxsPSIjNDJBNUY1IiBoZWlnaHQ9IjExLjc5MTIiIHN0eWxlPSJzdHJva2U6IzE4MTgxODtzdHJva2Utd2lkdGg6MC41ODk2OyIgd2lkdGg9IjE3LjY4NjgiIHg9Ijk2MC4zOTMiIHk9IjQ2OS4wODciLz48cmVjdCBmaWxsPSIjNDJBNUY1IiBoZWlnaHQ9IjIuMzU4MiIgc3R5bGU9InN0cm9rZTojMTgxODE4O3N0cm9rZS13aWR0aDowLjU4OTY7IiB3aWR0aD0iNC43MTY1IiB4PSI5NTguMDM0OCIgeT0iNDcxLjQ0NTIiLz48cmVjdCBmaWxsPSIjNDJBNUY1IiBoZWlnaHQ9IjIuMzU4MiIgc3R5bGU9InN0cm9rZTojMTgxODE4O3N0cm9rZS13aWR0aDowLjU4OTY7IiB3aWR0aD0iNC43MTY1IiB4PSI5NTguMDM0OCIgeT0iNDc2LjE2MTciLz48dGV4dCBmaWxsPSIjMDAwMDAwIiBmb250LWZhbWlseT0ic2Fucy1zZXJpZiIgZm9udC1zaXplPSIxNi41MDc3IiBsZW5ndGhBZGp1c3Q9InNwYWNpbmciIHRleHRMZW5ndGg9IjY2LjAzMDciIHg9Ijg4OC40NjY3IiB5PSI1MDIuMzc4NyI+RGVlcFNlZWs8L3RleHQ+PHRleHQgZmlsbD0iIzAwMDAwMCIgZm9udC1mYW1pbHk9InNhbnMtc2VyaWYiIGZvbnQtc2l6ZT0iMTYuNTA3NyIgbGVuZ3RoQWRqdXN0PSJzcGFjaW5nIiB0ZXh0TGVuZ3RoPSIyNC43NjE1IiB4PSI4ODguNDY2NyIgeT0iNTIwLjA0NzEiPkxMTTwvdGV4dD48L2c+PCEtLWVudGl0eSBlcm5pZS0tPjxnIGNsYXNzPSJlbnRpdHkiIGRhdGEtZW50aXR5PSJlcm5pZSIgZGF0YS1zb3VyY2UtbGluZT0iMzQiIGRhdGEtdWlkPSJlbnQwMDE0IiBpZD0iZW50aXR5X2VybmllIj48cmVjdCBmaWxsPSIjNERCNkFDIiBoZWlnaHQ9IjcwLjcxMDMiIHJ4PSIyLjk0NzgiIHJ5PSIyLjk0NzgiIHN0eWxlPSJzdHJva2U6IzE4MTgxODtzdHJva2Utd2lkdGg6MC41ODk2OyIgd2lkdGg9IjExMy4xOTU1IiB4PSIxMDA4LjczNjkiIHk9IjQ2My4xOTE0Ii8+PHJlY3QgZmlsbD0iIzREQjZBQyIgaGVpZ2h0PSIxMS43OTEyIiBzdHlsZT0ic3Ryb2tlOiMxODE4MTg7c3Ryb2tlLXdpZHRoOjAuNTg5NjsiIHdpZHRoPSIxNy42ODY4IiB4PSIxMDk4LjM1MDEiIHk9IjQ2OS4wODciLz48cmVjdCBmaWxsPSIjNERCNkFDIiBoZWlnaHQ9IjIuMzU4MiIgc3R5bGU9InN0cm9rZTojMTgxODE4O3N0cm9rZS13aWR0aDowLjU4OTY7IiB3aWR0aD0iNC43MTY1IiB4PSIxMDk1Ljk5MTgiIHk9IjQ3MS40NDUyIi8+PHJlY3QgZmlsbD0iIzREQjZBQyIgaGVpZ2h0PSIyLjM1ODIiIHN0eWxlPSJzdHJva2U6IzE4MTgxODtzdHJva2Utd2lkdGg6MC41ODk2OyIgd2lkdGg9IjQuNzE2NSIgeD0iMTA5NS45OTE4IiB5PSI0NzYuMTYxNyIvPjx0ZXh0IGZpbGw9IiMwMDAwMDAiIGZvbnQtZmFtaWx5PSJzYW5zLXNlcmlmIiBmb250LXNpemU9IjE2LjUwNzciIGxlbmd0aEFkanVzdD0ic3BhY2luZyIgdGV4dExlbmd0aD0iNjYuMDMwNyIgeD0iMTAyNi40MjM3IiB5PSI1MDIuMzc4NyI+RXJuaWVCb3Q8L3RleHQ+PHRleHQgZmlsbD0iIzAwMDAwMCIgZm9udC1mYW1pbHk9InNhbnMtc2VyaWYiIGZvbnQtc2l6ZT0iMTYuNTA3NyIgbGVuZ3RoQWRqdXN0PSJzcGFjaW5nIiB0ZXh0TGVuZ3RoPSIzMy4wMTU0IiB4PSIxMDI2LjQyMzciIHk9IjUyMC4wNDcxIj4mIzIwMDEzOyYjMjU5OTE7PC90ZXh0PjwvZz48IS0tZW50aXR5IGNvemUtLT48ZyBjbGFzcz0iZW50aXR5IiBkYXRhLWVudGl0eT0iY296ZSIgZGF0YS1zb3VyY2UtbGluZT0iMzUiIGRhdGEtdWlkPSJlbnQwMDE1IiBpZD0iZW50aXR5X2NvemUiPjxyZWN0IGZpbGw9IiNGRkI3NEQiIGhlaWdodD0iNzAuNzEwMyIgcng9IjIuOTQ3OCIgcnk9IjIuOTQ3OCIgc3R5bGU9InN0cm9rZTojMTgxODE4O3N0cm9rZS13aWR0aDowLjU4OTY7IiB3aWR0aD0iMTEzLjE5NTUiIHg9IjExNDYuNjk0IiB5PSI0NjMuMTkxNCIvPjxyZWN0IGZpbGw9IiNGRkI3NEQiIGhlaWdodD0iMTEuNzkxMiIgc3R5bGU9InN0cm9rZTojMTgxODE4O3N0cm9rZS13aWR0aDowLjU4OTY7IiB3aWR0aD0iMTcuNjg2OCIgeD0iMTIzNi4zMDcxIiB5PSI0NjkuMDg3Ii8+PHJlY3QgZmlsbD0iI0ZGQjc0RCIgaGVpZ2h0PSIyLjM1ODIiIHN0eWxlPSJzdHJva2U6IzE4MTgxODtzdHJva2Utd2lkdGg6MC41ODk2OyIgd2lkdGg9IjQuNzE2NSIgeD0iMTIzMy45NDg4IiB5PSI0NzEuNDQ1MiIvPjxyZWN0IGZpbGw9IiNGRkI3NEQiIGhlaWdodD0iMi4zNTgyIiBzdHlsZT0ic3Ryb2tlOiMxODE4MTg7c3Ryb2tlLXdpZHRoOjAuNTg5NjsiIHdpZHRoPSI0LjcxNjUiIHg9IjEyMzMuOTQ4OCIgeT0iNDc2LjE2MTciLz48dGV4dCBmaWxsPSIjMDAwMDAwIiBmb250LWZhbWlseT0ic2Fucy1zZXJpZiIgZm9udC1zaXplPSIxNi41MDc3IiBsZW5ndGhBZGp1c3Q9InNwYWNpbmciIHRleHRMZW5ndGg9IjMzLjAxNTQiIHg9IjExNjQuMzgwOCIgeT0iNTAyLjM3ODciPkNvemU8L3RleHQ+PHRleHQgZmlsbD0iIzAwMDAwMCIgZm9udC1mYW1pbHk9InNhbnMtc2VyaWYiIGZvbnQtc2l6ZT0iMTYuNTA3NyIgbGVuZ3RoQWRqdXN0PSJzcGFjaW5nIiB0ZXh0TGVuZ3RoPSI2Ni4wMzA3IiB4PSIxMTY0LjM4MDgiIHk9IjUyMC4wNDcxIj5Xb3JrZmxvdzwvdGV4dD48L2c+PCEtLWVudGl0eSBteXNxbC0tPjxnIGNsYXNzPSJlbnRpdHkiIGRhdGEtZW50aXR5PSJteXNxbCIgZGF0YS1zb3VyY2UtbGluZT0iNDciIGRhdGEtdWlkPSJlbnQwMDIyIiBpZD0iZW50aXR5X215c3FsIj48cmVjdCBmaWxsPSIjMTk3NkQyIiBoZWlnaHQ9IjUzLjA0MiIgcng9IjIuOTQ3OCIgcnk9IjIuOTQ3OCIgc3R5bGU9InN0cm9rZTojMTgxODE4O3N0cm9rZS13aWR0aDowLjU4OTY7IiB3aWR0aD0iODguNDM0IiB4PSI3MTkuMjYzMSIgeT0iMjEwLjI3MDIiLz48cmVjdCBmaWxsPSIjMTk3NkQyIiBoZWlnaHQ9IjExLjc5MTIiIHN0eWxlPSJzdHJva2U6IzE4MTgxODtzdHJva2Utd2lkdGg6MC41ODk2OyIgd2lkdGg9IjE3LjY4NjgiIHg9Ijc4NC4xMTQ2IiB5PSIyMTYuMTY1OCIvPjxyZWN0IGZpbGw9IiMxOTc2RDIiIGhlaWdodD0iMi4zNTgyIiBzdHlsZT0ic3Ryb2tlOiMxODE4MTg7c3Ryb2tlLXdpZHRoOjAuNTg5NjsiIHdpZHRoPSI0LjcxNjUiIHg9Ijc4MS43NTY0IiB5PSIyMTguNTI0MSIvPjxyZWN0IGZpbGw9IiMxOTc2RDIiIGhlaWdodD0iMi4zNTgyIiBzdHlsZT0ic3Ryb2tlOiMxODE4MTg7c3Ryb2tlLXdpZHRoOjAuNTg5NjsiIHdpZHRoPSI0LjcxNjUiIHg9Ijc4MS43NTY0IiB5PSIyMjMuMjQwNSIvPjx0ZXh0IGZpbGw9IiMwMDAwMDAiIGZvbnQtZmFtaWx5PSJzYW5zLXNlcmlmIiBmb250LXNpemU9IjE2LjUwNzciIGxlbmd0aEFkanVzdD0ic3BhY2luZyIgdGV4dExlbmd0aD0iNDEuMjY5MiIgeD0iNzM2Ljk0OTgiIHk9IjI0OS40NTc1Ij5NeVNRTDwvdGV4dD48L2c+PCEtLWVudGl0eSBmYWlzcy0tPjxnIGNsYXNzPSJlbnRpdHkiIGRhdGEtZW50aXR5PSJmYWlzcyIgZGF0YS1zb3VyY2UtbGluZT0iNDgiIGRhdGEtdWlkPSJlbnQwMDIzIiBpZD0iZW50aXR5X2ZhaXNzIj48cmVjdCBmaWxsPSIjMjE5NkYzIiBoZWlnaHQ9IjcwLjcxMDMiIHJ4PSIyLjk0NzgiIHJ5PSIyLjk0NzgiIHN0eWxlPSJzdHJva2U6IzE4MTgxODtzdHJva2Utd2lkdGg6MC41ODk2OyIgd2lkdGg9IjExMy4xOTU1IiB4PSI3MDYuODgyMyIgeT0iMTAzLjU1OTkiLz48cmVjdCBmaWxsPSIjMjE5NkYzIiBoZWlnaHQ9IjExLjc5MTIiIHN0eWxlPSJzdHJva2U6IzE4MTgxODtzdHJva2Utd2lkdGg6MC41ODk2OyIgd2lkdGg9IjE3LjY4NjgiIHg9Ijc5Ni40OTU0IiB5PSIxMDkuNDU1NSIvPjxyZWN0IGZpbGw9IiMyMTk2RjMiIGhlaWdodD0iMi4zNTgyIiBzdHlsZT0ic3Ryb2tlOiMxODE4MTg7c3Ryb2tlLXdpZHRoOjAuNTg5NjsiIHdpZHRoPSI0LjcxNjUiIHg9Ijc5NC4xMzcyIiB5PSIxMTEuODEzNyIvPjxyZWN0IGZpbGw9IiMyMTk2RjMiIGhlaWdodD0iMi4zNTgyIiBzdHlsZT0ic3Ryb2tlOiMxODE4MTg7c3Ryb2tlLXdpZHRoOjAuNTg5NjsiIHdpZHRoPSI0LjcxNjUiIHg9Ijc5NC4xMzcyIiB5PSIxMTYuNTMwMiIvPjx0ZXh0IGZpbGw9IiMwMDAwMDAiIGZvbnQtZmFtaWx5PSJzYW5zLXNlcmlmIiBmb250LXNpemU9IjE2LjUwNzciIGxlbmd0aEFkanVzdD0ic3BhY2luZyIgdGV4dExlbmd0aD0iNDEuMjY5MiIgeD0iNzI0LjU2OTEiIHk9IjE0Mi43NDcyIj5GQUlTUzwvdGV4dD48dGV4dCBmaWxsPSIjMDAwMDAwIiBmb250LWZhbWlseT0ic2Fucy1zZXJpZiIgZm9udC1zaXplPSIxNi41MDc3IiBsZW5ndGhBZGp1c3Q9InNwYWNpbmciIHRleHRMZW5ndGg9IjY2LjAzMDciIHg9IjcyNC41NjkxIiB5PSIxNjAuNDE1NiI+VmVjdG9yREI8L3RleHQ+PC9nPjwhLS1lbnRpdHkgdXNlci0tPjxnIGNsYXNzPSJlbnRpdHkiIGRhdGEtZW50aXR5PSJ1c2VyIiBkYXRhLXNvdXJjZS1saW5lPSIxNiIgZGF0YS11aWQ9ImVudDAwMDIiIGlkPSJlbnRpdHlfdXNlciI+PGVsbGlwc2UgY3g9IjUyLjQ3MDgiIGN5PSI2MzIuMzk1MSIgZmlsbD0iI0ZGRjNFMCIgcng9IjkuNDMzIiByeT0iOS40MzMiIHN0eWxlPSJzdHJva2U6IzE4MTgxODtzdHJva2Utd2lkdGg6MC41ODk2OyIvPjxwYXRoIGQ9Ik01Mi40NzA4LDY0MS44MjggTDUyLjQ3MDgsNjczLjY2NDMgTTM3LjE0MjMsNjUxLjI2MSBMNjcuNzk5NCw2NTEuMjYxIE01Mi40NzA4LDY3My42NjQzIEwzNy4xNDIzLDY5MS4zNTExIE01Mi40NzA4LDY3My42NjQzIEw2Ny43OTk0LDY5MS4zNTExIiBmaWxsPSJub25lIiBzdHlsZT0ic3Ryb2tlOiMxODE4MTg7c3Ryb2tlLXdpZHRoOjAuNTg5NjsiLz48dGV4dCBmaWxsPSIjMDAwMDAwIiBmb250LWZhbWlseT0ic2Fucy1zZXJpZiIgZm9udC1zaXplPSIxNi41MDc3IiBsZW5ndGhBZGp1c3Q9InNwYWNpbmciIHRleHRMZW5ndGg9IjMzLjAxNTQiIHg9IjcuMDc0NyIgeT0iNzA4LjcyNDciPlVzZXI8L3RleHQ+PHRleHQgZmlsbD0iIzAwMDAwMCIgZm9udC1mYW1pbHk9InNhbnMtc2VyaWYiIGZvbnQtc2l6ZT0iMTYuNTA3NyIgbGVuZ3RoQWRqdXN0PSJzcGFjaW5nIiB0ZXh0TGVuZ3RoPSI5MC43OTIyIiB4PSI3LjA3NDciIHk9IjcyNi4zOTMiPihIVFRQL1JFU1QpPC90ZXh0PjwvZz48ZyBjbGFzcz0iZW50aXR5IiBkYXRhLWVudGl0eT0iR01OMzEiIGRhdGEtc291cmNlLWxpbmU9IjY0IiBkYXRhLXVpZD0iZW50MDAzMiIgaWQ9ImVudGl0eV9HTU4zMSI+PHBhdGggZD0iTTQ0OS44MzQyLDIwOS42ODA3IEw0NDkuODM0MiwyOTIuMTQ1MyBMNTk4LjQwMzMsMjkyLjE0NTMgTDU5OC40MDMzLDIyMS40NzE5IEw1ODYuNjEyMSwyMDkuNjgwNyBMNDQ5LjgzNDIsMjA5LjY4MDciIGZpbGw9IiNGRUZGREQiIHN0eWxlPSJzdHJva2U6IzE4MTgxODtzdHJva2Utd2lkdGg6MC41ODk2OyIvPjxwYXRoIGQ9Ik01ODYuNjEyMSwyMDkuNjgwNyBMNTg2LjYxMjEsMjIxLjQ3MTkgTDU5OC40MDMzLDIyMS40NzE5IEw1ODYuNjEyMSwyMDkuNjgwNyIgZmlsbD0iI0ZFRkZERCIgc3R5bGU9InN0cm9rZTojMTgxODE4O3N0cm9rZS13aWR0aDoxLjE3OTE7Ii8+PHRleHQgZmlsbD0iIzAwMDAwMCIgZm9udC1mYW1pbHk9InNhbnMtc2VyaWYiIGZvbnQtc2l6ZT0iMTYuNTA3NyIgZm9udC13ZWlnaHQ9ImJvbGQiIGxlbmd0aEFkanVzdD0ic3BhY2luZyIgdGV4dExlbmd0aD0iODIuNTM4NCIgeD0iNDU2LjkwODkiIHk9IjIzMS4xODEyIj4mIzI2NjgwOyYjMjQ1MTU7JiMyMTE1MTsmIzMzMDIxOyYjNjUzMDY7PC90ZXh0Pjx0ZXh0IGZpbGw9IiMwMDAwMDAiIGZvbnQtZmFtaWx5PSJzYW5zLXNlcmlmIiBmb250LXNpemU9IjE2LjUwNzciIGxlbmd0aEFkanVzdD0ic3BhY2luZyIgdGV4dExlbmd0aD0iMTE1LjU1MzciIHg9IjQ1Ni45MDg5IiB5PSIyNDguODQ5NSI+JiM4MjI2OyAmIzMyNDc5OyYjMTk5Njg7JiMyMDgzNzsmIzIxNDc1OyYjMzYzMzU7JiMzMDAwMTs8L3RleHQ+PHRleHQgZmlsbD0iIzAwMDAwMCIgZm9udC1mYW1pbHk9InNhbnMtc2VyaWYiIGZvbnQtc2l6ZT0iMTYuNTA3NyIgbGVuZ3RoQWRqdXN0PSJzcGFjaW5nIiB0ZXh0TGVuZ3RoPSIxMDcuMjk5OSIgeD0iNDU2LjkwODkiIHk9IjI2Ni41MTc5Ij4mIzgyMjY7IEpXVCYjMzU3NDg7JiMzNTc3NzsmIzM3NDkyOyYjMjY0MzU7PC90ZXh0Pjx0ZXh0IGZpbGw9IiMwMDAwMDAiIGZvbnQtZmFtaWx5PSJzYW5zLXNlcmlmIiBmb250LXNpemU9IjE2LjUwNzciIGxlbmd0aEFkanVzdD0ic3BhY2luZyIgdGV4dExlbmd0aD0iMTIzLjgwNzYiIHg9IjQ1Ni45MDg5IiB5PSIyODQuMTg2MyI+JiM4MjI2OyAmIzIwMjUwOyYjMzU4MDU7LyYjMzg0ODA7JiMyNzk2OTsmIzMxNjQ5OyYjMjk3MDI7PC90ZXh0PjwvZz48ZyBjbGFzcz0iZW50aXR5IiBkYXRhLWVudGl0eT0iR01OMzQiIGRhdGEtc291cmNlLWxpbmU9IjcxIiBkYXRhLXVpZD0iZW50MDAzNSIgaWQ9ImVudGl0eV9HTU4zNCI+PHBhdGggZD0iTTE0Ny4zOSw4MjguMTI5IEwxNDcuMzksODkyLjkyNTMgQTAsMCAwIDAgMCAxNDcuMzksODkyLjkyNTMgTDMyMC43MjA2LDg5Mi45MjUzIEEwLDAgMCAwIDAgMzIwLjcyMDYsODkyLjkyNTMgTDMyMC43MjA2LDgzOS45MjAyIEwzMDguOTI5NCw4MjguMTI5IEwyOTMuMDU4NCw4MjguMTI5IEw0NzkuMDg4MSw3MTEuNjQzNyBMMjgzLjYyNTUsODI4LjEyOSBMMTQ3LjM5LDgyOC4xMjkgQTAsMCAwIDAgMCAxNDcuMzksODI4LjEyOSIgZmlsbD0iI0ZFRkZERCIgc3R5bGU9InN0cm9rZTojMTgxODE4O3N0cm9rZS13aWR0aDowLjU4OTY7Ii8+PHBhdGggZD0iTTMwOC45Mjk0LDgyOC4xMjkgTDMwOC45Mjk0LDgzOS45MjAyIEwzMjAuNzIwNiw4MzkuOTIwMiBMMzA4LjkyOTQsODI4LjEyOSIgZmlsbD0iI0ZFRkZERCIgc3R5bGU9InN0cm9rZTojMTgxODE4O3N0cm9rZS13aWR0aDowLjU4OTY7Ii8+PHRleHQgZmlsbD0iIzAwMDAwMCIgZm9udC1mYW1pbHk9InNhbnMtc2VyaWYiIGZvbnQtc2l6ZT0iMTYuNTA3NyIgZm9udC13ZWlnaHQ9ImJvbGQiIGxlbmd0aEFkanVzdD0ic3BhY2luZyIgdGV4dExlbmd0aD0iMTIzLjgwNzYiIHg9IjE1NC40NjQ3IiB5PSI4NDkuNjI5NSI+V2ViU29ja2V0JiMzNjg5MDsmIzM2OTQ3OyYjNjUzMDY7PC90ZXh0Pjx0ZXh0IGZpbGw9IiMwMDAwMDAiIGZvbnQtZmFtaWx5PSJzYW5zLXNlcmlmIiBmb250LXNpemU9IjE2LjUwNzciIGxlbmd0aEFkanVzdD0ic3BhY2luZyIgdGV4dExlbmd0aD0iMTQ4LjU2OTEiIHg9IjE1NC40NjQ3IiB5PSI4NjcuMjk3OSI+JiM4MjI2OyAmIzI5NDIwOyYjMjEzNDQ7RGVlcFNlZWsmIzM2ODMwOyYjMjU1MDk7PC90ZXh0Pjx0ZXh0IGZpbGw9IiMwMDAwMDAiIGZvbnQtZmFtaWx5PSJzYW5zLXNlcmlmIiBmb250LXNpemU9IjE2LjUwNzciIGxlbmd0aEFkanVzdD0ic3BhY2luZyIgdGV4dExlbmd0aD0iMTMyLjA2MTQiIHg9IjE1NC40NjQ3IiB5PSI4ODQuOTY2MiI+JiM4MjI2OyAmIzM5NjQwOyYjMjQxODI7JiMyMTQ1NzsmIzI3OTY5OyYjMjQzMzU7JiMyMTcwOTsmIzI0MjEyOzwvdGV4dD48L2c+PCEtLWxpbmsgdXNlciB0byBkamFuZ29fYXBpLS0+PGcgY2xhc3M9ImxpbmsiIGRhdGEtZW50aXR5LTE9InVzZXIiIGRhdGEtZW50aXR5LTI9ImRqYW5nb19hcGkiIGRhdGEtc291cmNlLWxpbmU9IjIzIiBkYXRhLXVpZD0ibG5rNyIgaWQ9ImxpbmtfdXNlcl9kamFuZ29fYXBpIj48cGF0aCBkPSJNOTcuOTQ5NSw2NzUuNDMzIEMxMTMuMjg5OCw2NzUuNDMzIDEyMy45NjA5LDY3NS40MzMgMTQxLjQ0NzIsNjc1LjQzMyIgZmlsbD0ibm9uZSIgaWQ9InVzZXItdG8tZGphbmdvX2FwaSIgc3R5bGU9InN0cm9rZTojMTgxODE4O3N0cm9rZS13aWR0aDoxLjE3OTE7Ii8+PHBvbHlnb24gZmlsbD0iIzE4MTgxOCIgcG9pbnRzPSIxNDguNTIxOSw2NzUuNDMzLDEzNy45MDk4LDY3MC43MTY1LDE0Mi42MjYzLDY3NS40MzMsMTM3LjkwOTgsNjgwLjE0OTQsMTQ4LjUyMTksNjc1LjQzMyIgc3R5bGU9InN0cm9rZTojMTgxODE4O3N0cm9rZS13aWR0aDoxLjE3OTE7Ii8+PC9nPjwhLS1saW5rIGRqYW5nb19hcGkgdG8gZGphbmdvX3NlcnZpY2VzLS0+PGcgY2xhc3M9ImxpbmsiIGRhdGEtZW50aXR5LTE9ImRqYW5nb19hcGkiIGRhdGEtZW50aXR5LTI9ImRqYW5nb19zZXJ2aWNlcyIgZGF0YS1zb3VyY2UtbGluZT0iMjkiIGRhdGEtdWlkPSJsbmsxMCIgaWQ9ImxpbmtfZGphbmdvX2FwaV9kamFuZ29fc2VydmljZXMiPjxwYXRoIGQ9Ik0yNzUuMjQxOSw2NDguNzE0MSBDMzMwLjA0NzQsNjEyLjA5MDYgNDIyLjA1NTEsNTUwLjYyNjYgNDc2LjkzMTMsNTEzLjk2NzciIGZpbGw9Im5vbmUiIGlkPSJkamFuZ29fYXBpLXRvLWRqYW5nb19zZXJ2aWNlcyIgc3R5bGU9InN0cm9rZTojMTgxODE4O3N0cm9rZS13aWR0aDoxLjE3OTE7Ii8+PHBvbHlnb24gZmlsbD0iIzE4MTgxOCIgcG9pbnRzPSI0ODIuODE0Miw1MTAuMDM3OCw0NzEuMzcsNTEyLjAxMDgsNDc3LjkxMTgsNTEzLjMxMjcsNDc2LjYwOTksNTE5Ljg1NDUsNDgyLjgxNDIsNTEwLjAzNzgiIHN0eWxlPSJzdHJva2U6IzE4MTgxODtzdHJva2Utd2lkdGg6MS4xNzkxOyIvPjwvZz48IS0tbGluayBkamFuZ29fc2VydmljZXMgdG8gc2lsaWNvbi0tPjxnIGNsYXNzPSJsaW5rIiBkYXRhLWVudGl0eS0xPSJkamFuZ29fc2VydmljZXMiIGRhdGEtZW50aXR5LTI9InNpbGljb24iIGRhdGEtc291cmNlLWxpbmU9IjM2IiBkYXRhLXVpZD0ibG5rMTYiIGlkPSJsaW5rX2RqYW5nb19zZXJ2aWNlc19zaWxpY29uIj48cGF0aCBkPSJNNjA5Ljg1MjUsNDg4LjcwNzYgQzYzNy41MDI5LDQ5MC40ODggNjYwLjc5MzQsNDkyLjAwMTEgNjg3LjA3Niw0OTMuNjk5IiBmaWxsPSJub25lIiBpZD0iZGphbmdvX3NlcnZpY2VzLXRvLXNpbGljb24iIHN0eWxlPSJzdHJva2U6IzE4MTgxODtzdHJva2Utd2lkdGg6MS4xNzkxOyIvPjxwb2x5Z29uIGZpbGw9IiMxODE4MTgiIHBvaW50cz0iNjk0LjEzNiw0OTQuMTU1MSw2ODMuODUwMSw0ODguNzY0Myw2ODguMjUyNyw0OTMuNzc1LDY4My4yNDE5LDQ5OC4xNzc2LDY5NC4xMzYsNDk0LjE1NTEiIHN0eWxlPSJzdHJva2U6IzE4MTgxODtzdHJva2Utd2lkdGg6MS4xNzkxOyIvPjwvZz48IS0tbGluayBkamFuZ29fc2VydmljZXMgdG8gZGVlcHNlZWstLT48ZyBjbGFzcz0ibGluayIgZGF0YS1lbnRpdHktMT0iZGphbmdvX3NlcnZpY2VzIiBkYXRhLWVudGl0eS0yPSJkZWVwc2VlayIgZGF0YS1zb3VyY2UtbGluZT0iMzciIGRhdGEtdWlkPSJsbmsxNyIgaWQ9ImxpbmtfZGphbmdvX3NlcnZpY2VzX2RlZXBzZWVrIj48cGF0aCBkPSJNNjAyLjk3ODMsNDU2LjYyMzcgQzY2OS40NTcsNDM3Ljk1ODIgNzY3LjAyOTIsNDIwLjQxMjkgODQ4LjM3NjcsNDQ1LjUwNDYgQzg1Mi4wNDM3LDQ0Ni42MzY2IDg1Ny42OTA3LDQ1MC4wNzQ4IDg3MC43MzE4LDQ1OS4wNTk2IiBmaWxsPSJub25lIiBpZD0iZGphbmdvX3NlcnZpY2VzLXRvLWRlZXBzZWVrIiBzdHlsZT0ic3Ryb2tlOiMxODE4MTg7c3Ryb2tlLXdpZHRoOjEuMTc5MTsiLz48cG9seWdvbiBmaWxsPSIjMTgxODE4IiBwb2ludHM9Ijg3Ni41NTc2LDQ2My4wNzM1LDg3MC40OTQ3LDQ1My4xNjg4LDg3MS43MDI3LDQ1OS43Mjg2LDg2NS4xNDI5LDQ2MC45MzY2LDg3Ni41NTc2LDQ2My4wNzM1IiBzdHlsZT0ic3Ryb2tlOiMxODE4MTg7c3Ryb2tlLXdpZHRoOjEuMTc5MTsiLz48L2c+PCEtLWxpbmsgZGphbmdvX3NlcnZpY2VzIHRvIGVybmllLS0+PGcgY2xhc3M9ImxpbmsiIGRhdGEtZW50aXR5LTE9ImRqYW5nb19zZXJ2aWNlcyIgZGF0YS1lbnRpdHktMj0iZXJuaWUiIGRhdGEtc291cmNlLWxpbmU9IjM4IiBkYXRhLXVpZD0ibG5rMTgiIGlkPSJsaW5rX2RqYW5nb19zZXJ2aWNlc19lcm5pZSI+PHBhdGggZD0iTTU5OC4zMjA3LDQ1Ni42NDczIEM2MTQuMTMyNyw0NTAuNzUxNyA2MzAuNzM0Nyw0NDQuNDY3IDY0Ni4xNTc2LDQzOC40Mjk5IEM2NTUuMTMwNyw0MzQuOTE2MSA2NTYuNzQ2MSw0MzIuMDUwOCA2NjYuMjAyNyw0MzAuMTc2IEM4MDQuOTE0Myw0MDIuNzM3OSA4NTEuMDg4NiwzOTcuMjA3OSA5ODMuOTc1NCw0NDUuNTA0NiBDOTkwLjgwMjUsNDQ3Ljk4MDggOTk2LjM2LDQ1MC45ODU4IDEwMDguNDkzMSw0NTkuMDUxIiBmaWxsPSJub25lIiBpZD0iZGphbmdvX3NlcnZpY2VzLXRvLWVybmllIiBzdHlsZT0ic3Ryb2tlOiMxODE4MTg7c3Ryb2tlLXdpZHRoOjEuMTc5MTsiLz48cG9seWdvbiBmaWxsPSIjMTgxODE4IiBwb2ludHM9IjEwMTQuMzg0OSw0NjIuOTY3NCwxMDA4LjE1ODIsNDUzLjE2NDksMTAwOS40NzUxLDQ1OS43MDM3LDEwMDIuOTM2Myw0NjEuMDIwNiwxMDE0LjM4NDksNDYyLjk2NzQiIHN0eWxlPSJzdHJva2U6IzE4MTgxODtzdHJva2Utd2lkdGg6MS4xNzkxOyIvPjwvZz48IS0tbGluayBkamFuZ29fc2VydmljZXMgdG8gY296ZS0tPjxnIGNsYXNzPSJsaW5rIiBkYXRhLWVudGl0eS0xPSJkamFuZ29fc2VydmljZXMiIGRhdGEtZW50aXR5LTI9ImNvemUiIGRhdGEtc291cmNlLWxpbmU9IjM5IiBkYXRhLXVpZD0ibG5rMTkiIGlkPSJsaW5rX2RqYW5nb19zZXJ2aWNlc19jb3plIj48cGF0aCBkPSJNNjA5Ljg4NzksNDU5LjcyNDggQzYyMi43NzU3LDQ1My45ODI1IDYzNS4zNTY5LDQ0Ni45NjY3IDY0Ni4xNTc2LDQzOC40Mjk5IEM2NTIuMDg4Niw0MzMuNzQ4OCA2NTEuMDk4MSw0MzAuMzUyOSA2NTUuNTkwNiw0MjQuMjgwNSBDNjYwLjAyNDEsNDE4LjI5MDUgNjYwLjYxMzYsNDE2LjIzODkgNjY2LjIwMjcsNDExLjMxMDEgQzcwNC4wMDUyLDM3OC4wMTE4IDcxMS45MTcxLDM1MS4xNzUgNzYyLjMwMDksMzUxLjE3NSBDNzYyLjMwMDksMzUxLjE3NSA3NjIuMzAwOSwzNTEuMTc1IDEwNjYuNTEzOCwzNTEuMTc1IEMxMTI3LjAxNDUsMzUxLjE3NSAxMTY0Ljk3MDksNDEyLjgzNzYgMTE4NC45NTcsNDU2LjQ1MzIiIGZpbGw9Im5vbmUiIGlkPSJkamFuZ29fc2VydmljZXMtdG8tY296ZSIgc3R5bGU9InN0cm9rZTojMTgxODE4O3N0cm9rZS13aWR0aDoxLjE3OTE7Ii8+PHBvbHlnb24gZmlsbD0iIzE4MTgxOCIgcG9pbnRzPSIxMTg3LjkwNDIsNDYyLjg4NDgsMTE4Ny43NzEyLDQ1MS4yNzI2LDExODUuNDQ4Miw0NTcuNTI1MSwxMTc5LjE5NTcsNDU1LjIwMjIsMTE4Ny45MDQyLDQ2Mi44ODQ4IiBzdHlsZT0ic3Ryb2tlOiMxODE4MTg7c3Ryb2tlLXdpZHRoOjEuMTc5MTsiLz48L2c+PCEtLWxpbmsgZGphbmdvX3NlcnZpY2VzIHRvIG15c3FsLS0+PGcgY2xhc3M9ImxpbmsiIGRhdGEtZW50aXR5LTE9ImRqYW5nb19zZXJ2aWNlcyIgZGF0YS1lbnRpdHktMj0ibXlzcWwiIGRhdGEtc291cmNlLWxpbmU9IjQ5IiBkYXRhLXVpZD0ibG5rMjQiIGlkPSJsaW5rX2RqYW5nb19zZXJ2aWNlc19teXNxbCI+PHBhdGggZD0iTTYwOS43Nyw0NjUuODc5OCBDNjIzLjgwMTUsNDU5LjQzIDYzNi44MDcyLDQ1MC41NzQ4IDY0Ni4xNTc2LDQzOC40Mjk5IEM2NTkuMzI4NCw0MjEuMzMyNyA2NDYuMjg3MywzNjEuMjIxMSA2NTUuNTkwNiwzNDEuNzQyMSBDNjcwLjgxMywzMDkuODU4NyA2OTQuNDI1NSwyODYuNjA4IDcxOC40MjA2LDI2Ny43MTg1IiBmaWxsPSJub25lIiBpZD0iZGphbmdvX3NlcnZpY2VzLXRvLW15c3FsIiBzdHlsZT0ic3Ryb2tlOiMxODE4MTg7c3Ryb2tlLXdpZHRoOjEuMTc5MTsiLz48cG9seWdvbiBmaWxsPSIjMTgxODE4IiBwb2ludHM9IjcyMy45Nzk1LDI2My4zNDI0LDcxMi43MjM4LDI2Ni4yMDA2LDcxOS4zNDcxLDI2Ni45ODkxLDcxOC41NTg2LDI3My42MTI1LDcyMy45Nzk1LDI2My4zNDI0IiBzdHlsZT0ic3Ryb2tlOiMxODE4MTg7c3Ryb2tlLXdpZHRoOjEuMTc5MTsiLz48L2c+PCEtLWxpbmsgbGFuZ2NoYWluIHRvIGZhaXNzLS0+PGcgY2xhc3M9ImxpbmsiIGRhdGEtZW50aXR5LTE9ImxhbmdjaGFpbiIgZGF0YS1lbnRpdHktMj0iZmFpc3MiIGRhdGEtc291cmNlLWxpbmU9IjUwIiBkYXRhLXVpZD0ibG5rMjUiIGlkPSJsaW5rX2xhbmdjaGFpbl9mYWlzcyI+PHBhdGggZD0iTTU4NC44NTUyLDM2MS4xMTUgQzYwNy40NDcxLDM0OC45OTM3IDYzMS4yNzcxLDMzMi4wOTY5IDY0Ni4xNTc2LDMwOS45MDU4IEM2NzUuNzUzNSwyNjUuNzQ3OCA2MzUuNDI3NiwyMzUuMzM4MyA2NjYuMjAyNywxOTEuOTkzOSBDNjc2LjIzNywxNzcuODU2MiA2ODUuMDI1LDE3MC4zNTYzIDcwMC4yNDc1LDE2Mi4zMjY1IiBmaWxsPSJub25lIiBpZD0ibGFuZ2NoYWluLXRvLWZhaXNzIiBzdHlsZT0ic3Ryb2tlOiMxODE4MTg7c3Ryb2tlLXdpZHRoOjEuMTc5MTsiLz48cG9seWdvbiBmaWxsPSIjMTgxODE4IiBwb2ludHM9IjcwNi41MDUsMTU5LjAyNTcsNjk0LjkxODIsMTU5LjgwNTIsNzAxLjI5MDQsMTYxLjc3NjQsNjk5LjMxOTMsMTY4LjE0ODYsNzA2LjUwNSwxNTkuMDI1NyIgc3R5bGU9InN0cm9rZTojMTgxODE4O3N0cm9rZS13aWR0aDoxLjE3OTE7Ii8+PC9nPjwhLS1saW5rIGRqYW5nb19hcGkgdG8gZmFzdGFwaV93cy0tPjxnIGNsYXNzPSJsaW5rIiBkYXRhLWVudGl0eS0xPSJkamFuZ29fYXBpIiBkYXRhLWVudGl0eS0yPSJmYXN0YXBpX3dzIiBkYXRhLXNvdXJjZS1saW5lPSI1NCIgZGF0YS11aWQ9ImxuazI2IiBpZD0ibGlua19kamFuZ29fYXBpX2Zhc3RhcGlfd3MiPjxwYXRoIGQ9Ik0zMTkuNjEyMiw2NzguMjAzOSBDMzU0LjI2NjUsNjc5LjMzNTggMzg3LjQzOSw2ODAuNDIzOSA0MjIuOTMwNSw2ODEuNTkxMiIgZmlsbD0ibm9uZSIgaWQ9ImRqYW5nb19hcGktdG8tZmFzdGFwaV93cyIgc3R5bGU9InN0cm9rZTojMDI4OEQxO3N0cm9rZS13aWR0aDoxLjE3OTE7Ii8+PHBvbHlnb24gZmlsbD0iIzAyODhEMSIgcG9pbnRzPSI0MzAuMDAxNCw2ODEuODIzOCw0MTkuNTUwMSw2NzYuNzYxLDQyNC4xMDksNjgxLjYzLDQxOS4yNCw2ODYuMTg4OSw0MzAuMDAxNCw2ODEuODIzOCIgc3R5bGU9InN0cm9rZTojMDI4OEQxO3N0cm9rZS13aWR0aDoxLjE3OTE7Ii8+PHRleHQgZmlsbD0iIzAwMDAwMCIgZm9udC1mYW1pbHk9InNhbnMtc2VyaWYiIGZvbnQtc2l6ZT0iMTYuNTA3NyIgbGVuZ3RoQWRqdXN0PSJzcGFjaW5nIiB0ZXh0TGVuZ3RoPSI2Ni4wMzA3IiB4PSIzMzMuNjkwOSIgeT0iNjU5LjIwMTYiPkRlZXBTZWVrPC90ZXh0Pjx0ZXh0IGZpbGw9IiMwMDAwMDAiIGZvbnQtZmFtaWx5PSJzYW5zLXNlcmlmIiBmb250LXNpemU9IjE2LjUwNzciIGxlbmd0aEFkanVzdD0ic3BhY2luZyIgdGV4dExlbmd0aD0iNjYuMDMwNyIgeD0iMzMzLjY5MDkiIHk9IjY3Ni44NyI+JiMyNzk2OTsmIzI0MzM1OyYjMzU4MzE7JiMyNzcxNDs8L3RleHQ+PC9nPjwhLS1saW5rIGZhc3RhcGlfd3MgdG8gZGVlcHNlZWstLT48ZyBjbGFzcz0ibGluayIgZGF0YS1lbnRpdHktMT0iZmFzdGFwaV93cyIgZGF0YS1lbnRpdHktMj0iZGVlcHNlZWsiIGRhdGEtc291cmNlLWxpbmU9IjU1IiBkYXRhLXVpZD0ibG5rMjciIGlkPSJsaW5rX2Zhc3RhcGlfd3NfZGVlcHNlZWsiPjxwYXRoIGQ9Ik02MTguMTE4Miw2NjIuODA0NiBDNjg1LjE5ODMsNjQ0LjM2MzIgNzc2LjI5NzEsNjE0LjAwMDggODQ4LjM3NjcsNTcwLjQ5MTMgQzg2NC43NTQ2LDU2MC41OTg1IDg3NS42MDkxLDU1MS44MTQzIDg4OC43MzI3LDUzOS4wMDkxIiBmaWxsPSJub25lIiBpZD0iZmFzdGFwaV93cy10by1kZWVwc2VlayIgc3R5bGU9InN0cm9rZTojMTU2NUMwO3N0cm9rZS13aWR0aDoxLjE3OTE7Ii8+PHBvbHlnb24gZmlsbD0iIzE1NjVDMCIgcG9pbnRzPSI4OTMuNzk2NCw1MzQuMDY4Myw4ODIuOTA3MSw1MzguMTAzNyw4ODkuNTc2Nyw1MzguMTg1Niw4ODkuNDk0OCw1NDQuODU1Miw4OTMuNzk2NCw1MzQuMDY4MyIgc3R5bGU9InN0cm9rZTojMTU2NUMwO3N0cm9rZS13aWR0aDoxLjE3OTE7Ii8+PHRleHQgZmlsbD0iIzAwMDAwMCIgZm9udC1mYW1pbHk9InNhbnMtc2VyaWYiIGZvbnQtc2l6ZT0iMTYuNTA3NyIgbGVuZ3RoQWRqdXN0PSJzcGFjaW5nIiB0ZXh0TGVuZ3RoPSI4Mi41Mzg0IiB4PSI3MjIuMjEwOCIgeT0iNTY4LjQwOTQiPiYjMzk2NDA7JiMyNDYxNTsmIzMzMDIxOyYjMzU4NDM7JiMyOTk5Mjs8L3RleHQ+PC9nPjwhLS1saW5rIHNpbGljb24gdG8gZGVlcHNlZWstLT48IS0tbGluayBkZWVwc2VlayB0byBlcm5pZS0tPjwhLS1saW5rIGVybmllIHRvIGNvemUtLT48IS0tbGluayBkamFuZ29fYXBpIHRvIEdNTjMxLS0+PGcgY2xhc3M9ImxpbmsiIGRhdGEtZW50aXR5LTE9ImRqYW5nb19hcGkiIGRhdGEtZW50aXR5LTI9IkdNTjMxIiBkYXRhLXNvdXJjZS1saW5lPSI2NCIgZGF0YS11aWQ9ImxuazMzIiBpZD0ibGlua19kamFuZ29fYXBpX0dNTjMxIj48cGF0aCBkPSJNMjQzLjkwMDksNjQ4Ljg1NTYgQzI2NC44MDY3LDU4Ny42OTQ3IDMyMi44NjY2LDQzNC4zODU1IDQxMC4zMzM3LDMzMi4zMDkxIEM0MjMuMDQ0NiwzMTcuNDc1OCA0MzguOTg2MywzMDMuODgwNSA0NTQuODQ1NCwyOTIuMjMwOCIgZmlsbD0ibm9uZSIgaWQ9ImRqYW5nb19hcGktR01OMzEiIHN0eWxlPSJzdHJva2U6IzE4MTgxODtzdHJva2Utd2lkdGg6MS43Njg3O3N0cm9rZS1kYXNoYXJyYXk6Ny4wLDcuMDsiLz48L2c+PCEtLVNSQz1bVkxMakp6ak01RnhrTnQ2TlZFWnNXUDN0WDJnQWJDSm5JMUthamNIWjRhNzhzM1Y0WlY1YmpZY1o0cjhlUW1raUczamUyc1lYaUJLZ3FaT2Vlb2txUEVFX0pEWG5GbDROVGd1VFdlald2MUZGVVN1dnB0Y3ZucmZMS2lQdmJIejNPcUdYR2FLYk9uWUxVTGQzWkRPbkFLSjQ2WHY3OFJ5Qkw3Y2JJaTZXNm5IbmNQLUdUT3VlVWE2d1lyNFdwRVlJQmFEOEczR1JZSkJDOXEySjU4cHctdWwzMHBjc3Mwa2V0X3lIdDlsRFZUdlJIM3EwUW04bGt4ZFZrR1hDRXRtZ1h2ZTdueXRaNXlSUzBzRl9kaGR2cGpweWVRR2FRQ2dSV00ySWxTcWhlbUppZnFTcnd0MmxrUmdWb2ZhX0JuZUJzdWJrb2Fhb1o4cEJFajg5S2dOSFlldjRJU00yQlg2NU9Nd1dXMHlyTHRWQ2tLQzhwVjIySmJKYS1LaDNRYWR2akJUT3hFXy1DYmllVmtQMWw4T2MwNExVWmtEMk1KX3IzRmZHZ1p5N1JjVURFTWtiUml0XzJKQkY2bEZDRTJ6Sy1MNkNGNjE2VU51QWdueGFwT1F1OENVWXhuYzQxWHQ1WThRYzhPUGVURDc2WGxibjJOZDNOMlI0bklZSnVwTVRIWGQwOG1LWUxCNWtTeWswMGQ1dUthRlVRM1dUdVFCMDVOY1Q3LTRySTdqaDBDOUV3MUxSelVyOTdOYTNGUjRlNm1JSU5LRE5MekFMWmZjY25PSHl3RkhlMHRoTWdYclJfcG5uZ2NlVWRybkhMTmYyV3FiZzZpZ0pLS2NXZlNNdklCUmRlejhBTUJxWjJMWHBid1FyQ1VJRDFwQW5VOVhnbFlaUTlVZ1NvMDNaZWZTdnI0VjQySGJoN2ZIOHEwNDJMeVI5OUVIZGlwNGtRa1M3MUdMOWJXSVlTM0FQQjJhNXpma3loSzVwS0VIRGZ3Qm5KRG9YaVhZRjVwMmtiZkh5bGktSDJlVzYyQ21XYzhmbTRPVU5MSEs5ZnViVUthd0ZfWjJWRlJJZmM4QjBPekZITENSWFBTWFRONTg2WTVlakd0UVI5RzE0Ym9PVDJ4Q3N3TjhwUURyalNUVlFwckxUSXgyck42a2I2aTB1SlZpdmMwVHhmaTlCb1lNWENrMDJuSmxaaVZTWXg0RmNxcFZjdWt4X3hKYUJndFZiZWxURDVSdm0tWnlzZk5xaGtuUG5hNGxiMmVNSXlaTWNKdXZEal9UUVdoTm8xV0N6S0l4NE41c0M3R1hpNXRlZlFkaXdZWUMtUERtX1FBdGtNWVVSdmpBaHZlU0pxNnEtY1pTTU5iWXBWcFZoRElZMGdkVmx0ZzNON3VwN3NTMkc3UWhwazZ2MlFQcUxDVi1RQ0hoQnJqd1hrTl9GbXhYT3UxczhIMkNQX3YxaExESXR6VGtRTU5pRElRcXRpdDFaRjVIVDVGZ3Zpc3RLZHZqQkZuYnBwcXlSUXlRWlB5cHZUZE9ETFlISG44ZXg0akM5d1JPdzR0VHNxOHRSaXVPeUNOWkY5X05jcXRMcHd5V3VjSktGVGJlRjUtWUpWZHRTTWR5OTF6OE1PVXN6RFRVTVEzU0tla0ZzVUlIYnp0TDBBMzZJVDg4dTdKbmhSMkl3SHY5Vy1CVnMydEJFaGQ3X2JSN3lndER5c21PdUdqUmtJc2psZlpOX3JncEZqajdKbmVRckwtemtoSi02VFpQdGp2a0Y3cDFPNEg1RHBwV1l4NWlENll1d3g2WmVkQzFNUlFDcml0OTluZS1fNnVqUnZ5RG85anlzbUhJQ3otIC1DdklWRTA4c0xIVUYzZ1lsZjNISnRlU3drYzVrN0c3QWdTZHR4VTVLYmFfUEVQdVdDZG1YbEQ0MV95Ny1uOFdiTC1ubTZWMTZ3V0hURXYtIC0za2dNOUFjQXJ4SG9vX20ycmx3Tnc1N3BhSGVXaUNqRl8wRzAwXS0tPjwvZz48L3N2Zz4=;" vertex="1" parent="1">
            <mxGeometry x="-330" y="40" width="1315" height="901" as="geometry" />
          </mxCell>
        </UserObject>
      </root>
    </mxGraphModel>
  </diagram>
</mxfile>
